<svg width="41" height="44" viewBox="0 0 41 44" fill="none" xmlns="http://www.w3.org/2000/svg">
<path d="M37.754 3.45098H32.1462V1.29412C32.1462 0.950896 32.0098 0.621732 31.7671 0.379038C31.5244 0.136344 31.1953 0 30.8521 0C30.5088 0 30.1797 0.136344 29.937 0.379038C29.6943 0.621732 29.5579 0.950896 29.5579 1.29412V3.45098H11.4403V1.29412C11.4403 0.950896 11.304 0.621732 11.0613 0.379038C10.8186 0.136344 10.4894 0 10.1462 0C9.80296 0 9.47379 0.136344 9.2311 0.379038C8.98841 0.621732 8.85206 0.950896 8.85206 1.29412V3.45098H3.24422C2.44337 3.45098 1.67532 3.76912 1.10903 4.3354C0.542746 4.90169 0.224609 5.66974 0.224609 6.47059V40.9804C0.224609 41.7812 0.542746 42.5493 1.10903 43.1156C1.67532 43.6819 2.44337 44 3.24422 44H37.754C38.5549 44 39.3229 43.6819 39.8892 43.1156C40.4555 42.5493 40.7736 41.7812 40.7736 40.9804V6.47059C40.7736 5.66974 40.4555 4.90169 39.8892 4.3354C39.3229 3.76912 38.5549 3.45098 37.754 3.45098ZM3.24422 6.03922H8.85206V8.19608C8.85206 8.5393 8.98841 8.86846 9.2311 9.11116C9.47379 9.35385 9.80296 9.4902 10.1462 9.4902C10.4894 9.4902 10.8186 9.35385 11.0613 9.11116C11.304 8.86846 11.4403 8.5393 11.4403 8.19608V6.03922H29.5579V8.19608C29.5579 8.5393 29.6943 8.86846 29.937 9.11116C30.1797 9.35385 30.5088 9.4902 30.8521 9.4902C31.1953 9.4902 31.5244 9.35385 31.7671 9.11116C32.0098 8.86846 32.1462 8.5393 32.1462 8.19608V6.03922H37.754C37.8684 6.03922 37.9782 6.08466 38.0591 6.16556C38.1399 6.24646 38.1854 6.35618 38.1854 6.47059V13.8039H2.81284V6.47059C2.81284 6.35618 2.85829 6.24646 2.93919 6.16556C3.02009 6.08466 3.12981 6.03922 3.24422 6.03922ZM37.754 41.4118H3.24422C3.12981 41.4118 3.02009 41.3663 2.93919 41.2854C2.85829 41.2045 2.81284 41.0948 2.81284 40.9804V16.3922H38.1854V40.9804C38.1854 41.0948 38.1399 41.2045 38.0591 41.2854C37.9782 41.3663 37.8684 41.4118 37.754 41.4118ZM16.6168 22V35.8039C16.6168 36.1471 16.4804 36.4763 16.2377 36.719C15.995 36.9617 15.6659 37.098 15.3226 37.098C14.9794 37.098 14.6503 36.9617 14.4076 36.719C14.1649 36.4763 14.0285 36.1471 14.0285 35.8039V24.0943L12.4497 24.8837C12.2976 24.9596 12.132 25.0048 11.9625 25.0168C11.7929 25.0287 11.6226 25.0071 11.4614 24.9532C11.3002 24.8993 11.1511 24.8142 11.0228 24.7028C10.8945 24.5913 10.7893 24.4556 10.7134 24.3035C10.6375 24.1514 10.5923 23.9859 10.5804 23.8163C10.5685 23.6467 10.5901 23.4765 10.6439 23.3152C10.6978 23.154 10.7829 23.005 10.8944 22.8766C11.0059 22.7483 11.1415 22.6432 11.2936 22.5673L14.7446 20.8418C14.9419 20.7432 15.1612 20.6968 15.3815 20.7068C15.6018 20.7169 15.8159 20.783 16.0035 20.8991C16.1911 21.0151 16.3459 21.1772 16.4532 21.3699C16.5605 21.5625 16.6168 21.7794 16.6168 22ZM29.4652 28.3088L24.8128 34.5098H29.1266C29.4698 34.5098 29.799 34.6461 30.0417 34.8888C30.2843 35.1315 30.4207 35.4607 30.4207 35.8039C30.4207 36.1471 30.2843 36.4763 30.0417 36.719C29.799 36.9617 29.4698 37.098 29.1266 37.098H22.2246C21.9843 37.098 21.7487 37.0311 21.5443 36.9048C21.3398 36.7784 21.1746 36.5976 21.0671 36.3827C20.9596 36.1677 20.9141 35.9271 20.9357 35.6877C20.9573 35.4483 21.0451 35.2197 21.1893 35.0275L27.4011 26.7451C27.58 26.5101 27.7087 26.2408 27.7792 25.954C27.8497 25.6672 27.8606 25.369 27.8112 25.0778C27.7617 24.7866 27.653 24.5086 27.4917 24.2612C27.3305 24.0138 27.1201 23.8021 26.8737 23.6393C26.6272 23.4765 26.35 23.366 26.0591 23.3147C25.7682 23.2635 25.4699 23.2725 25.1827 23.3412C24.8955 23.41 24.6254 23.537 24.3893 23.7144C24.1531 23.8918 23.9559 24.1158 23.8099 24.3725C23.7327 24.5335 23.6231 24.6767 23.4879 24.7932C23.3527 24.9097 23.1949 24.997 23.0244 25.0496C22.8539 25.1021 22.6743 25.1189 22.497 25.0987C22.3197 25.0786 22.1484 25.022 21.994 24.9325C21.8396 24.843 21.7054 24.7225 21.5998 24.5786C21.4942 24.4348 21.4195 24.2706 21.3804 24.0965C21.3413 23.9224 21.3386 23.7421 21.3725 23.5669C21.4065 23.3917 21.4763 23.2254 21.5776 23.0784C21.9028 22.5201 22.3386 22.034 22.8584 21.6501C23.3781 21.2662 23.9708 20.9924 24.6 20.8457C25.2293 20.6989 25.8819 20.6822 26.5179 20.7966C27.1538 20.911 27.7597 21.1541 28.2984 21.511C28.8371 21.8678 29.2972 22.331 29.6505 22.872C30.0039 23.4129 30.243 24.0204 30.3533 24.6571C30.4635 25.2938 30.4426 25.9463 30.2917 26.5746C30.1409 27.2029 29.8633 27.7938 29.476 28.311L29.4652 28.3088Z" fill="#333333"/>
</svg>
