<svg width="14" height="25" viewBox="0 0 14 25" fill="none" xmlns="http://www.w3.org/2000/svg">
<path d="M11.6606 14.972C12.7225 14.972 13.5732 14.109 13.495 13.0745C13.4242 12.1472 12.5933 11.4404 11.6245 11.4404C11.2433 11.4404 10.934 11.1436 10.934 10.7777V10.4345C10.934 10.1532 11.0843 9.89455 11.3265 9.73719C11.8158 9.42013 12.1375 8.88262 12.1375 8.27357C12.1375 7.29859 11.3141 6.50835 10.2981 6.50835H8.22399C7.96561 6.50835 7.75571 6.30692 7.75571 6.05901V4.71216C7.75571 4.3379 8.07121 4.03516 8.4612 4.03516H8.46243C9.43614 4.03516 10.2683 3.32003 10.3267 2.38678C10.3913 1.35102 9.54297 0.5 8.48851 0.5C7.66628 0.5 6.70001 0.5 5.88406 0.5C4.89793 0.5 4.09809 1.26758 4.09809 2.21395V2.29261C4.09809 3.26163 4.90414 4.03516 5.89771 4.03516H5.93867C6.50505 4.03516 6.96337 4.47498 6.96337 5.01848V6.08761C6.96337 6.38201 6.80438 6.65136 6.55099 6.81822C6.06789 7.13646 5.75238 7.66925 5.75238 8.27475C5.75238 9.24973 6.57584 10.0399 7.5918 10.0399H9.63984C9.91808 10.0399 10.1429 10.2557 10.1429 10.5227V11.0662C10.1429 11.357 10.0112 11.6371 9.77397 11.8159C9.34302 12.1388 9.06731 12.6418 9.06731 13.2068C9.06731 13.7956 9.36787 14.3165 9.82988 14.6371C10.1391 14.8516 10.3304 15.1902 10.3304 15.5572V16.6895C10.3304 16.8385 10.205 16.9601 10.0497 16.9589C9.21633 16.9565 6.8205 16.9553 6.8205 16.9553C6.64294 16.9553 6.50007 16.8171 6.50007 16.6478V15.3605C6.50007 15.2104 6.61932 15.0876 6.77455 15.0733C7.33472 15.0221 8.5593 14.7408 8.5593 13.2616C8.5593 12.2556 7.70976 11.4404 6.66151 11.4404H4.20861C3.89187 11.4404 3.63479 11.1937 3.63479 10.8898V10.6108C3.63479 10.2473 3.84094 9.91597 4.16765 9.73005C4.66938 9.44515 5.00469 8.91957 5.00469 8.32002V8.14721C5.00469 7.24258 4.24089 6.50835 3.29695 6.50835C2.3543 6.50835 1.58921 7.24134 1.58921 8.14721V8.32002C1.58921 8.86473 1.86616 9.34623 2.29219 9.64423C2.635 9.8838 2.84362 10.2604 2.84362 10.6669V11.0114C2.84362 11.2473 2.64367 11.4392 2.39778 11.4392C1.34953 11.4392 0.5 12.2545 0.5 13.2604C0.5 14.2664 1.34953 15.0817 2.39778 15.0817H5.02087C5.40219 15.0817 5.71019 15.3784 5.71019 15.7432V16.6192C5.71019 16.804 5.55367 16.9541 5.36116 16.9541H3.53546C2.47971 16.9541 1.62402 17.7754 1.62402 18.7885C1.62402 19.8016 2.47971 20.6228 3.53546 20.6228H4.81471C5.73996 20.6228 6.49017 21.3427 6.49017 22.2307V23.0221C6.49017 23.3272 6.23179 23.5751 5.91383 23.5751H5.26676C4.99978 23.5751 4.78489 23.7825 4.78489 24.0376C4.78489 24.2938 5.00101 24.5 5.26676 24.5H8.46864C8.73569 24.5 8.95052 24.2927 8.95052 24.0376C8.95052 23.7813 8.73446 23.5751 8.46864 23.5751H7.75571C7.49364 23.5751 7.28004 23.3713 7.28004 23.1186V22.3904C7.28004 21.4142 8.10473 20.6228 9.12192 20.6228H10.1938C11.2495 20.6228 12.1052 19.8016 12.1052 18.7885C12.1052 18.2104 11.8258 17.6943 11.3898 17.3582C11.2234 17.2295 11.1228 17.0388 11.1228 16.8337V15.4893C11.1203 15.2044 11.3625 14.972 11.6606 14.972Z" fill="#FCFCFC"/>
</svg>
