<svg width="32" height="32" viewBox="0 0 32 32" fill="none" xmlns="http://www.w3.org/2000/svg">
<path d="M3.66663 27.7179H28.3333M7.97063 4.2832H17.2213C18.2026 4.2832 19.1437 4.67302 19.8376 5.36691C20.5315 6.06079 20.9213 7.0019 20.9213 7.9832V27.7165H4.27063V7.9832C4.27063 7.0019 4.66045 6.06079 5.35433 5.36691C6.04822 4.67302 6.98933 4.2832 7.97063 4.2832Z" stroke="#FF8C42" stroke-width="1.5" stroke-linecap="round" stroke-linejoin="round"/>
<path d="M8.896 9.21875H16.296M8.896 14.1521H16.296M20.92 12.3014H23.3867C23.8728 12.3011 24.3542 12.3965 24.8034 12.5823C25.2526 12.7681 25.6608 13.0406 26.0047 13.3842C26.3485 13.7278 26.6213 14.1358 26.8074 14.5849C26.9935 15.034 27.0893 15.5153 27.0893 16.0014V27.7188M11.3747 19.0854H13.8413C14.3319 19.0858 14.8024 19.2806 15.1496 19.6273C15.4967 19.974 15.6923 20.4441 15.6933 20.9347V27.7188H9.52533V20.9347C9.52533 20.4443 9.72017 19.9739 10.067 19.6271C10.4138 19.2803 10.8842 19.0854 11.3747 19.0854Z" stroke="#FF8C42" stroke-width="1.5" stroke-linecap="round" stroke-linejoin="round"/>
</svg>
