<svg width="32" height="32" viewBox="0 0 32 32" fill="none" xmlns="http://www.w3.org/2000/svg">
<path d="M16 6.66732C14.154 6.66732 12.3495 7.21471 10.8147 8.24027C9.27981 9.26583 8.08353 10.7235 7.37711 12.4289C6.67069 14.1344 6.48586 16.011 6.84599 17.8215C7.20612 19.632 8.09503 21.295 9.40032 22.6003C10.7056 23.9056 12.3687 24.7945 14.1791 25.1546C15.9896 25.5148 17.8663 25.3299 19.5717 24.6235C21.2771 23.9171 22.7348 22.7208 23.7604 21.186C24.7859 19.6511 25.3333 17.8466 25.3333 16.0007C25.3333 13.5253 24.35 11.1513 22.5996 9.40099C20.8493 7.65065 18.4753 6.66732 16 6.66732ZM16 22.6673C14.6814 22.6673 13.3925 22.2763 12.2962 21.5438C11.1999 20.8112 10.3454 19.77 9.84079 18.5519C9.33621 17.3337 9.20418 15.9933 9.46142 14.7C9.71865 13.4068 10.3536 12.219 11.2859 11.2866C12.2183 10.3543 13.4062 9.71932 14.6994 9.46208C15.9926 9.20485 17.333 9.33687 18.5512 9.84145C19.7694 10.346 20.8106 11.2005 21.5431 12.2968C22.2757 13.3932 22.6667 14.6821 22.6667 16.0007C22.6667 17.7688 21.9643 19.4645 20.714 20.7147C19.4638 21.9649 17.7681 22.6673 16 22.6673ZM16 12.0007C15.2089 12.0007 14.4355 12.2352 13.7777 12.6748C13.1199 13.1143 12.6072 13.739 12.3045 14.4699C12.0017 15.2008 11.9225 16.0051 12.0768 16.781C12.2312 17.5569 12.6121 18.2697 13.1716 18.8291C13.731 19.3885 14.4437 19.7695 15.2196 19.9238C15.9955 20.0781 16.7998 19.9989 17.5307 19.6962C18.2616 19.3934 18.8863 18.8807 19.3259 18.2229C19.7654 17.5651 20 16.7918 20 16.0007C20 14.9398 19.5786 13.9224 18.8284 13.1722C18.0783 12.4221 17.0609 12.0007 16 12.0007ZM16 17.334C15.7363 17.334 15.4785 17.2558 15.2592 17.1093C15.04 16.9628 14.8691 16.7545 14.7681 16.5109C14.6672 16.2673 14.6408 15.9992 14.6923 15.7405C14.7437 15.4819 14.8707 15.2443 15.0572 15.0578C15.2436 14.8714 15.4812 14.7444 15.7399 14.6929C15.9985 14.6415 16.2666 14.6679 16.5102 14.7688C16.7539 14.8697 16.9621 15.0406 17.1086 15.2599C17.2551 15.4792 17.3333 15.7369 17.3333 16.0007C17.3333 16.3543 17.1928 16.6934 16.9428 16.9435C16.6927 17.1935 16.3536 17.334 16 17.334ZM16 1.33398C13.0992 1.33398 10.2635 2.19417 7.85162 3.80576C5.4397 5.41736 3.55984 7.70798 2.44975 10.388C1.33967 13.0679 1.04922 16.0169 1.61514 18.862C2.18105 21.707 3.57792 24.3204 5.62909 26.3715C7.68026 28.4227 10.2936 29.8196 13.1387 30.3855C15.9837 30.9514 18.9327 30.661 21.6127 29.5509C24.2927 28.4408 26.5833 26.5609 28.1949 24.149C29.8065 21.7371 30.6667 18.9014 30.6667 16.0007C30.6667 12.1108 29.1214 8.38028 26.3709 5.62975C23.6204 2.87922 19.8898 1.33398 16 1.33398ZM16 28.0006C13.6266 28.0006 11.3065 27.2969 9.33314 25.9783C7.35975 24.6597 5.82168 22.7856 4.91343 20.5929C4.00518 18.4001 3.76754 15.9873 4.23056 13.6596C4.69359 11.3318 5.83647 9.1936 7.5147 7.51537C9.19293 5.83714 11.3311 4.69425 13.6589 4.23123C15.9867 3.7682 18.3995 4.00584 20.5922 4.9141C22.7849 5.82235 24.659 7.36042 25.9776 9.33381C27.2962 11.3072 28 13.6273 28 16.0007C28 19.1832 26.7357 22.2355 24.4853 24.4859C22.2348 26.7364 19.1826 28.0006 16 28.0006Z" fill="#FF8C42"/>
</svg>
