<svg width="32" height="32" viewBox="0 0 32 32" fill="none" xmlns="http://www.w3.org/2000/svg">
<path d="M13.3334 7.99602C13.3334 8.97202 13.0707 9.88802 12.6134 10.676L16 14.1093L24.9707 5.13868C25.4708 4.63876 26.1489 4.35792 26.856 4.35792C27.5631 4.35792 28.2413 4.63876 28.7414 5.13868L12.5947 21.2853C13.254 22.4036 13.4829 23.7238 13.2384 24.9987C12.9939 26.2736 12.2928 27.4156 11.2666 28.2105C10.2403 29.0055 8.9594 29.3988 7.66388 29.3169C6.36835 29.235 5.14718 28.6833 4.22927 27.7654C3.31136 26.8475 2.75974 25.6264 2.67781 24.3308C2.59587 23.0353 2.98925 21.7544 3.7842 20.7281C4.57915 19.7019 5.7211 19.0008 6.99598 18.7563C8.27086 18.5118 9.59115 18.7407 10.7094 19.4L14.1147 15.9947L10.7094 12.5893C9.69624 13.1869 8.51402 13.4327 7.34669 13.2886C6.17936 13.1445 5.0924 12.6186 4.25498 11.7927C3.41755 10.9668 2.87664 9.8872 2.71641 8.72197C2.55619 7.55675 2.78564 6.37124 3.36907 5.34995C3.95249 4.32866 4.85716 3.52888 5.94228 3.07507C7.02739 2.62126 8.23209 2.53889 9.36888 2.84077C10.5057 3.14265 11.5108 3.81185 12.2278 4.74422C12.9448 5.67659 13.3335 6.81983 13.3334 7.99602ZM10.6667 7.99602C10.6667 7.28877 10.3857 6.6105 9.88565 6.1104C9.38555 5.6103 8.70727 5.32935 8.00003 5.32935C7.29278 5.32935 6.61451 5.6103 6.11441 6.1104C5.61431 6.6105 5.33336 7.28877 5.33336 7.99602C5.33336 8.70326 5.61431 9.38154 6.11441 9.88163C6.61451 10.3817 7.29278 10.6627 8.00003 10.6627C8.70727 10.6627 9.38555 10.3817 9.88565 9.88163C10.3857 9.38154 10.6667 8.70326 10.6667 7.99602ZM28.7414 26.852C28.2413 27.3519 27.5631 27.6328 26.856 27.6328C26.1489 27.6328 25.4708 27.3519 24.9707 26.852L17.8814 19.7627L19.768 17.8773L28.7414 26.852ZM21.3334 14.6627H24V17.3293H21.3334V14.6627ZM26.6667 14.6627H29.3334V17.3293H26.6667V14.6627ZM8.00003 14.6627H10.6667V17.3293H8.00003V14.6627ZM2.66669 14.6627H5.33336V17.3293H2.66669V14.6627ZM8.00003 26.6627C8.70727 26.6627 9.38555 26.3817 9.88565 25.8816C10.3857 25.3815 10.6667 24.7033 10.6667 23.996C10.6667 23.2888 10.3857 22.6105 9.88565 22.1104C9.38555 21.6103 8.70727 21.3293 8.00003 21.3293C7.29278 21.3293 6.61451 21.6103 6.11441 22.1104C5.61431 22.6105 5.33336 23.2888 5.33336 23.996C5.33336 24.7033 5.61431 25.3815 6.11441 25.8816C6.61451 26.3817 7.29278 26.6627 8.00003 26.6627Z" fill="#FF8C42"/>
</svg>
