<svg width="32" height="32" viewBox="0 0 32 32" fill="none" xmlns="http://www.w3.org/2000/svg">
<path d="M2 16.5C2 10.1361 2 6.95415 3.9764 4.9764C5.9555 3 9.1361 3 15.5 3C21.8639 3 25.0459 3 27.0223 4.9764C29 6.9555 29 10.1361 29 16.5C29 22.8639 29 26.0459 27.0223 28.0223C25.0472 30 21.8639 30 15.5 30C9.1361 30 5.95415 30 3.9764 28.0223C2 26.0472 2 22.8639 2 16.5Z" stroke="#FF8C42" stroke-width="1.2"/>
<path d="M22.25 3.67383V29.3238M8.75 3.67383V29.3238M2.675 9.74883H8.75M28.325 9.74883H22.25M2.675 23.2488H8.75M28.325 23.2488H22.25M2 16.4988H29" stroke="#FF8C42" stroke-width="1.5" stroke-linecap="round"/>
</svg>
