<svg width="40" height="40" viewBox="0 0 40 40" fill="none" xmlns="http://www.w3.org/2000/svg">
<path d="M16 38V20M22 12H11C9.67392 12 8.40215 11.4732 7.46447 10.5355C6.52678 9.59785 6 8.32608 6 7C6 5.67392 6.52678 4.40215 7.46447 3.46447C8.40215 2.52678 9.67392 2 11 2C14 2 16.75 4.5 18.75 7M24 38V20M6 20H34V36C34 36.5304 33.7893 37.0391 33.4142 37.4142C33.0391 37.7893 32.5304 38 32 38H8C7.46957 38 6.96086 37.7893 6.58579 37.4142C6.21071 37.0391 6 36.5304 6 36V20ZM4 12H36C36.5304 12 37.0391 12.2107 37.4142 12.5858C37.7893 12.9609 38 13.4696 38 14V20H2V14C2 13.4696 2.21071 12.9609 2.58579 12.5858C2.96086 12.2107 3.46957 12 4 12ZM28.31 2C22.31 2 17.31 12 17.31 12H28.31C29.6361 12 30.9079 11.4732 31.8455 10.5355C32.7832 9.59785 33.31 8.32608 33.31 7C33.31 5.67392 32.7832 4.40215 31.8455 3.46447C30.9079 2.52678 29.6361 2 28.31 2Z" stroke="#333333" stroke-width="2.2" stroke-linecap="round" stroke-linejoin="round"/>
</svg>
