<svg width="140" height="40" viewBox="0 0 140 40" fill="none" xmlns="http://www.w3.org/2000/svg">
<mask id="mask0_181_284" style="mask-type:luminance" maskUnits="userSpaceOnUse" x="0" y="0" width="140" height="40">
<path d="M140 0H0V40H140V0Z" fill="white"/>
</mask>
<g mask="url(#mask0_181_284)">
<path d="M12.6315 24.9939H5.7635L4.79993 27.1445H0L6.13766 13.9165H12.4342L18.7129 27.1445H13.6105L12.6315 24.9939ZM9.18983 17.385L7.17298 21.9008H11.24L9.18983 17.385Z" fill="#FCFCFC"/>
<path d="M33.5246 20.7795C33.9525 20.851 34.3549 20.9584 34.729 21.0988C35.1032 21.2393 35.4313 21.4359 35.7106 21.6863C35.9899 21.9341 36.2102 22.2431 36.3717 22.6109C36.5332 22.9787 36.6126 23.418 36.6126 23.9263V25.9722C36.6126 26.317 36.6306 26.5596 36.6664 26.7001C36.7023 26.8431 36.7484 26.9607 36.8099 27.0552V27.1445H31.8691C31.846 27.1088 31.8179 27.0271 31.7896 26.8969C31.7588 26.7665 31.7461 26.5775 31.7461 26.3272V25.2085C31.7461 24.782 31.705 24.427 31.6205 24.1408C31.5359 23.8573 31.4001 23.6325 31.2105 23.4639C31.0208 23.298 30.7672 23.1805 30.4519 23.1089C30.1367 23.0374 29.742 23.0017 29.2654 23.0017H25.0548V27.1445H20.2395V13.9165H30.9619C32.174 13.9165 33.1479 14.0237 33.8782 14.2357C34.6086 14.4502 35.1672 14.7287 35.5542 15.0709C35.9412 15.4158 36.1974 15.8039 36.3205 16.2357C36.446 16.6673 36.5075 17.0989 36.5075 17.5256V17.6507C36.5075 18.1257 36.4229 18.5395 36.259 18.8945C36.0924 19.2496 35.8695 19.556 35.5902 19.8089C35.3107 20.0644 34.9929 20.2713 34.6368 20.4322C34.2754 20.5931 33.9064 20.708 33.5246 20.7795ZM25.0522 19.5535H29.9573C30.2776 19.5535 30.5365 19.5203 30.7338 19.4565C30.9311 19.3927 31.0874 19.3058 31.2054 19.1985C31.3232 19.0913 31.4052 18.9712 31.4463 18.8332C31.4872 18.6979 31.5078 18.5574 31.5078 18.4144V18.3786C31.5078 18.2356 31.4872 18.1002 31.4463 17.97C31.4052 17.8396 31.3232 17.7248 31.2054 17.6226C31.0874 17.523 30.9285 17.4413 30.7338 17.3824C30.5365 17.3237 30.2776 17.2931 29.9573 17.2931H25.0522V19.5535Z" fill="#FCFCFC"/>
<path d="M78.0816 27.3607C76.9386 27.3607 75.9366 27.2559 75.0756 27.0491C74.2119 26.8421 73.4764 26.5663 72.8639 26.2215C72.2514 25.8766 71.7466 25.4808 71.3468 25.0313C70.9471 24.5818 70.6293 24.1118 70.3935 23.6264C70.1552 23.1412 69.9911 22.6507 69.9041 22.1604C69.8144 21.6699 69.7708 21.2026 69.7708 20.7657V20.2319C69.7708 19.7926 69.8144 19.3278 69.9041 18.8373C69.9937 18.347 70.1526 17.8591 70.3858 17.3788C70.619 16.8987 70.9317 16.4364 71.3315 15.992C71.7287 15.5476 72.2387 15.1568 72.8562 14.8197C73.4739 14.4824 74.2119 14.2118 75.0679 14.0099C75.9239 13.8081 76.9284 13.7085 78.0816 13.7085H78.8837C80.037 13.7085 81.0441 13.7928 81.9077 13.9563C82.7688 14.1223 83.5043 14.3445 84.1117 14.6229C84.719 14.9013 85.2136 15.2257 85.6006 15.5909C85.9875 15.9587 86.2925 16.3444 86.518 16.7455C86.7435 17.1491 86.8973 17.5577 86.9819 17.9715C87.0639 18.3878 87.1074 18.7786 87.1074 19.1438V19.2869H82.1307C82.1178 19.2026 82.0769 19.0519 82.0051 18.8348C81.9334 18.6177 81.777 18.3904 81.5336 18.1554C81.2901 17.9204 80.9262 17.7109 80.4445 17.5295C79.9626 17.3483 79.3118 17.2588 78.4917 17.2588C77.7177 17.2588 77.0924 17.3611 76.6107 17.5628C76.1289 17.7645 75.7547 18.02 75.4856 18.324C75.2191 18.6279 75.0371 18.9573 74.9424 19.315C74.8475 19.6726 74.7989 20.0122 74.7989 20.3341V20.5486C74.7989 20.8705 74.8501 21.2152 74.9501 21.5856C75.0499 21.9561 75.2345 22.2983 75.5035 22.615C75.7701 22.9318 76.1468 23.1922 76.6285 23.4016C77.1104 23.6111 77.7383 23.7158 78.5096 23.7158C79.3296 23.7158 79.978 23.6264 80.4546 23.4502C80.9313 23.2714 81.2901 23.0671 81.5336 22.8372C81.777 22.6073 81.9359 22.3851 82.0051 22.1706C82.0769 21.9585 82.1178 21.8155 82.1307 21.744H87.1074V21.887C87.1074 22.2319 87.0665 22.6048 86.9819 23.0083C86.8973 23.4119 86.7461 23.818 86.5257 24.2266C86.3053 24.6354 86.0029 25.0262 85.616 25.3991C85.229 25.772 84.7293 26.104 84.1168 26.3951C83.5043 26.6863 82.7688 26.9187 81.9128 27.0976C81.0569 27.2764 80.0447 27.3631 78.8811 27.3631H78.0816V27.3607Z" fill="#FCFCFC"/>
<path d="M100.288 24.9939H93.4197L92.4561 27.1445H87.6562L93.7938 13.9165H100.09L106.369 27.1445H101.267L100.288 24.9939ZM96.8461 17.385L94.8293 21.9008H98.8963L96.8461 17.385Z" fill="#FCFCFC"/>
<path d="M114.88 27.3403C113.703 27.3403 112.691 27.2687 111.848 27.1257C111.002 26.9827 110.295 26.7936 109.726 26.5561C109.154 26.3185 108.693 26.0478 108.345 25.7387C107.993 25.4297 107.73 25.1104 107.55 24.7784C107.371 24.4463 107.253 24.1118 107.194 23.7746C107.135 23.4375 107.104 23.1207 107.104 22.8244V22.7171H112.278C112.291 22.8475 112.322 23.0007 112.376 23.1794C112.43 23.3583 112.547 23.5269 112.732 23.6851C112.916 23.8461 113.185 23.984 113.544 24.1041C113.901 24.2215 114.387 24.2828 115.008 24.2828H115.115C115.723 24.2828 116.204 24.2471 116.561 24.1756C116.916 24.1041 117.194 24.0096 117.391 23.8921C117.588 23.7746 117.714 23.6443 117.775 23.5013C117.834 23.3583 117.865 23.2178 117.865 23.0748C117.865 22.9215 117.834 22.7785 117.775 22.6482C117.717 22.5179 117.596 22.4031 117.419 22.3008C117.239 22.2012 116.986 22.1194 116.653 22.0607C116.32 22.002 115.887 21.9662 115.351 21.9535L113.496 21.8998C112.271 21.8769 111.256 21.7517 110.454 21.5269C109.652 21.3021 109.014 21.0058 108.545 20.6381C108.076 20.2703 107.747 19.8489 107.563 19.3763C107.378 18.9012 107.286 18.3981 107.286 17.8642V17.7212C107.286 17.1515 107.394 16.6254 107.606 16.1376C107.822 15.6522 108.198 15.2283 108.739 14.8656C109.28 14.5029 110.018 14.222 110.951 14.0201C111.884 13.8184 113.075 13.7188 114.528 13.7188H115.295C116.888 13.7188 118.17 13.844 119.139 14.0917C120.107 14.3394 120.853 14.6639 121.379 15.0597C121.901 15.4582 122.25 15.9026 122.422 16.3931C122.593 16.886 122.681 17.3739 122.681 17.8591V17.9485H117.596C117.573 17.8157 117.526 17.6701 117.462 17.5194C117.396 17.3662 117.267 17.2282 117.078 17.0979C116.888 16.9703 116.625 16.8629 116.284 16.7786C115.945 16.6944 115.502 16.651 114.954 16.651H114.81C114.275 16.651 113.842 16.674 113.508 16.7225C113.175 16.7711 112.916 16.84 112.732 16.9293C112.547 17.0187 112.422 17.1286 112.358 17.2563C112.291 17.384 112.26 17.5194 112.26 17.6625C112.26 17.8081 112.291 17.9408 112.35 18.0608C112.409 18.181 112.524 18.2856 112.699 18.3776C112.87 18.467 113.111 18.5436 113.421 18.6049C113.731 18.6662 114.134 18.702 114.633 18.7122L116.543 18.7479C117.839 18.7837 118.897 18.9012 119.717 19.1029C120.538 19.3048 121.184 19.5755 121.653 19.9127C122.122 20.2498 122.447 20.6585 122.624 21.1386C122.803 21.6189 122.891 22.1501 122.891 22.7299V22.9444C122.891 23.2996 122.855 23.6546 122.782 24.0121C122.711 24.3671 122.578 24.7094 122.381 25.0337C122.183 25.3607 121.912 25.6621 121.561 25.9405C121.21 26.219 120.756 26.4615 120.195 26.6685C119.636 26.8754 118.957 27.0389 118.16 27.1563C117.363 27.2739 116.417 27.3351 115.323 27.3351H114.88V27.3403Z" fill="#FCFCFC"/>
<path d="M129.888 17.5613H124.573V13.9165H140.003V17.5613H134.686V27.1445H129.888V17.5613Z" fill="#FCFCFC"/>
<path d="M65.2008 0C64.3756 0 63.6888 6.81967 63.5273 15.8921C63.3581 7.56804 62.6764 1.34605 61.859 1.34605C61.0338 1.34605 60.347 7.71108 60.1855 16.1757C60.0164 8.45945 59.3348 2.68955 58.5198 2.68955C57.6947 2.68955 57.0053 8.59993 56.8464 16.4592C56.6746 9.35086 55.993 4.03561 55.1806 4.03561C54.3554 4.03561 53.666 9.49135 53.5071 16.7427C53.3354 10.2397 52.6537 5.38166 51.8414 5.38166C51.0162 5.38166 50.3268 10.3828 50.1679 17.0287C49.9963 11.1337 49.3146 6.72772 48.5023 6.72772C47.6745 6.72772 46.9851 11.2793 46.8288 17.3199C46.6571 12.0277 45.9754 8.07378 45.163 8.07378C44.3353 8.07378 43.6459 12.1707 43.4896 17.6085C43.3178 12.9216 42.6361 9.41982 41.8238 9.41982C40.8808 9.41982 40.1145 14.1323 40.1145 19.9481C40.1145 25.7641 40.8782 30.4765 41.8238 30.4765C42.6361 30.4765 43.3153 26.9773 43.4896 22.2878C43.6459 27.7257 44.3353 31.8226 45.163 31.8226C45.9754 31.8226 46.6571 27.8687 46.8288 22.5764C46.9851 28.6196 47.6771 33.1686 48.5023 33.1686C49.3172 33.1686 49.9963 28.7652 50.1679 22.8676C50.3268 29.5136 51.0162 34.5146 51.8414 34.5146C52.6563 34.5146 53.3354 29.6566 53.5071 23.1537C53.666 30.405 54.3554 35.8607 55.1806 35.8607C55.9955 35.8607 56.6772 30.548 56.8464 23.4372C57.0053 31.2964 57.6947 37.2067 58.5198 37.2067C59.3348 37.2067 60.0164 31.4394 60.1855 23.7207C60.3444 32.1852 61.0338 38.5502 61.859 38.5502C62.6739 38.5502 63.3556 32.3257 63.5273 24.0042C63.6888 33.0766 64.3756 39.8964 65.2008 39.8964C66.1438 39.8964 66.91 30.9644 66.91 19.9456C66.91 8.92687 66.1438 0 65.2008 0Z" fill="#FF8C42"/>
</g>
</svg>
