<svg width="140" height="40" viewBox="0 0 140 40" fill="none" xmlns="http://www.w3.org/2000/svg">
<path d="M12.6315 24.9954H5.7635L4.79993 27.146H0L6.13766 13.918H12.4342L18.7129 27.146H13.6105L12.6315 24.9954ZM9.18983 17.3865L7.17298 21.9023H11.24L9.18983 17.3865Z" fill="#333333"/>
<path d="M33.5194 20.781C33.9474 20.8525 34.3498 20.9598 34.7239 21.1003C35.0981 21.2408 35.4261 21.4374 35.7054 21.6877C35.9847 21.9355 36.2051 22.2446 36.3666 22.6124C36.528 22.9802 36.6075 23.4195 36.6075 23.9277V25.9737C36.6075 26.3184 36.6255 26.5611 36.6613 26.7016C36.6972 26.8446 36.7433 26.9622 36.8048 27.0567V27.146H31.8639C31.8408 27.1103 31.8127 27.0286 31.7845 26.8983C31.7537 26.768 31.741 26.579 31.741 26.3287V25.2099C31.741 24.7834 31.6999 24.4284 31.6153 24.1423C31.5307 23.8588 31.3949 23.634 31.2054 23.4654C31.0157 23.2995 30.762 23.1819 30.4468 23.1104C30.1316 23.0389 29.7369 23.0032 29.2603 23.0032H25.0497V27.146H20.2344V13.918H30.9567C32.1689 13.918 33.1427 14.0252 33.8731 14.2372C34.6035 14.4517 35.1621 14.7302 35.5491 15.0724C35.9361 15.4173 36.1923 15.8054 36.3154 16.2372C36.4409 16.6688 36.5024 17.1004 36.5024 17.527V17.6522C36.5024 18.1272 36.4178 18.541 36.2539 18.896C36.0873 19.2511 35.8643 19.5575 35.585 19.8104C35.3056 20.0659 34.9878 20.2727 34.6316 20.4337C34.2703 20.5946 33.9013 20.7095 33.5194 20.781ZM25.0471 19.5549H29.9521C30.2725 19.5549 30.5314 19.5218 30.7287 19.458C30.9259 19.3941 31.0823 19.3073 31.2002 19.1999C31.3181 19.0927 31.4001 18.9726 31.4411 18.8347C31.4821 18.6994 31.5026 18.5589 31.5026 18.4159V18.3801C31.5026 18.237 31.4821 18.1017 31.4411 17.9715C31.4001 17.8411 31.3181 17.7262 31.2002 17.624C31.0823 17.5245 30.9234 17.4427 30.7287 17.3839C30.5314 17.3252 30.2725 17.2946 29.9521 17.2946H25.0471V19.5549Z" fill="#333333"/>
<path d="M78.0765 27.3592C76.9335 27.3592 75.9315 27.2545 75.0705 27.0476C74.2068 26.8406 73.4713 26.5648 72.8588 26.2201C72.2463 25.8752 71.7415 25.4794 71.3417 25.0298C70.942 24.5803 70.6242 24.1103 70.3884 23.6249C70.15 23.1397 69.986 22.6492 69.899 22.1589C69.8093 21.6684 69.7656 21.2011 69.7656 20.7642V20.2304C69.7656 19.7911 69.8093 19.3263 69.899 18.8359C69.9886 18.3455 70.1475 17.8576 70.3807 17.3774C70.6139 16.8973 70.9266 16.4349 71.3264 15.9905C71.7235 15.5461 72.2336 15.1553 72.8511 14.8182C73.4687 14.481 74.2068 14.2103 75.0628 14.0084C75.9187 13.8067 76.9232 13.707 78.0765 13.707H78.8786C80.0318 13.707 81.039 13.7913 81.9026 13.9548C82.7637 14.1209 83.4992 14.3431 84.1065 14.6214C84.7139 14.8998 85.2084 15.2242 85.5954 15.5895C85.9824 15.9573 86.2874 16.343 86.5129 16.744C86.7384 17.1476 86.8922 17.5562 86.9768 17.9701C87.0588 18.3863 87.1023 18.7771 87.1023 19.1424V19.2854H82.1255C82.1127 19.2011 82.0717 19.0504 82 18.8333C81.9282 18.6162 81.7719 18.3889 81.5284 18.1539C81.2849 17.9189 80.9211 17.7095 80.4393 17.5281C79.9575 17.3468 79.3066 17.2574 78.4866 17.2574C77.7126 17.2574 77.0873 17.3596 76.6056 17.5613C76.1237 17.7631 75.7496 18.0185 75.4804 18.3225C75.214 18.6265 75.032 18.9559 74.9372 19.3135C74.8424 19.6711 74.7937 20.0108 74.7937 20.3326V20.5471C74.7937 20.869 74.8449 21.2138 74.9449 21.5841C75.0448 21.9546 75.2294 22.2968 75.4984 22.6135C75.765 22.9303 76.1417 23.1908 76.6234 23.4002C77.1052 23.6096 77.7331 23.7144 78.5044 23.7144C79.3245 23.7144 79.9729 23.6249 80.4495 23.4488C80.9262 23.2699 81.2849 23.0656 81.5284 22.8358C81.7719 22.6059 81.9308 22.3837 82 22.1691C82.0717 21.957 82.1127 21.814 82.1255 21.7425H87.1023V21.8855C87.1023 22.2304 87.0613 22.6033 86.9768 23.0068C86.8922 23.4104 86.741 23.8166 86.5206 24.2252C86.3002 24.6339 85.9978 25.0247 85.6108 25.3976C85.2238 25.7705 84.7242 26.1025 84.1117 26.3937C83.4992 26.6848 82.7637 26.9173 81.9077 27.0961C81.0517 27.2749 80.0395 27.3617 78.876 27.3617H78.0765V27.3592Z" fill="#333333"/>
<path d="M100.288 24.9954H93.4197L92.4561 27.146H87.6562L93.7938 13.918H100.09L106.369 27.146H101.267L100.288 24.9954ZM96.8461 17.3865L94.8293 21.9023H98.8963L96.8461 17.3865Z" fill="#333333"/>
<path d="M114.885 27.3442C113.708 27.3442 112.696 27.2727 111.853 27.1296C111.007 26.9866 110.3 26.7975 109.731 26.56C109.16 26.3224 108.698 26.0517 108.35 25.7427C107.999 25.4336 107.735 25.1143 107.555 24.7823C107.376 24.4502 107.258 24.1157 107.199 23.7785C107.14 23.4414 107.109 23.1246 107.109 22.8284V22.721H112.283C112.296 22.8514 112.327 23.0046 112.381 23.1834C112.435 23.3622 112.553 23.5308 112.737 23.6891C112.922 23.85 113.191 23.9879 113.549 24.108C113.906 24.2254 114.393 24.2867 115.013 24.2867H115.12C115.728 24.2867 116.209 24.251 116.566 24.1795C116.921 24.108 117.199 24.0135 117.396 23.896C117.593 23.7785 117.719 23.6482 117.78 23.5052C117.84 23.3622 117.87 23.2217 117.87 23.0787C117.87 22.9254 117.84 22.7824 117.78 22.6521C117.722 22.5218 117.602 22.407 117.424 22.3047C117.245 22.2051 116.991 22.1234 116.658 22.0646C116.325 22.0059 115.892 21.9701 115.356 21.9574L113.501 21.9037C112.276 21.8808 111.261 21.7556 110.459 21.5308C109.657 21.306 109.019 21.0097 108.55 20.642C108.081 20.2742 107.753 19.8528 107.568 19.3802C107.384 18.9051 107.291 18.402 107.291 17.8681V17.7251C107.291 17.1554 107.399 16.6293 107.612 16.1415C107.827 15.6561 108.204 15.2322 108.744 14.8695C109.285 14.5068 110.023 14.2259 110.956 14.0241C111.889 13.8223 113.08 13.7227 114.533 13.7227H115.3C116.893 13.7227 118.176 13.8479 119.144 14.0956C120.112 14.3434 120.858 14.6678 121.384 15.0636C121.907 15.4621 122.255 15.9065 122.427 16.397C122.598 16.8899 122.686 17.3778 122.686 17.863V17.9524H117.602C117.578 17.8196 117.532 17.6741 117.467 17.5234C117.401 17.3701 117.273 17.2321 117.084 17.1018C116.893 16.9742 116.63 16.8668 116.289 16.7825C115.951 16.6984 115.507 16.6549 114.959 16.6549H114.815C114.28 16.6549 113.847 16.6779 113.514 16.7264C113.18 16.775 112.922 16.8439 112.737 16.9332C112.553 17.0227 112.427 17.1325 112.363 17.2602C112.296 17.3879 112.265 17.5234 112.265 17.6664C112.265 17.812 112.296 17.9447 112.355 18.0647C112.414 18.1849 112.529 18.2895 112.704 18.3815C112.875 18.4709 113.116 18.5475 113.426 18.6088C113.737 18.6701 114.139 18.7059 114.639 18.7161L116.548 18.7518C117.844 18.7877 118.902 18.9051 119.723 19.1068C120.543 19.3087 121.189 19.5794 121.658 19.9166C122.127 20.2537 122.453 20.6624 122.629 21.1425C122.808 21.6228 122.896 22.1541 122.896 22.7338V22.9484C122.896 23.3035 122.86 23.6585 122.787 24.016C122.716 24.371 122.583 24.7134 122.386 25.0377C122.188 25.3646 121.917 25.666 121.566 25.9444C121.215 26.2229 120.761 26.4654 120.2 26.6724C119.641 26.8793 118.962 27.0428 118.165 27.1602C117.368 27.2778 116.422 27.3391 115.328 27.3391H114.885V27.3442Z" fill="#333333"/>
<path d="M129.886 17.5627H124.57V13.918H140.001V17.5627H134.683V27.146H129.886V17.5627Z" fill="#333333"/>
<path d="M65.2034 0C64.3783 0 63.6914 6.81967 63.53 15.8921C63.3608 7.56804 62.6791 1.34605 61.8616 1.34605C61.0365 1.34605 60.3496 7.71108 60.1882 16.1757C60.0191 8.45945 59.3374 2.68955 58.5225 2.68955C57.6973 2.68955 57.008 8.59993 56.8491 16.4592C56.6773 9.35086 55.9956 4.03561 55.1833 4.03561C54.3581 4.03561 53.6687 9.49135 53.5098 16.7427C53.3381 10.2397 52.6564 5.38166 51.8441 5.38166C51.0189 5.38166 50.3295 10.3828 50.1706 17.0287C49.999 11.1337 49.3173 6.72772 48.5049 6.72772C47.6772 6.72772 46.9878 11.2793 46.8315 17.3199C46.6597 12.0277 45.9781 8.07378 45.1657 8.07378C44.338 8.07378 43.6486 12.1707 43.4922 17.6085C43.3205 12.9216 42.6388 9.41982 41.8265 9.41982C40.8835 9.41982 40.1172 14.1323 40.1172 19.9481C40.1172 25.7641 40.8809 30.4765 41.8265 30.4765C42.6388 30.4765 43.3179 26.9773 43.4922 22.2878C43.6486 27.7257 44.338 31.8226 45.1657 31.8226C45.9781 31.8226 46.6597 27.8687 46.8315 22.5764C46.9878 28.6196 47.6798 33.1686 48.5049 33.1686C49.3199 33.1686 49.999 28.7652 50.1706 22.8676C50.3295 29.5136 51.0189 34.5146 51.8441 34.5146C52.659 34.5146 53.3381 29.6566 53.5098 23.1537C53.6687 30.405 54.3581 35.8607 55.1833 35.8607C55.9982 35.8607 56.6799 30.548 56.8491 23.4372C57.008 31.2964 57.6973 37.2067 58.5225 37.2067C59.3374 37.2067 60.0191 31.4394 60.1882 23.7207C60.3471 32.1852 61.0365 38.5502 61.8616 38.5502C62.6766 38.5502 63.3582 32.3257 63.53 24.0042C63.6914 33.0766 64.3783 39.8964 65.2034 39.8964C66.1465 39.8964 66.9127 30.9644 66.9127 19.9456C66.9127 8.92687 66.1465 0 65.2034 0Z" fill="#FF8C42"/>
</svg>
