<svg width="531" height="19" viewBox="0 0 531 19" fill="none" xmlns="http://www.w3.org/2000/svg">
<path d="M6.3 15.18C4.46 15.18 3.05333 14.6933 2.08 13.72C1.12 12.7333 0.64 11.3 0.64 9.42V0.899999H2.28V9.34C2.28 10.8067 2.62 11.9067 3.3 12.64C3.98 13.36 4.98 13.72 6.3 13.72C7.62 13.72 8.61333 13.36 9.28 12.64C9.94667 11.9067 10.28 10.8067 10.28 9.34V0.899999H11.92V9.42C11.92 11.3 11.44 12.7333 10.48 13.72C9.53333 14.6933 8.14 15.18 6.3 15.18ZM18.3508 15.18C17.8441 15.18 17.3508 15.1267 16.8708 15.02C16.4041 14.9267 15.9641 14.7933 15.5508 14.62C15.1508 14.4333 14.8041 14.2133 14.5108 13.96L15.0308 12.82C15.3508 13.0733 15.6974 13.2867 16.0708 13.46C16.4441 13.62 16.8241 13.74 17.2108 13.82C17.5974 13.9 17.9908 13.94 18.3908 13.94C19.1508 13.94 19.7241 13.8 20.1108 13.52C20.4974 13.24 20.6908 12.86 20.6908 12.38C20.6908 12.0067 20.5641 11.7133 20.3108 11.5C20.0574 11.2733 19.6574 11.1 19.1108 10.98L17.2908 10.58C16.4508 10.4067 15.8241 10.1067 15.4108 9.68C15.0108 9.25333 14.8108 8.7 14.8108 8.02C14.8108 7.42 14.9641 6.90667 15.2708 6.48C15.5908 6.04 16.0374 5.7 16.6108 5.46C17.1841 5.22 17.8508 5.1 18.6108 5.1C19.0641 5.1 19.4974 5.14667 19.9108 5.24C20.3241 5.33333 20.7108 5.47333 21.0708 5.66C21.4441 5.83333 21.7641 6.05333 22.0308 6.32L21.4908 7.46C21.2374 7.22 20.9508 7.02 20.6308 6.86C20.3108 6.68667 19.9774 6.56 19.6308 6.48C19.2974 6.38667 18.9574 6.34 18.6108 6.34C17.8641 6.34 17.2974 6.48667 16.9108 6.78C16.5241 7.07333 16.3308 7.46 16.3308 7.94C16.3308 8.31333 16.4508 8.62 16.6908 8.86C16.9308 9.1 17.3041 9.27333 17.8108 9.38L19.6308 9.76C20.4974 9.94667 21.1441 10.2467 21.5708 10.66C22.0108 11.06 22.2308 11.6067 22.2308 12.3C22.2308 12.8867 22.0708 13.4 21.7508 13.84C21.4308 14.2667 20.9774 14.6 20.3908 14.84C19.8174 15.0667 19.1374 15.18 18.3508 15.18ZM29.0797 15.18C28.053 15.18 27.1664 14.98 26.4197 14.58C25.6864 14.1667 25.113 13.5867 24.6997 12.84C24.2997 12.0933 24.0997 11.2 24.0997 10.16C24.0997 9.14667 24.2997 8.26667 24.6997 7.52C25.0997 6.76 25.6464 6.16667 26.3397 5.74C27.0464 5.31333 27.8597 5.1 28.7797 5.1C29.6597 5.1 30.413 5.29333 31.0397 5.68C31.6664 6.06667 32.1464 6.61333 32.4797 7.32C32.8264 8.02667 32.9997 8.87333 32.9997 9.86V10.48H25.3397V9.42H31.9197L31.5997 9.68C31.5997 8.61333 31.3597 7.78667 30.8797 7.2C30.413 6.6 29.7264 6.3 28.8197 6.3C28.1397 6.3 27.5597 6.46 27.0797 6.78C26.613 7.08667 26.2597 7.52 26.0197 8.08C25.7797 8.62667 25.6597 9.26667 25.6597 10V10.12C25.6597 10.9333 25.7864 11.62 26.0397 12.18C26.3064 12.74 26.6997 13.1667 27.2197 13.46C27.7397 13.74 28.3597 13.88 29.0797 13.88C29.653 13.88 30.2064 13.7933 30.7397 13.62C31.2864 13.4333 31.7997 13.1333 32.2797 12.72L32.8397 13.86C32.3997 14.26 31.8397 14.58 31.1597 14.82C30.4797 15.06 29.7864 15.18 29.0797 15.18ZM44.6009 15.18C43.6276 15.18 42.7876 14.9667 42.0809 14.54C41.3743 14.1133 40.8276 13.52 40.4409 12.76C40.0676 11.9867 39.8809 11.0933 39.8809 10.08C39.8809 9.05333 40.0676 8.16667 40.4409 7.42C40.8276 6.67333 41.3743 6.1 42.0809 5.7C42.7876 5.3 43.6276 5.1 44.6009 5.1C45.2009 5.1 45.7943 5.20667 46.3809 5.42C46.9676 5.63333 47.4543 5.93333 47.8409 6.32L47.2809 7.5C46.8943 7.12667 46.4676 6.85333 46.0009 6.68C45.5476 6.50667 45.1143 6.42 44.7009 6.42C43.6876 6.42 42.9076 6.74 42.3609 7.38C41.8143 8.00667 41.5409 8.91333 41.5409 10.1C41.5409 11.26 41.8143 12.18 42.3609 12.86C42.9076 13.5267 43.6876 13.86 44.7009 13.86C45.1143 13.86 45.5476 13.7733 46.0009 13.6C46.4676 13.4267 46.8943 13.1467 47.2809 12.76L47.8409 13.94C47.4543 14.3267 46.9609 14.6333 46.3609 14.86C45.7743 15.0733 45.1876 15.18 44.6009 15.18ZM53.5834 15.18C52.6368 15.18 51.8168 14.9733 51.1234 14.56C50.4301 14.1467 49.8901 13.5667 49.5034 12.82C49.1301 12.06 48.9434 11.1667 48.9434 10.14C48.9434 9.11333 49.1301 8.22667 49.5034 7.48C49.8901 6.72 50.4301 6.13333 51.1234 5.72C51.8168 5.30667 52.6368 5.1 53.5834 5.1C54.5301 5.1 55.3501 5.30667 56.0434 5.72C56.7368 6.13333 57.2701 6.72 57.6434 7.48C58.0301 8.22667 58.2234 9.11333 58.2234 10.14C58.2234 11.1667 58.0301 12.06 57.6434 12.82C57.2701 13.5667 56.7368 14.1467 56.0434 14.56C55.3501 14.9733 54.5301 15.18 53.5834 15.18ZM53.5834 13.88C54.5034 13.88 55.2301 13.56 55.7634 12.92C56.3101 12.2667 56.5834 11.3333 56.5834 10.12C56.5834 8.92 56.3101 8 55.7634 7.36C55.2301 6.72 54.5034 6.4 53.5834 6.4C52.6768 6.4 51.9501 6.72 51.4034 7.36C50.8568 8 50.5834 8.92 50.5834 10.12C50.5834 11.3333 50.8568 12.2667 51.4034 12.92C51.9501 13.56 52.6768 13.88 53.5834 13.88ZM64.3567 15.18C63.4901 15.18 62.7301 14.9733 62.0767 14.56C61.4367 14.1467 60.9367 13.5667 60.5767 12.82C60.2301 12.06 60.0567 11.1667 60.0567 10.14C60.0567 9.1 60.2301 8.20667 60.5767 7.46C60.9367 6.7 61.4367 6.12 62.0767 5.72C62.7301 5.30667 63.4901 5.1 64.3567 5.1C65.2367 5.1 65.9901 5.32 66.6167 5.76C67.2434 6.2 67.6634 6.79333 67.8767 7.54H67.6567V0.899999H69.2767V15H67.6967V12.68H67.8967C67.6834 13.44 67.2567 14.0467 66.6167 14.5C65.9901 14.9533 65.2367 15.18 64.3567 15.18ZM64.6967 13.88C65.6167 13.88 66.3434 13.56 66.8767 12.92C67.4234 12.2667 67.6967 11.34 67.6967 10.14C67.6967 8.92667 67.4234 8 66.8767 7.36C66.3434 6.72 65.6167 6.4 64.6967 6.4C63.7901 6.4 63.0634 6.72 62.5167 7.36C61.9701 8 61.6967 8.92667 61.6967 10.14C61.6967 11.34 61.9701 12.2667 62.5167 12.92C63.0634 13.56 63.7901 13.88 64.6967 13.88ZM76.6969 15.18C75.6702 15.18 74.7835 14.98 74.0369 14.58C73.3035 14.1667 72.7302 13.5867 72.3169 12.84C71.9169 12.0933 71.7169 11.2 71.7169 10.16C71.7169 9.14667 71.9169 8.26667 72.3169 7.52C72.7169 6.76 73.2635 6.16667 73.9569 5.74C74.6635 5.31333 75.4769 5.1 76.3969 5.1C77.2769 5.1 78.0302 5.29333 78.6569 5.68C79.2835 6.06667 79.7635 6.61333 80.0969 7.32C80.4435 8.02667 80.6169 8.87333 80.6169 9.86V10.48H72.9569V9.42H79.5369L79.2169 9.68C79.2169 8.61333 78.9769 7.78667 78.4969 7.2C78.0302 6.6 77.3435 6.3 76.4369 6.3C75.7569 6.3 75.1769 6.46 74.6969 6.78C74.2302 7.08667 73.8769 7.52 73.6369 8.08C73.3969 8.62667 73.2769 9.26667 73.2769 10V10.12C73.2769 10.9333 73.4035 11.62 73.6569 12.18C73.9235 12.74 74.3169 13.1667 74.8369 13.46C75.3569 13.74 75.9769 13.88 76.6969 13.88C77.2702 13.88 77.8235 13.7933 78.3569 13.62C78.9035 13.4333 79.4169 13.1333 79.8969 12.72L80.4569 13.86C80.0169 14.26 79.4569 14.58 78.7769 14.82C78.0969 15.06 77.4035 15.18 76.6969 15.18ZM92.8781 15.18C92.1448 15.18 91.4515 15.1133 90.7981 14.98C90.1581 14.8467 89.5648 14.66 89.0181 14.42C88.4848 14.1667 87.9981 13.86 87.5581 13.5L88.1381 12.18C88.5915 12.5133 89.0515 12.8 89.5181 13.04C89.9981 13.2667 90.5115 13.44 91.0581 13.56C91.6181 13.6667 92.2248 13.72 92.8781 13.72C94.0781 13.72 94.9648 13.5 95.5381 13.06C96.1248 12.6067 96.4181 12.0133 96.4181 11.28C96.4181 10.8933 96.3248 10.56 96.1381 10.28C95.9648 10 95.6715 9.76 95.2581 9.56C94.8581 9.36 94.3315 9.19333 93.6781 9.06L91.5981 8.64C90.3448 8.37333 89.4048 7.94 88.7781 7.34C88.1648 6.72667 87.8581 5.91333 87.8581 4.9C87.8581 4.06 88.0715 3.32667 88.4981 2.7C88.9381 2.07333 89.5448 1.58667 90.3181 1.24C91.1048 0.893333 91.9981 0.719999 92.9981 0.719999C93.6381 0.719999 94.2448 0.786666 94.8181 0.919999C95.3915 1.05333 95.9181 1.25333 96.3981 1.52C96.8915 1.77333 97.3248 2.08667 97.6981 2.46L97.1181 3.74C96.5181 3.19333 95.8848 2.8 95.2181 2.56C94.5515 2.30667 93.8048 2.18 92.9781 2.18C92.2715 2.18 91.6581 2.28667 91.1381 2.5C90.6315 2.71333 90.2315 3.02667 89.9381 3.44C89.6581 3.84 89.5181 4.30667 89.5181 4.84C89.5181 5.48 89.7115 5.98667 90.0981 6.36C90.4981 6.73333 91.1448 7.00667 92.0381 7.18L94.1181 7.62C95.4648 7.9 96.4581 8.32667 97.0981 8.9C97.7515 9.46 98.0781 10.2267 98.0781 11.2C98.0781 11.9733 97.8648 12.6667 97.4381 13.28C97.0248 13.88 96.4248 14.3467 95.6381 14.68C94.8648 15.0133 93.9448 15.18 92.8781 15.18ZM99.2238 15L105.444 0.899999H106.844L113.064 15H111.364L109.624 10.98L110.424 11.4H101.824L102.644 10.98L100.924 15H99.2238ZM106.124 2.82L102.904 10.4L102.424 10.02H109.824L109.384 10.4L106.164 2.82H106.124ZM118.46 15L112.3 0.899999H114.06L119.56 13.68H118.92L124.4 0.899999H126.12L119.94 15H118.46ZM127.849 15V0.899999H136.749V2.28H129.449V7.16H136.329V8.54H129.449V13.62H136.749V15H127.849ZM139.57 15V13.76L144.39 8.56C144.843 8.06667 145.21 7.60667 145.49 7.18C145.77 6.74 145.976 6.31333 146.11 5.9C146.243 5.48667 146.31 5.06667 146.31 4.64C146.31 3.84 146.063 3.23333 145.57 2.82C145.09 2.39333 144.383 2.18 143.45 2.18C142.73 2.18 142.056 2.31333 141.43 2.58C140.816 2.83333 140.23 3.23333 139.67 3.78L139.05 2.5C139.57 1.96667 140.23 1.54 141.03 1.22C141.843 0.886666 142.696 0.719999 143.59 0.719999C144.536 0.719999 145.336 0.866666 145.99 1.16C146.643 1.45333 147.136 1.88667 147.47 2.46C147.803 3.02 147.97 3.70667 147.97 4.52C147.97 4.94667 147.916 5.36667 147.81 5.78C147.716 6.18 147.563 6.58667 147.35 7C147.15 7.4 146.89 7.81333 146.57 8.24C146.263 8.66667 145.89 9.10667 145.45 9.56L141.21 14.06V13.6H148.55V15H139.57ZM155.762 15.18C154.695 15.18 153.788 14.9067 153.042 14.36C152.308 13.8 151.755 12.98 151.382 11.9C151.008 10.82 150.822 9.5 150.822 7.94C150.822 6.36667 151.008 5.04667 151.382 3.98C151.755 2.9 152.308 2.08667 153.042 1.54C153.788 0.993332 154.695 0.719999 155.762 0.719999C156.842 0.719999 157.748 0.993332 158.482 1.54C159.215 2.08667 159.768 2.89333 160.142 3.96C160.515 5.02667 160.702 6.34667 160.702 7.92C160.702 9.49333 160.515 10.82 160.142 11.9C159.768 12.98 159.215 13.8 158.482 14.36C157.748 14.9067 156.842 15.18 155.762 15.18ZM155.762 13.76C156.882 13.76 157.708 13.2867 158.242 12.34C158.788 11.3933 159.062 9.92 159.062 7.92C159.062 5.92 158.795 4.46 158.262 3.54C157.728 2.60667 156.895 2.14 155.762 2.14C154.655 2.14 153.828 2.60667 153.282 3.54C152.735 4.47333 152.462 5.93333 152.462 7.92C152.462 9.92 152.728 11.3933 153.262 12.34C153.808 13.2867 154.642 13.76 155.762 13.76ZM171.471 15.18C170.804 15.18 170.204 15.0533 169.671 14.8C169.151 14.5333 168.737 14.1733 168.431 13.72C168.124 13.2667 167.971 12.76 167.971 12.2C167.971 11.48 168.151 10.9133 168.511 10.5C168.884 10.0867 169.491 9.79333 170.331 9.62C171.184 9.44667 172.344 9.36 173.811 9.36H174.711V10.42H173.831C173.017 10.42 172.337 10.4467 171.791 10.5C171.244 10.5533 170.811 10.6467 170.491 10.78C170.171 10.9133 169.944 11.0867 169.811 11.3C169.677 11.5133 169.611 11.78 169.611 12.1C169.611 12.6467 169.797 13.0933 170.171 13.44C170.557 13.7867 171.077 13.96 171.731 13.96C172.264 13.96 172.731 13.8333 173.131 13.58C173.544 13.3267 173.864 12.98 174.091 12.54C174.331 12.1 174.451 11.5933 174.451 11.02V8.74C174.451 7.91333 174.284 7.32 173.951 6.96C173.617 6.58667 173.071 6.4 172.311 6.4C171.724 6.4 171.157 6.48667 170.611 6.66C170.064 6.82 169.504 7.08667 168.931 7.46L168.371 6.28C168.717 6.04 169.111 5.83333 169.551 5.66C169.991 5.47333 170.451 5.33333 170.931 5.24C171.411 5.14667 171.871 5.1 172.311 5.1C173.151 5.1 173.844 5.24 174.391 5.52C174.937 5.78667 175.344 6.2 175.611 6.76C175.877 7.30667 176.011 8.01333 176.011 8.88V15H174.491V12.74H174.671C174.564 13.2467 174.357 13.68 174.051 14.04C173.757 14.4 173.391 14.68 172.951 14.88C172.511 15.08 172.017 15.18 171.471 15.18ZM182.916 15.18C181.769 15.18 180.909 14.8733 180.336 14.26C179.763 13.6467 179.476 12.7733 179.476 11.64V6.54H177.576V5.28H179.476V2.3H181.096V5.28H184.176V6.54H181.096V11.48C181.096 12.24 181.256 12.82 181.576 13.22C181.896 13.6067 182.416 13.8 183.136 13.8C183.349 13.8 183.563 13.7733 183.776 13.72C183.989 13.6667 184.183 13.6133 184.356 13.56L184.636 14.8C184.463 14.8933 184.209 14.98 183.876 15.06C183.543 15.14 183.223 15.18 182.916 15.18ZM195.265 15.18C194.292 15.18 193.452 14.9667 192.745 14.54C192.038 14.1133 191.492 13.52 191.105 12.76C190.732 11.9867 190.545 11.0933 190.545 10.08C190.545 9.05333 190.732 8.16667 191.105 7.42C191.492 6.67333 192.038 6.1 192.745 5.7C193.452 5.3 194.292 5.1 195.265 5.1C195.865 5.1 196.458 5.20667 197.045 5.42C197.632 5.63333 198.118 5.93333 198.505 6.32L197.945 7.5C197.558 7.12667 197.132 6.85333 196.665 6.68C196.212 6.50667 195.778 6.42 195.365 6.42C194.352 6.42 193.572 6.74 193.025 7.38C192.478 8.00667 192.205 8.91333 192.205 10.1C192.205 11.26 192.478 12.18 193.025 12.86C193.572 13.5267 194.352 13.86 195.365 13.86C195.778 13.86 196.212 13.7733 196.665 13.6C197.132 13.4267 197.558 13.1467 197.945 12.76L198.505 13.94C198.118 14.3267 197.625 14.6333 197.025 14.86C196.438 15.0733 195.852 15.18 195.265 15.18ZM200.403 15V0.899999H202.023V7.44H201.763C202.043 6.66667 202.496 6.08667 203.123 5.7C203.763 5.3 204.496 5.1 205.323 5.1C206.096 5.1 206.736 5.24 207.243 5.52C207.763 5.8 208.149 6.22667 208.403 6.8C208.656 7.36 208.783 8.07333 208.783 8.94V15H207.163V9.04C207.163 8.44 207.083 7.94667 206.923 7.56C206.776 7.17333 206.536 6.88667 206.203 6.7C205.883 6.51333 205.463 6.42 204.943 6.42C204.356 6.42 203.843 6.54667 203.403 6.8C202.963 7.05333 202.623 7.40667 202.383 7.86C202.143 8.31333 202.023 8.84667 202.023 9.46V15H200.403ZM216.15 15.18C215.123 15.18 214.237 14.98 213.49 14.58C212.757 14.1667 212.183 13.5867 211.77 12.84C211.37 12.0933 211.17 11.2 211.17 10.16C211.17 9.14667 211.37 8.26667 211.77 7.52C212.17 6.76 212.717 6.16667 213.41 5.74C214.117 5.31333 214.93 5.1 215.85 5.1C216.73 5.1 217.483 5.29333 218.11 5.68C218.737 6.06667 219.217 6.61333 219.55 7.32C219.897 8.02667 220.07 8.87333 220.07 9.86V10.48H212.41V9.42H218.99L218.67 9.68C218.67 8.61333 218.43 7.78667 217.95 7.2C217.483 6.6 216.797 6.3 215.89 6.3C215.21 6.3 214.63 6.46 214.15 6.78C213.683 7.08667 213.33 7.52 213.09 8.08C212.85 8.62667 212.73 9.26667 212.73 10V10.12C212.73 10.9333 212.857 11.62 213.11 12.18C213.377 12.74 213.77 13.1667 214.29 13.46C214.81 13.74 215.43 13.88 216.15 13.88C216.723 13.88 217.277 13.7933 217.81 13.62C218.357 13.4333 218.87 13.1333 219.35 12.72L219.91 13.86C219.47 14.26 218.91 14.58 218.23 14.82C217.55 15.06 216.857 15.18 216.15 15.18ZM226.535 15.18C225.561 15.18 224.721 14.9667 224.015 14.54C223.308 14.1133 222.761 13.52 222.375 12.76C222.001 11.9867 221.815 11.0933 221.815 10.08C221.815 9.05333 222.001 8.16667 222.375 7.42C222.761 6.67333 223.308 6.1 224.015 5.7C224.721 5.3 225.561 5.1 226.535 5.1C227.135 5.1 227.728 5.20667 228.315 5.42C228.901 5.63333 229.388 5.93333 229.775 6.32L229.215 7.5C228.828 7.12667 228.401 6.85333 227.935 6.68C227.481 6.50667 227.048 6.42 226.635 6.42C225.621 6.42 224.841 6.74 224.295 7.38C223.748 8.00667 223.475 8.91333 223.475 10.1C223.475 11.26 223.748 12.18 224.295 12.86C224.841 13.5267 225.621 13.86 226.635 13.86C227.048 13.86 227.481 13.7733 227.935 13.6C228.401 13.4267 228.828 13.1467 229.215 12.76L229.775 13.94C229.388 14.3267 228.895 14.6333 228.295 14.86C227.708 15.0733 227.121 15.18 226.535 15.18ZM231.672 15V0.899999H233.292V9.6H233.332L237.832 5.28H239.892L234.552 10.4V9.52L240.312 15H238.252L233.332 10.44H233.292V15H231.672ZM245.458 15.18C244.512 15.18 243.692 14.9733 242.998 14.56C242.305 14.1467 241.765 13.5667 241.378 12.82C241.005 12.06 240.818 11.1667 240.818 10.14C240.818 9.11333 241.005 8.22667 241.378 7.48C241.765 6.72 242.305 6.13333 242.998 5.72C243.692 5.30667 244.512 5.1 245.458 5.1C246.405 5.1 247.225 5.30667 247.918 5.72C248.612 6.13333 249.145 6.72 249.518 7.48C249.905 8.22667 250.098 9.11333 250.098 10.14C250.098 11.1667 249.905 12.06 249.518 12.82C249.145 13.5667 248.612 14.1467 247.918 14.56C247.225 14.9733 246.405 15.18 245.458 15.18ZM245.458 13.88C246.378 13.88 247.105 13.56 247.638 12.92C248.185 12.2667 248.458 11.3333 248.458 10.12C248.458 8.92 248.185 8 247.638 7.36C247.105 6.72 246.378 6.4 245.458 6.4C244.552 6.4 243.825 6.72 243.278 7.36C242.732 8 242.458 8.92 242.458 10.12C242.458 11.3333 242.732 12.2667 243.278 12.92C243.825 13.56 244.552 13.88 245.458 13.88ZM255.972 15.18C255.185 15.18 254.532 15.04 254.012 14.76C253.505 14.4667 253.118 14.0333 252.852 13.46C252.598 12.8867 252.472 12.1733 252.472 11.32V5.28H254.092V11.3C254.092 11.8733 254.165 12.3533 254.312 12.74C254.472 13.1133 254.718 13.3933 255.052 13.58C255.385 13.7533 255.798 13.84 256.292 13.84C256.852 13.84 257.338 13.7133 257.752 13.46C258.165 13.2067 258.492 12.8533 258.732 12.4C258.972 11.9467 259.092 11.4133 259.092 10.8V5.28H260.712V15H259.132V12.76H259.392C259.125 13.5467 258.685 14.1467 258.072 14.56C257.472 14.9733 256.772 15.18 255.972 15.18ZM267.643 15.18C266.496 15.18 265.636 14.8733 265.063 14.26C264.489 13.6467 264.203 12.7733 264.203 11.64V6.54H262.303V5.28H264.203V2.3H265.823V5.28H268.903V6.54H265.823V11.48C265.823 12.24 265.983 12.82 266.303 13.22C266.623 13.6067 267.143 13.8 267.863 13.8C268.076 13.8 268.289 13.7733 268.503 13.72C268.716 13.6667 268.909 13.6133 269.083 13.56L269.363 14.8C269.189 14.8933 268.936 14.98 268.603 15.06C268.269 15.14 267.949 15.18 267.643 15.18ZM276.392 15V6.54H274.472V5.28H276.832L276.392 5.7V4.94C276.392 3.64667 276.712 2.66667 277.352 2C278.005 1.33333 279.005 0.959999 280.352 0.879999L281.132 0.84L281.272 2.08L280.352 2.14C279.805 2.18 279.358 2.3 279.012 2.5C278.665 2.7 278.412 2.98667 278.252 3.36C278.092 3.73333 278.012 4.19333 278.012 4.74V5.58L277.772 5.28H280.812V6.54H278.012V15H276.392ZM286.298 15.18C285.352 15.18 284.532 14.9733 283.838 14.56C283.145 14.1467 282.605 13.5667 282.218 12.82C281.845 12.06 281.658 11.1667 281.658 10.14C281.658 9.11333 281.845 8.22667 282.218 7.48C282.605 6.72 283.145 6.13333 283.838 5.72C284.532 5.30667 285.352 5.1 286.298 5.1C287.245 5.1 288.065 5.30667 288.758 5.72C289.452 6.13333 289.985 6.72 290.358 7.48C290.745 8.22667 290.938 9.11333 290.938 10.14C290.938 11.1667 290.745 12.06 290.358 12.82C289.985 13.5667 289.452 14.1467 288.758 14.56C288.065 14.9733 287.245 15.18 286.298 15.18ZM286.298 13.88C287.218 13.88 287.945 13.56 288.478 12.92C289.025 12.2667 289.298 11.3333 289.298 10.12C289.298 8.92 289.025 8 288.478 7.36C287.945 6.72 287.218 6.4 286.298 6.4C285.392 6.4 284.665 6.72 284.118 7.36C283.572 8 283.298 8.92 283.298 10.12C283.298 11.3333 283.572 12.2667 284.118 12.92C284.665 13.56 285.392 13.88 286.298 13.88ZM293.372 15V5.28H294.952V7.58H294.752C294.978 6.79333 295.372 6.2 295.932 5.8C296.492 5.38667 297.232 5.14667 298.152 5.08L298.732 5.02L298.852 6.42L297.832 6.54C296.925 6.62 296.225 6.91333 295.732 7.42C295.252 7.91333 295.012 8.59333 295.012 9.46V15H293.372ZM305.956 15V13.76L310.776 8.56C311.23 8.06667 311.596 7.60667 311.876 7.18C312.156 6.74 312.363 6.31333 312.496 5.9C312.63 5.48667 312.696 5.06667 312.696 4.64C312.696 3.84 312.45 3.23333 311.956 2.82C311.476 2.39333 310.77 2.18 309.836 2.18C309.116 2.18 308.443 2.31333 307.816 2.58C307.203 2.83333 306.616 3.23333 306.056 3.78L305.436 2.5C305.956 1.96667 306.616 1.54 307.416 1.22C308.23 0.886666 309.083 0.719999 309.976 0.719999C310.923 0.719999 311.723 0.866666 312.376 1.16C313.03 1.45333 313.523 1.88667 313.856 2.46C314.19 3.02 314.356 3.70667 314.356 4.52C314.356 4.94667 314.303 5.36667 314.196 5.78C314.103 6.18 313.95 6.58667 313.736 7C313.536 7.4 313.276 7.81333 312.956 8.24C312.65 8.66667 312.276 9.10667 311.836 9.56L307.596 14.06V13.6H314.936V15H305.956ZM322.148 15.18C321.082 15.18 320.175 14.9067 319.428 14.36C318.695 13.8 318.142 12.98 317.768 11.9C317.395 10.82 317.208 9.5 317.208 7.94C317.208 6.36667 317.395 5.04667 317.768 3.98C318.142 2.9 318.695 2.08667 319.428 1.54C320.175 0.993332 321.082 0.719999 322.148 0.719999C323.228 0.719999 324.135 0.993332 324.868 1.54C325.602 2.08667 326.155 2.89333 326.528 3.96C326.902 5.02667 327.088 6.34667 327.088 7.92C327.088 9.49333 326.902 10.82 326.528 11.9C326.155 12.98 325.602 13.8 324.868 14.36C324.135 14.9067 323.228 15.18 322.148 15.18ZM322.148 13.76C323.268 13.76 324.095 13.2867 324.628 12.34C325.175 11.3933 325.448 9.92 325.448 7.92C325.448 5.92 325.182 4.46 324.648 3.54C324.115 2.60667 323.282 2.14 322.148 2.14C321.042 2.14 320.215 2.60667 319.668 3.54C319.122 4.47333 318.848 5.93333 318.848 7.92C318.848 9.92 319.115 11.3933 319.648 12.34C320.195 13.2867 321.028 13.76 322.148 13.76ZM333.861 15.5L332.721 14.84L341.021 0.4L342.141 1.06L333.861 15.5ZM332.661 9.36C331.954 9.36 331.341 9.19333 330.821 8.86C330.314 8.51333 329.927 8.02 329.661 7.38C329.394 6.72667 329.261 5.94667 329.261 5.04C329.261 3.68 329.561 2.62667 330.161 1.88C330.761 1.12 331.594 0.739999 332.661 0.739999C333.367 0.739999 333.974 0.913332 334.481 1.26C334.987 1.59333 335.374 2.08 335.641 2.72C335.921 3.36 336.061 4.13333 336.061 5.04C336.061 5.94667 335.921 6.72 335.641 7.36C335.374 8 334.987 8.49333 334.481 8.84C333.974 9.18667 333.367 9.36 332.661 9.36ZM332.661 8.18C333.274 8.18 333.761 7.92 334.121 7.4C334.481 6.86667 334.661 6.08 334.661 5.04C334.661 4 334.481 3.22 334.121 2.7C333.761 2.18 333.274 1.92 332.661 1.92C332.034 1.92 331.541 2.18 331.181 2.7C330.834 3.22 330.661 4 330.661 5.04C330.661 6.08 330.834 6.86667 331.181 7.4C331.541 7.92 332.034 8.18 332.661 8.18ZM342.221 15.18C341.527 15.18 340.921 15.0133 340.401 14.68C339.894 14.3333 339.501 13.84 339.221 13.2C338.954 12.5467 338.821 11.7667 338.821 10.86C338.821 9.5 339.121 8.44667 339.721 7.7C340.334 6.94 341.167 6.56 342.221 6.56C342.927 6.56 343.534 6.73333 344.041 7.08C344.547 7.41333 344.934 7.9 345.201 8.54C345.481 9.18 345.621 9.95333 345.621 10.86C345.621 11.7667 345.487 12.5467 345.221 13.2C344.954 13.84 344.567 14.3333 344.061 14.68C343.554 15.0133 342.941 15.18 342.221 15.18ZM342.221 14C342.847 14 343.334 13.74 343.681 13.22C344.041 12.6867 344.221 11.9 344.221 10.86C344.221 9.82 344.041 9.04 343.681 8.52C343.334 8 342.847 7.74 342.221 7.74C341.607 7.74 341.121 8 340.761 8.52C340.414 9.04 340.241 9.82 340.241 10.86C340.241 11.9133 340.414 12.7 340.761 13.22C341.121 13.74 341.607 14 342.221 14ZM357.431 15.18C356.484 15.18 355.664 14.9733 354.971 14.56C354.278 14.1467 353.738 13.5667 353.351 12.82C352.978 12.06 352.791 11.1667 352.791 10.14C352.791 9.11333 352.978 8.22667 353.351 7.48C353.738 6.72 354.278 6.13333 354.971 5.72C355.664 5.30667 356.484 5.1 357.431 5.1C358.378 5.1 359.198 5.30667 359.891 5.72C360.584 6.13333 361.118 6.72 361.491 7.48C361.878 8.22667 362.071 9.11333 362.071 10.14C362.071 11.1667 361.878 12.06 361.491 12.82C361.118 13.5667 360.584 14.1467 359.891 14.56C359.198 14.9733 358.378 15.18 357.431 15.18ZM357.431 13.88C358.351 13.88 359.078 13.56 359.611 12.92C360.158 12.2667 360.431 11.3333 360.431 10.12C360.431 8.92 360.158 8 359.611 7.36C359.078 6.72 358.351 6.4 357.431 6.4C356.524 6.4 355.798 6.72 355.251 7.36C354.704 8 354.431 8.92 354.431 10.12C354.431 11.3333 354.704 12.2667 355.251 12.92C355.798 13.56 356.524 13.88 357.431 13.88ZM364.927 15V6.54H363.007V5.28H365.367L364.927 5.7V4.94C364.927 3.64667 365.247 2.66667 365.887 2C366.54 1.33333 367.54 0.959999 368.887 0.879999L369.667 0.84L369.807 2.08L368.887 2.14C368.34 2.18 367.893 2.3 367.547 2.5C367.2 2.7 366.947 2.98667 366.787 3.36C366.627 3.73333 366.547 4.19333 366.547 4.74V5.58L366.307 5.28H369.347V6.54H366.547V15H364.927ZM371.274 15V6.54H369.354V5.28H371.714L371.274 5.7V4.94C371.274 3.64667 371.594 2.66667 372.234 2C372.888 1.33333 373.888 0.959999 375.234 0.879999L376.014 0.84L376.154 2.08L375.234 2.14C374.688 2.18 374.241 2.3 373.894 2.5C373.548 2.7 373.294 2.98667 373.134 3.36C372.974 3.73333 372.894 4.19333 372.894 4.74V5.58L372.654 5.28H375.694V6.54H372.894V15H371.274ZM383.671 18.6L385.491 14.5V15.2L381.231 5.28H382.991L386.471 13.8H385.931L389.451 5.28H391.151L385.371 18.6H383.671ZM396.728 15.18C395.781 15.18 394.961 14.9733 394.268 14.56C393.575 14.1467 393.035 13.5667 392.648 12.82C392.275 12.06 392.088 11.1667 392.088 10.14C392.088 9.11333 392.275 8.22667 392.648 7.48C393.035 6.72 393.575 6.13333 394.268 5.72C394.961 5.30667 395.781 5.1 396.728 5.1C397.675 5.1 398.495 5.30667 399.188 5.72C399.881 6.13333 400.415 6.72 400.788 7.48C401.175 8.22667 401.368 9.11333 401.368 10.14C401.368 11.1667 401.175 12.06 400.788 12.82C400.415 13.5667 399.881 14.1467 399.188 14.56C398.495 14.9733 397.675 15.18 396.728 15.18ZM396.728 13.88C397.648 13.88 398.375 13.56 398.908 12.92C399.455 12.2667 399.728 11.3333 399.728 10.12C399.728 8.92 399.455 8 398.908 7.36C398.375 6.72 397.648 6.4 396.728 6.4C395.821 6.4 395.095 6.72 394.548 7.36C394.001 8 393.728 8.92 393.728 10.12C393.728 11.3333 394.001 12.2667 394.548 12.92C395.095 13.56 395.821 13.88 396.728 13.88ZM407.241 15.18C406.455 15.18 405.801 15.04 405.281 14.76C404.775 14.4667 404.388 14.0333 404.121 13.46C403.868 12.8867 403.741 12.1733 403.741 11.32V5.28H405.361V11.3C405.361 11.8733 405.435 12.3533 405.581 12.74C405.741 13.1133 405.988 13.3933 406.321 13.58C406.655 13.7533 407.068 13.84 407.561 13.84C408.121 13.84 408.608 13.7133 409.021 13.46C409.435 13.2067 409.761 12.8533 410.001 12.4C410.241 11.9467 410.361 11.4133 410.361 10.8V5.28H411.981V15H410.401V12.76H410.661C410.395 13.5467 409.955 14.1467 409.341 14.56C408.741 14.9733 408.041 15.18 407.241 15.18ZM415.012 15V5.28H416.592V7.58H416.392C416.619 6.79333 417.012 6.2 417.572 5.8C418.132 5.38667 418.872 5.14667 419.792 5.08L420.372 5.02L420.492 6.42L419.472 6.54C418.566 6.62 417.866 6.91333 417.372 7.42C416.892 7.91333 416.652 8.59333 416.652 9.46V15H415.012ZM427.837 15V6.54H425.917V5.28H428.277L427.837 5.7V4.94C427.837 3.64667 428.157 2.66667 428.797 2C429.45 1.33333 430.45 0.959999 431.797 0.879999L432.537 0.84L432.637 2.1L431.797 2.14C431.25 2.16667 430.804 2.28667 430.457 2.5C430.11 2.7 429.857 2.98667 429.697 3.36C429.537 3.73333 429.457 4.19333 429.457 4.74V5.5V5.28H435.457V15H433.837V6.54H429.457V15H427.837ZM433.657 2.86V1.04H435.637V2.86H433.657ZM438.489 15V5.28H440.069V7.58H439.869C440.095 6.79333 440.489 6.2 441.049 5.8C441.609 5.38667 442.349 5.14667 443.269 5.08L443.849 5.02L443.969 6.42L442.949 6.54C442.042 6.62 441.342 6.91333 440.849 7.42C440.369 7.91333 440.129 8.59333 440.129 9.46V15H438.489ZM448.839 15.18C448.332 15.18 447.839 15.1267 447.359 15.02C446.892 14.9267 446.452 14.7933 446.039 14.62C445.639 14.4333 445.292 14.2133 444.999 13.96L445.519 12.82C445.839 13.0733 446.186 13.2867 446.559 13.46C446.932 13.62 447.312 13.74 447.699 13.82C448.086 13.9 448.479 13.94 448.879 13.94C449.639 13.94 450.212 13.8 450.599 13.52C450.986 13.24 451.179 12.86 451.179 12.38C451.179 12.0067 451.052 11.7133 450.799 11.5C450.546 11.2733 450.146 11.1 449.599 10.98L447.779 10.58C446.939 10.4067 446.312 10.1067 445.899 9.68C445.499 9.25333 445.299 8.7 445.299 8.02C445.299 7.42 445.452 6.90667 445.759 6.48C446.079 6.04 446.526 5.7 447.099 5.46C447.672 5.22 448.339 5.1 449.099 5.1C449.552 5.1 449.986 5.14667 450.399 5.24C450.812 5.33333 451.199 5.47333 451.559 5.66C451.932 5.83333 452.252 6.05333 452.519 6.32L451.979 7.46C451.726 7.22 451.439 7.02 451.119 6.86C450.799 6.68667 450.466 6.56 450.119 6.48C449.786 6.38667 449.446 6.34 449.099 6.34C448.352 6.34 447.786 6.48667 447.399 6.78C447.012 7.07333 446.819 7.46 446.819 7.94C446.819 8.31333 446.939 8.62 447.179 8.86C447.419 9.1 447.792 9.27333 448.299 9.38L450.119 9.76C450.986 9.94667 451.632 10.2467 452.059 10.66C452.499 11.06 452.719 11.6067 452.719 12.3C452.719 12.8867 452.559 13.4 452.239 13.84C451.919 14.2667 451.466 14.6 450.879 14.84C450.306 15.0667 449.626 15.18 448.839 15.18ZM458.99 15.18C457.844 15.18 456.984 14.8733 456.41 14.26C455.837 13.6467 455.55 12.7733 455.55 11.64V6.54H453.65V5.28H455.55V2.3H457.17V5.28H460.25V6.54H457.17V11.48C457.17 12.24 457.33 12.82 457.65 13.22C457.97 13.6067 458.49 13.8 459.21 13.8C459.424 13.8 459.637 13.7733 459.85 13.72C460.064 13.6667 460.257 13.6133 460.43 13.56L460.71 14.8C460.537 14.8933 460.284 14.98 459.95 15.06C459.617 15.14 459.297 15.18 458.99 15.18ZM470.499 15.18C469.993 15.18 469.499 15.1267 469.019 15.02C468.553 14.9267 468.113 14.7933 467.699 14.62C467.299 14.4333 466.953 14.2133 466.659 13.96L467.179 12.82C467.499 13.0733 467.846 13.2867 468.219 13.46C468.593 13.62 468.973 13.74 469.359 13.82C469.746 13.9 470.139 13.94 470.539 13.94C471.299 13.94 471.873 13.8 472.259 13.52C472.646 13.24 472.839 12.86 472.839 12.38C472.839 12.0067 472.713 11.7133 472.459 11.5C472.206 11.2733 471.806 11.1 471.259 10.98L469.439 10.58C468.599 10.4067 467.973 10.1067 467.559 9.68C467.159 9.25333 466.959 8.7 466.959 8.02C466.959 7.42 467.113 6.90667 467.419 6.48C467.739 6.04 468.186 5.7 468.759 5.46C469.333 5.22 469.999 5.1 470.759 5.1C471.213 5.1 471.646 5.14667 472.059 5.24C472.473 5.33333 472.859 5.47333 473.219 5.66C473.593 5.83333 473.913 6.05333 474.179 6.32L473.639 7.46C473.386 7.22 473.099 7.02 472.779 6.86C472.459 6.68667 472.126 6.56 471.779 6.48C471.446 6.38667 471.106 6.34 470.759 6.34C470.013 6.34 469.446 6.48667 469.059 6.78C468.673 7.07333 468.479 7.46 468.479 7.94C468.479 8.31333 468.599 8.62 468.839 8.86C469.079 9.1 469.453 9.27333 469.959 9.38L471.779 9.76C472.646 9.94667 473.293 10.2467 473.719 10.66C474.159 11.06 474.379 11.6067 474.379 12.3C474.379 12.8867 474.219 13.4 473.899 13.84C473.579 14.2667 473.126 14.6 472.539 14.84C471.966 15.0667 471.286 15.18 470.499 15.18ZM481.228 15.18C480.201 15.18 479.315 14.98 478.568 14.58C477.835 14.1667 477.261 13.5867 476.848 12.84C476.448 12.0933 476.248 11.2 476.248 10.16C476.248 9.14667 476.448 8.26667 476.848 7.52C477.248 6.76 477.795 6.16667 478.488 5.74C479.195 5.31333 480.008 5.1 480.928 5.1C481.808 5.1 482.561 5.29333 483.188 5.68C483.815 6.06667 484.295 6.61333 484.628 7.32C484.975 8.02667 485.148 8.87333 485.148 9.86V10.48H477.488V9.42H484.068L483.748 9.68C483.748 8.61333 483.508 7.78667 483.028 7.2C482.561 6.6 481.875 6.3 480.968 6.3C480.288 6.3 479.708 6.46 479.228 6.78C478.761 7.08667 478.408 7.52 478.168 8.08C477.928 8.62667 477.808 9.26667 477.808 10V10.12C477.808 10.9333 477.935 11.62 478.188 12.18C478.455 12.74 478.848 13.1667 479.368 13.46C479.888 13.74 480.508 13.88 481.228 13.88C481.801 13.88 482.355 13.7933 482.888 13.62C483.435 13.4333 483.948 13.1333 484.428 12.72L484.988 13.86C484.548 14.26 483.988 14.58 483.308 14.82C482.628 15.06 481.935 15.18 481.228 15.18ZM490.773 15.18C490.266 15.18 489.773 15.1267 489.293 15.02C488.826 14.9267 488.386 14.7933 487.973 14.62C487.573 14.4333 487.226 14.2133 486.933 13.96L487.453 12.82C487.773 13.0733 488.119 13.2867 488.493 13.46C488.866 13.62 489.246 13.74 489.633 13.82C490.019 13.9 490.413 13.94 490.813 13.94C491.573 13.94 492.146 13.8 492.533 13.52C492.919 13.24 493.113 12.86 493.113 12.38C493.113 12.0067 492.986 11.7133 492.733 11.5C492.479 11.2733 492.079 11.1 491.533 10.98L489.713 10.58C488.873 10.4067 488.246 10.1067 487.833 9.68C487.433 9.25333 487.233 8.7 487.233 8.02C487.233 7.42 487.386 6.90667 487.693 6.48C488.013 6.04 488.459 5.7 489.033 5.46C489.606 5.22 490.273 5.1 491.033 5.1C491.486 5.1 491.919 5.14667 492.333 5.24C492.746 5.33333 493.133 5.47333 493.493 5.66C493.866 5.83333 494.186 6.05333 494.453 6.32L493.913 7.46C493.659 7.22 493.373 7.02 493.053 6.86C492.733 6.68667 492.399 6.56 492.053 6.48C491.719 6.38667 491.379 6.34 491.033 6.34C490.286 6.34 489.719 6.48667 489.333 6.78C488.946 7.07333 488.753 7.46 488.753 7.94C488.753 8.31333 488.873 8.62 489.113 8.86C489.353 9.1 489.726 9.27333 490.233 9.38L492.053 9.76C492.919 9.94667 493.566 10.2467 493.993 10.66C494.433 11.06 494.653 11.6067 494.653 12.3C494.653 12.8867 494.493 13.4 494.173 13.84C493.853 14.2667 493.399 14.6 492.813 14.84C492.239 15.0667 491.559 15.18 490.773 15.18ZM500.402 15.18C499.895 15.18 499.402 15.1267 498.922 15.02C498.455 14.9267 498.015 14.7933 497.602 14.62C497.202 14.4333 496.855 14.2133 496.562 13.96L497.082 12.82C497.402 13.0733 497.748 13.2867 498.122 13.46C498.495 13.62 498.875 13.74 499.262 13.82C499.648 13.9 500.042 13.94 500.442 13.94C501.202 13.94 501.775 13.8 502.162 13.52C502.548 13.24 502.742 12.86 502.742 12.38C502.742 12.0067 502.615 11.7133 502.362 11.5C502.108 11.2733 501.708 11.1 501.162 10.98L499.342 10.58C498.502 10.4067 497.875 10.1067 497.462 9.68C497.062 9.25333 496.862 8.7 496.862 8.02C496.862 7.42 497.015 6.90667 497.322 6.48C497.642 6.04 498.088 5.7 498.662 5.46C499.235 5.22 499.902 5.1 500.662 5.1C501.115 5.1 501.548 5.14667 501.962 5.24C502.375 5.33333 502.762 5.47333 503.122 5.66C503.495 5.83333 503.815 6.05333 504.082 6.32L503.542 7.46C503.288 7.22 503.002 7.02 502.682 6.86C502.362 6.68667 502.028 6.56 501.682 6.48C501.348 6.38667 501.008 6.34 500.662 6.34C499.915 6.34 499.348 6.48667 498.962 6.78C498.575 7.07333 498.382 7.46 498.382 7.94C498.382 8.31333 498.502 8.62 498.742 8.86C498.982 9.1 499.355 9.27333 499.862 9.38L501.682 9.76C502.548 9.94667 503.195 10.2467 503.622 10.66C504.062 11.06 504.282 11.6067 504.282 12.3C504.282 12.8867 504.122 13.4 503.802 13.84C503.482 14.2667 503.028 14.6 502.442 14.84C501.868 15.0667 501.188 15.18 500.402 15.18ZM506.55 2.86V1.04H508.55V2.86H506.55ZM506.75 15V5.28H508.37V15H506.75ZM515.439 15.18C514.492 15.18 513.672 14.9733 512.979 14.56C512.286 14.1467 511.746 13.5667 511.359 12.82C510.986 12.06 510.799 11.1667 510.799 10.14C510.799 9.11333 510.986 8.22667 511.359 7.48C511.746 6.72 512.286 6.13333 512.979 5.72C513.672 5.30667 514.492 5.1 515.439 5.1C516.386 5.1 517.206 5.30667 517.899 5.72C518.592 6.13333 519.126 6.72 519.499 7.48C519.886 8.22667 520.079 9.11333 520.079 10.14C520.079 11.1667 519.886 12.06 519.499 12.82C519.126 13.5667 518.592 14.1467 517.899 14.56C517.206 14.9733 516.386 15.18 515.439 15.18ZM515.439 13.88C516.359 13.88 517.086 13.56 517.619 12.92C518.166 12.2667 518.439 11.3333 518.439 10.12C518.439 8.92 518.166 8 517.619 7.36C517.086 6.72 516.359 6.4 515.439 6.4C514.532 6.4 513.806 6.72 513.259 7.36C512.712 8 512.439 8.92 512.439 10.12C512.439 11.3333 512.712 12.2667 513.259 12.92C513.806 13.56 514.532 13.88 515.439 13.88ZM522.512 15V5.28H524.092V7.44H523.872C524.152 6.66667 524.606 6.08667 525.232 5.7C525.872 5.3 526.606 5.1 527.432 5.1C528.206 5.1 528.846 5.24 529.352 5.52C529.872 5.78667 530.259 6.20667 530.512 6.78C530.766 7.35333 530.892 8.07333 530.892 8.94V15H529.272V9.04C529.272 8.44 529.192 7.94667 529.032 7.56C528.886 7.17333 528.646 6.88667 528.312 6.7C527.992 6.51333 527.572 6.42 527.052 6.42C526.466 6.42 525.952 6.54667 525.512 6.8C525.072 7.05333 524.732 7.40667 524.492 7.86C524.252 8.31333 524.132 8.84667 524.132 9.46V15H522.512Z" fill="#FCFCFC"/>
</svg>
