<svg width="480" height="19" viewBox="0 0 480 19" fill="none" xmlns="http://www.w3.org/2000/svg">
<path d="M5.8 15.18C3.96 15.18 2.55333 14.6933 1.58 13.72C0.62 12.7333 0.14 11.3 0.14 9.42V0.899999H1.78V9.34C1.78 10.8067 2.12 11.9067 2.8 12.64C3.48 13.36 4.48 13.72 5.8 13.72C7.12 13.72 8.11333 13.36 8.78 12.64C9.44667 11.9067 9.78 10.8067 9.78 9.34V0.899999H11.42V9.42C11.42 11.3 10.94 12.7333 9.98 13.72C9.03333 14.6933 7.64 15.18 5.8 15.18ZM17.8508 15.18C17.3441 15.18 16.8508 15.1267 16.3708 15.02C15.9041 14.9267 15.4641 14.7933 15.0508 14.62C14.6508 14.4333 14.3041 14.2133 14.0108 13.96L14.5308 12.82C14.8508 13.0733 15.1974 13.2867 15.5708 13.46C15.9441 13.62 16.3241 13.74 16.7108 13.82C17.0974 13.9 17.4908 13.94 17.8908 13.94C18.6508 13.94 19.2241 13.8 19.6108 13.52C19.9974 13.24 20.1908 12.86 20.1908 12.38C20.1908 12.0067 20.0641 11.7133 19.8108 11.5C19.5574 11.2733 19.1574 11.1 18.6108 10.98L16.7908 10.58C15.9508 10.4067 15.3241 10.1067 14.9108 9.68C14.5108 9.25333 14.3108 8.7 14.3108 8.02C14.3108 7.42 14.4641 6.90667 14.7708 6.48C15.0908 6.04 15.5374 5.7 16.1108 5.46C16.6841 5.22 17.3508 5.1 18.1108 5.1C18.5641 5.1 18.9974 5.14667 19.4108 5.24C19.8241 5.33333 20.2108 5.47333 20.5708 5.66C20.9441 5.83333 21.2641 6.05333 21.5308 6.32L20.9908 7.46C20.7374 7.22 20.4508 7.02 20.1308 6.86C19.8108 6.68667 19.4774 6.56 19.1308 6.48C18.7974 6.38667 18.4574 6.34 18.1108 6.34C17.3641 6.34 16.7974 6.48667 16.4108 6.78C16.0241 7.07333 15.8308 7.46 15.8308 7.94C15.8308 8.31333 15.9508 8.62 16.1908 8.86C16.4308 9.1 16.8041 9.27333 17.3108 9.38L19.1308 9.76C19.9974 9.94667 20.6441 10.2467 21.0708 10.66C21.5108 11.06 21.7308 11.6067 21.7308 12.3C21.7308 12.8867 21.5708 13.4 21.2508 13.84C20.9308 14.2667 20.4774 14.6 19.8908 14.84C19.3174 15.0667 18.6374 15.18 17.8508 15.18ZM28.5797 15.18C27.553 15.18 26.6664 14.98 25.9197 14.58C25.1864 14.1667 24.613 13.5867 24.1997 12.84C23.7997 12.0933 23.5997 11.2 23.5997 10.16C23.5997 9.14667 23.7997 8.26667 24.1997 7.52C24.5997 6.76 25.1464 6.16667 25.8397 5.74C26.5464 5.31333 27.3597 5.1 28.2797 5.1C29.1597 5.1 29.913 5.29333 30.5397 5.68C31.1664 6.06667 31.6464 6.61333 31.9797 7.32C32.3264 8.02667 32.4997 8.87333 32.4997 9.86V10.48H24.8397V9.42H31.4197L31.0997 9.68C31.0997 8.61333 30.8597 7.78667 30.3797 7.2C29.913 6.6 29.2264 6.3 28.3197 6.3C27.6397 6.3 27.0597 6.46 26.5797 6.78C26.113 7.08667 25.7597 7.52 25.5197 8.08C25.2797 8.62667 25.1597 9.26667 25.1597 10V10.12C25.1597 10.9333 25.2864 11.62 25.5397 12.18C25.8064 12.74 26.1997 13.1667 26.7197 13.46C27.2397 13.74 27.8597 13.88 28.5797 13.88C29.153 13.88 29.7064 13.7933 30.2397 13.62C30.7864 13.4333 31.2997 13.1333 31.7797 12.72L32.3397 13.86C31.8997 14.26 31.3397 14.58 30.6597 14.82C29.9797 15.06 29.2864 15.18 28.5797 15.18ZM46.3009 15.18C44.9143 15.18 43.7276 14.8867 42.7409 14.3C41.7543 13.7133 40.9943 12.88 40.4609 11.8C39.9409 10.72 39.6809 9.43333 39.6809 7.94C39.6809 6.44667 39.9409 5.16667 40.4609 4.1C40.9943 3.02 41.7543 2.18667 42.7409 1.6C43.7276 1.01333 44.9143 0.719999 46.3009 0.719999C47.2743 0.719999 48.1743 0.873332 49.0009 1.18C49.8276 1.48667 50.5209 1.93333 51.0809 2.52L50.4409 3.86C49.8276 3.28667 49.1876 2.87333 48.5209 2.62C47.8676 2.35333 47.1409 2.22 46.3409 2.22C44.7543 2.22 43.5409 2.72 42.7009 3.72C41.8609 4.72 41.4409 6.12667 41.4409 7.94C41.4409 9.75333 41.8609 11.1667 42.7009 12.18C43.5409 13.18 44.7543 13.68 46.3409 13.68C47.1409 13.68 47.8676 13.5533 48.5209 13.3C49.1876 13.0333 49.8276 12.6133 50.4409 12.04L51.0809 13.38C50.5209 13.9533 49.8276 14.4 49.0009 14.72C48.1743 15.0267 47.2743 15.18 46.3009 15.18ZM56.7748 15.18C55.8282 15.18 55.0082 14.9733 54.3148 14.56C53.6215 14.1467 53.0815 13.5667 52.6948 12.82C52.3215 12.06 52.1348 11.1667 52.1348 10.14C52.1348 9.11333 52.3215 8.22667 52.6948 7.48C53.0815 6.72 53.6215 6.13333 54.3148 5.72C55.0082 5.30667 55.8282 5.1 56.7748 5.1C57.7215 5.1 58.5415 5.30667 59.2348 5.72C59.9282 6.13333 60.4615 6.72 60.8348 7.48C61.2215 8.22667 61.4148 9.11333 61.4148 10.14C61.4148 11.1667 61.2215 12.06 60.8348 12.82C60.4615 13.5667 59.9282 14.1467 59.2348 14.56C58.5415 14.9733 57.7215 15.18 56.7748 15.18ZM56.7748 13.88C57.6948 13.88 58.4215 13.56 58.9548 12.92C59.5015 12.2667 59.7748 11.3333 59.7748 10.12C59.7748 8.92 59.5015 8 58.9548 7.36C58.4215 6.72 57.6948 6.4 56.7748 6.4C55.8682 6.4 55.1415 6.72 54.5948 7.36C54.0482 8 53.7748 8.92 53.7748 10.12C53.7748 11.3333 54.0482 12.2667 54.5948 12.92C55.1415 13.56 55.8682 13.88 56.7748 13.88ZM67.5481 15.18C66.6815 15.18 65.9215 14.9733 65.2681 14.56C64.6281 14.1467 64.1281 13.5667 63.7681 12.82C63.4215 12.06 63.2481 11.1667 63.2481 10.14C63.2481 9.1 63.4215 8.20667 63.7681 7.46C64.1281 6.7 64.6281 6.12 65.2681 5.72C65.9215 5.30667 66.6815 5.1 67.5481 5.1C68.4281 5.1 69.1815 5.32 69.8081 5.76C70.4348 6.2 70.8548 6.79333 71.0681 7.54H70.8481V0.899999H72.4681V15H70.8881V12.68H71.0881C70.8748 13.44 70.4481 14.0467 69.8081 14.5C69.1815 14.9533 68.4281 15.18 67.5481 15.18ZM67.8881 13.88C68.8081 13.88 69.5348 13.56 70.0681 12.92C70.6148 12.2667 70.8881 11.34 70.8881 10.14C70.8881 8.92667 70.6148 8 70.0681 7.36C69.5348 6.72 68.8081 6.4 67.8881 6.4C66.9815 6.4 66.2548 6.72 65.7081 7.36C65.1615 8 64.8881 8.92667 64.8881 10.14C64.8881 11.34 65.1615 12.2667 65.7081 12.92C66.2548 13.56 66.9815 13.88 67.8881 13.88ZM79.8883 15.18C78.8616 15.18 77.9749 14.98 77.2283 14.58C76.4949 14.1667 75.9216 13.5867 75.5083 12.84C75.1083 12.0933 74.9083 11.2 74.9083 10.16C74.9083 9.14667 75.1083 8.26667 75.5083 7.52C75.9083 6.76 76.4549 6.16667 77.1483 5.74C77.8549 5.31333 78.6683 5.1 79.5883 5.1C80.4683 5.1 81.2216 5.29333 81.8483 5.68C82.4749 6.06667 82.9549 6.61333 83.2883 7.32C83.6349 8.02667 83.8083 8.87333 83.8083 9.86V10.48H76.1483V9.42H82.7283L82.4083 9.68C82.4083 8.61333 82.1683 7.78667 81.6883 7.2C81.2216 6.6 80.5349 6.3 79.6283 6.3C78.9483 6.3 78.3683 6.46 77.8883 6.78C77.4216 7.08667 77.0683 7.52 76.8283 8.08C76.5883 8.62667 76.4683 9.26667 76.4683 10V10.12C76.4683 10.9333 76.5949 11.62 76.8483 12.18C77.1149 12.74 77.5083 13.1667 78.0283 13.46C78.5483 13.74 79.1683 13.88 79.8883 13.88C80.4616 13.88 81.0149 13.7933 81.5483 13.62C82.0949 13.4333 82.6083 13.1333 83.0883 12.72L83.6483 13.86C83.2083 14.26 82.6483 14.58 81.9683 14.82C81.2883 15.06 80.5949 15.18 79.8883 15.18ZM90.1495 15L96.3695 0.899999H97.7695L103.99 15H102.29L100.55 10.98L101.35 11.4H92.7495L93.5695 10.98L91.8495 15H90.1495ZM97.0495 2.82L93.8295 10.4L93.3495 10.02H100.75L100.31 10.4L97.0895 2.82H97.0495ZM106.08 15V0.899999H111.66C113.167 0.899999 114.327 1.25333 115.14 1.96C115.953 2.66667 116.36 3.67333 116.36 4.98C116.36 5.80667 116.173 6.52667 115.8 7.14C115.44 7.74 114.907 8.2 114.2 8.52C113.493 8.82667 112.647 8.98 111.66 8.98L111.86 8.72H112.26C112.78 8.72 113.233 8.85333 113.62 9.12C114.007 9.38667 114.36 9.81333 114.68 10.4L117.16 15H115.36L112.92 10.48C112.72 10.1067 112.493 9.81333 112.24 9.6C112 9.38667 111.72 9.24 111.4 9.16C111.093 9.08 110.72 9.04 110.28 9.04H107.72V15H106.08ZM107.72 7.74H111.42C112.513 7.74 113.34 7.51333 113.9 7.06C114.46 6.59333 114.74 5.9 114.74 4.98C114.74 4.08667 114.46 3.41333 113.9 2.96C113.34 2.49333 112.513 2.26 111.42 2.26H107.72V7.74ZM125.461 15.18C124.074 15.18 122.888 14.8867 121.901 14.3C120.914 13.7133 120.154 12.88 119.621 11.8C119.101 10.72 118.841 9.43333 118.841 7.94C118.841 6.44667 119.101 5.16667 119.621 4.1C120.154 3.02 120.914 2.18667 121.901 1.6C122.888 1.01333 124.074 0.719999 125.461 0.719999C126.434 0.719999 127.334 0.873332 128.161 1.18C128.988 1.48667 129.681 1.93333 130.241 2.52L129.601 3.86C128.988 3.28667 128.348 2.87333 127.681 2.62C127.028 2.35333 126.301 2.22 125.501 2.22C123.914 2.22 122.701 2.72 121.861 3.72C121.021 4.72 120.601 6.12667 120.601 7.94C120.601 9.75333 121.021 11.1667 121.861 12.18C122.701 13.18 123.914 13.68 125.501 13.68C126.301 13.68 127.028 13.5533 127.681 13.3C128.348 13.0333 128.988 12.6133 129.601 12.04L130.241 13.38C129.681 13.9533 128.988 14.4 128.161 14.72C127.334 15.0267 126.434 15.18 125.461 15.18ZM131.107 15L137.327 0.899999H138.727L144.947 15H143.247L141.507 10.98L142.307 11.4H133.707L134.527 10.98L132.807 15H131.107ZM138.007 2.82L134.787 10.4L134.307 10.02H141.707L141.267 10.4L138.047 2.82H138.007ZM151.48 15.18C150.746 15.18 150.053 15.1133 149.4 14.98C148.76 14.8467 148.166 14.66 147.62 14.42C147.086 14.1667 146.6 13.86 146.16 13.5L146.74 12.18C147.193 12.5133 147.653 12.8 148.12 13.04C148.6 13.2667 149.113 13.44 149.66 13.56C150.22 13.6667 150.826 13.72 151.48 13.72C152.68 13.72 153.566 13.5 154.14 13.06C154.726 12.6067 155.02 12.0133 155.02 11.28C155.02 10.8933 154.926 10.56 154.74 10.28C154.566 10 154.273 9.76 153.86 9.56C153.46 9.36 152.933 9.19333 152.28 9.06L150.2 8.64C148.946 8.37333 148.006 7.94 147.38 7.34C146.766 6.72667 146.46 5.91333 146.46 4.9C146.46 4.06 146.673 3.32667 147.1 2.7C147.54 2.07333 148.146 1.58667 148.92 1.24C149.706 0.893333 150.6 0.719999 151.6 0.719999C152.24 0.719999 152.846 0.786666 153.42 0.919999C153.993 1.05333 154.52 1.25333 155 1.52C155.493 1.77333 155.926 2.08667 156.3 2.46L155.72 3.74C155.12 3.19333 154.486 2.8 153.82 2.56C153.153 2.30667 152.406 2.18 151.58 2.18C150.873 2.18 150.26 2.28667 149.74 2.5C149.233 2.71333 148.833 3.02667 148.54 3.44C148.26 3.84 148.12 4.30667 148.12 4.84C148.12 5.48 148.313 5.98667 148.7 6.36C149.1 6.73333 149.746 7.00667 150.64 7.18L152.72 7.62C154.066 7.9 155.06 8.32667 155.7 8.9C156.353 9.46 156.68 10.2267 156.68 11.2C156.68 11.9733 156.466 12.6667 156.04 13.28C155.626 13.88 155.026 14.3467 154.24 14.68C153.466 15.0133 152.546 15.18 151.48 15.18ZM162.391 15V2.32H157.271V0.899999H169.171V2.32H164.051V15H162.391ZM175.523 15.18C174.923 15.18 174.336 15.1133 173.763 14.98C173.189 14.8467 172.649 14.6533 172.143 14.4C171.649 14.1467 171.209 13.8467 170.823 13.5L171.443 12.2C172.083 12.72 172.729 13.1067 173.383 13.36C174.049 13.6 174.756 13.72 175.503 13.72C176.489 13.72 177.256 13.4467 177.803 12.9C178.363 12.3533 178.643 11.6333 178.643 10.74C178.643 9.82 178.376 9.06667 177.843 8.48C177.309 7.89333 176.576 7.6 175.643 7.6C174.963 7.6 174.363 7.74 173.843 8.02C173.336 8.28667 172.876 8.70667 172.463 9.28H171.263V0.899999H179.443V2.3H172.883V7.92H172.443C172.789 7.36 173.269 6.93333 173.883 6.64C174.496 6.33333 175.183 6.18 175.943 6.18C176.836 6.18 177.603 6.36667 178.243 6.74C178.896 7.11333 179.396 7.64 179.743 8.32C180.103 8.98667 180.283 9.76667 180.283 10.66C180.283 11.54 180.089 12.32 179.703 13C179.316 13.68 178.769 14.2133 178.063 14.6C177.356 14.9867 176.509 15.18 175.523 15.18ZM187.215 15.18C186.148 15.18 185.242 14.9067 184.495 14.36C183.762 13.8 183.208 12.98 182.835 11.9C182.462 10.82 182.275 9.5 182.275 7.94C182.275 6.36667 182.462 5.04667 182.835 3.98C183.208 2.9 183.762 2.08667 184.495 1.54C185.242 0.993332 186.148 0.719999 187.215 0.719999C188.295 0.719999 189.202 0.993332 189.935 1.54C190.668 2.08667 191.222 2.89333 191.595 3.96C191.968 5.02667 192.155 6.34667 192.155 7.92C192.155 9.49333 191.968 10.82 191.595 11.9C191.222 12.98 190.668 13.8 189.935 14.36C189.202 14.9067 188.295 15.18 187.215 15.18ZM187.215 13.76C188.335 13.76 189.162 13.2867 189.695 12.34C190.242 11.3933 190.515 9.92 190.515 7.92C190.515 5.92 190.248 4.46 189.715 3.54C189.182 2.60667 188.348 2.14 187.215 2.14C186.108 2.14 185.282 2.60667 184.735 3.54C184.188 4.47333 183.915 5.93333 183.915 7.92C183.915 9.92 184.182 11.3933 184.715 12.34C185.262 13.2867 186.095 13.76 187.215 13.76ZM203.764 15.18C202.617 15.18 201.757 14.8733 201.184 14.26C200.61 13.6467 200.324 12.7733 200.324 11.64V6.54H198.424V5.28H200.324V2.3H201.944V5.28H205.024V6.54H201.944V11.48C201.944 12.24 202.104 12.82 202.424 13.22C202.744 13.6067 203.264 13.8 203.984 13.8C204.197 13.8 204.41 13.7733 204.624 13.72C204.837 13.6667 205.03 13.6133 205.204 13.56L205.484 14.8C205.31 14.8933 205.057 14.98 204.724 15.06C204.39 15.14 204.07 15.18 203.764 15.18ZM210.798 15.18C209.852 15.18 209.032 14.9733 208.338 14.56C207.645 14.1467 207.105 13.5667 206.718 12.82C206.345 12.06 206.158 11.1667 206.158 10.14C206.158 9.11333 206.345 8.22667 206.718 7.48C207.105 6.72 207.645 6.13333 208.338 5.72C209.032 5.30667 209.852 5.1 210.798 5.1C211.745 5.1 212.565 5.30667 213.258 5.72C213.952 6.13333 214.485 6.72 214.858 7.48C215.245 8.22667 215.438 9.11333 215.438 10.14C215.438 11.1667 215.245 12.06 214.858 12.82C214.485 13.5667 213.952 14.1467 213.258 14.56C212.565 14.9733 211.745 15.18 210.798 15.18ZM210.798 13.88C211.718 13.88 212.445 13.56 212.978 12.92C213.525 12.2667 213.798 11.3333 213.798 10.12C213.798 8.92 213.525 8 212.978 7.36C212.445 6.72 211.718 6.4 210.798 6.4C209.892 6.4 209.165 6.72 208.618 7.36C208.072 8 207.798 8.92 207.798 10.12C207.798 11.3333 208.072 12.2667 208.618 12.92C209.165 13.56 209.892 13.88 210.798 13.88ZM227.308 18.78C226.468 18.78 225.675 18.6667 224.928 18.44C224.195 18.2267 223.542 17.9 222.968 17.46L223.508 16.28C223.908 16.56 224.302 16.7867 224.688 16.96C225.088 17.1467 225.495 17.28 225.908 17.36C226.335 17.44 226.775 17.48 227.228 17.48C228.175 17.48 228.888 17.2267 229.368 16.72C229.862 16.2133 230.108 15.48 230.108 14.52V12.26H230.308C230.108 13.0333 229.682 13.6467 229.028 14.1C228.388 14.5533 227.635 14.78 226.768 14.78C225.875 14.78 225.102 14.58 224.448 14.18C223.795 13.7667 223.288 13.1933 222.928 12.46C222.582 11.7267 222.408 10.88 222.408 9.92C222.408 8.96 222.582 8.12 222.928 7.4C223.288 6.66667 223.795 6.1 224.448 5.7C225.102 5.3 225.875 5.1 226.768 5.1C227.648 5.1 228.408 5.32667 229.048 5.78C229.688 6.22 230.102 6.82 230.288 7.58H230.108V5.28H231.688V14.3C231.688 15.2867 231.522 16.1133 231.188 16.78C230.868 17.4467 230.382 17.9467 229.728 18.28C229.075 18.6133 228.268 18.78 227.308 18.78ZM227.068 13.46C228.002 13.46 228.742 13.14 229.288 12.5C229.835 11.86 230.108 11 230.108 9.92C230.108 8.84 229.835 7.98667 229.288 7.36C228.742 6.72 228.002 6.4 227.068 6.4C226.148 6.4 225.415 6.72 224.868 7.36C224.322 7.98667 224.048 8.84 224.048 9.92C224.048 11 224.322 11.86 224.868 12.5C225.415 13.14 226.148 13.46 227.068 13.46ZM239.107 15.18C238.08 15.18 237.194 14.98 236.447 14.58C235.714 14.1667 235.14 13.5867 234.727 12.84C234.327 12.0933 234.127 11.2 234.127 10.16C234.127 9.14667 234.327 8.26667 234.727 7.52C235.127 6.76 235.674 6.16667 236.367 5.74C237.074 5.31333 237.887 5.1 238.807 5.1C239.687 5.1 240.44 5.29333 241.067 5.68C241.694 6.06667 242.174 6.61333 242.507 7.32C242.854 8.02667 243.027 8.87333 243.027 9.86V10.48H235.367V9.42H241.947L241.627 9.68C241.627 8.61333 241.387 7.78667 240.907 7.2C240.44 6.6 239.754 6.3 238.847 6.3C238.167 6.3 237.587 6.46 237.107 6.78C236.64 7.08667 236.287 7.52 236.047 8.08C235.807 8.62667 235.687 9.26667 235.687 10V10.12C235.687 10.9333 235.814 11.62 236.067 12.18C236.334 12.74 236.727 13.1667 237.247 13.46C237.767 13.74 238.387 13.88 239.107 13.88C239.68 13.88 240.234 13.7933 240.767 13.62C241.314 13.4333 241.827 13.1333 242.307 12.72L242.867 13.86C242.427 14.26 241.867 14.58 241.187 14.82C240.507 15.06 239.814 15.18 239.107 15.18ZM249.272 15.18C248.125 15.18 247.265 14.8733 246.692 14.26C246.118 13.6467 245.832 12.7733 245.832 11.64V6.54H243.932V5.28H245.832V2.3H247.452V5.28H250.532V6.54H247.452V11.48C247.452 12.24 247.612 12.82 247.932 13.22C248.252 13.6067 248.772 13.8 249.492 13.8C249.705 13.8 249.918 13.7733 250.132 13.72C250.345 13.6667 250.538 13.6133 250.712 13.56L250.992 14.8C250.818 14.8933 250.565 14.98 250.232 15.06C249.898 15.14 249.578 15.18 249.272 15.18ZM262.28 15.18C261.68 15.18 261.094 15.1133 260.52 14.98C259.947 14.8467 259.407 14.6533 258.9 14.4C258.407 14.1467 257.967 13.8467 257.58 13.5L258.2 12.2C258.84 12.72 259.487 13.1067 260.14 13.36C260.807 13.6 261.514 13.72 262.26 13.72C263.247 13.72 264.014 13.4467 264.56 12.9C265.12 12.3533 265.4 11.6333 265.4 10.74C265.4 9.82 265.134 9.06667 264.6 8.48C264.067 7.89333 263.334 7.6 262.4 7.6C261.72 7.6 261.12 7.74 260.6 8.02C260.094 8.28667 259.634 8.70667 259.22 9.28H258.02V0.899999H266.2V2.3H259.64V7.92H259.2C259.547 7.36 260.027 6.93333 260.64 6.64C261.254 6.33333 261.94 6.18 262.7 6.18C263.594 6.18 264.36 6.36667 265 6.74C265.654 7.11333 266.154 7.64 266.5 8.32C266.86 8.98667 267.04 9.76667 267.04 10.66C267.04 11.54 266.847 12.32 266.46 13C266.074 13.68 265.527 14.2133 264.82 14.6C264.114 14.9867 263.267 15.18 262.28 15.18ZM273.973 15.18C272.906 15.18 271.999 14.9067 271.253 14.36C270.519 13.8 269.966 12.98 269.593 11.9C269.219 10.82 269.033 9.5 269.033 7.94C269.033 6.36667 269.219 5.04667 269.593 3.98C269.966 2.9 270.519 2.08667 271.253 1.54C271.999 0.993332 272.906 0.719999 273.973 0.719999C275.053 0.719999 275.959 0.993332 276.693 1.54C277.426 2.08667 277.979 2.89333 278.353 3.96C278.726 5.02667 278.913 6.34667 278.913 7.92C278.913 9.49333 278.726 10.82 278.353 11.9C277.979 12.98 277.426 13.8 276.693 14.36C275.959 14.9067 275.053 15.18 273.973 15.18ZM273.973 13.76C275.093 13.76 275.919 13.2867 276.453 12.34C276.999 11.3933 277.273 9.92 277.273 7.92C277.273 5.92 277.006 4.46 276.473 3.54C275.939 2.60667 275.106 2.14 273.973 2.14C272.866 2.14 272.039 2.60667 271.493 3.54C270.946 4.47333 270.673 5.93333 270.673 7.92C270.673 9.92 270.939 11.3933 271.473 12.34C272.019 13.2867 272.853 13.76 273.973 13.76ZM285.685 15.5L284.545 14.84L292.845 0.4L293.965 1.06L285.685 15.5ZM284.485 9.36C283.778 9.36 283.165 9.19333 282.645 8.86C282.138 8.51333 281.752 8.02 281.485 7.38C281.218 6.72667 281.085 5.94667 281.085 5.04C281.085 3.68 281.385 2.62667 281.985 1.88C282.585 1.12 283.418 0.739999 284.485 0.739999C285.192 0.739999 285.798 0.913332 286.305 1.26C286.812 1.59333 287.198 2.08 287.465 2.72C287.745 3.36 287.885 4.13333 287.885 5.04C287.885 5.94667 287.745 6.72 287.465 7.36C287.198 8 286.812 8.49333 286.305 8.84C285.798 9.18667 285.192 9.36 284.485 9.36ZM284.485 8.18C285.098 8.18 285.585 7.92 285.945 7.4C286.305 6.86667 286.485 6.08 286.485 5.04C286.485 4 286.305 3.22 285.945 2.7C285.585 2.18 285.098 1.92 284.485 1.92C283.858 1.92 283.365 2.18 283.005 2.7C282.658 3.22 282.485 4 282.485 5.04C282.485 6.08 282.658 6.86667 283.005 7.4C283.365 7.92 283.858 8.18 284.485 8.18ZM294.045 15.18C293.352 15.18 292.745 15.0133 292.225 14.68C291.718 14.3333 291.325 13.84 291.045 13.2C290.778 12.5467 290.645 11.7667 290.645 10.86C290.645 9.5 290.945 8.44667 291.545 7.7C292.158 6.94 292.992 6.56 294.045 6.56C294.752 6.56 295.358 6.73333 295.865 7.08C296.372 7.41333 296.758 7.9 297.025 8.54C297.305 9.18 297.445 9.95333 297.445 10.86C297.445 11.7667 297.312 12.5467 297.045 13.2C296.778 13.84 296.392 14.3333 295.885 14.68C295.378 15.0133 294.765 15.18 294.045 15.18ZM294.045 14C294.672 14 295.158 13.74 295.505 13.22C295.865 12.6867 296.045 11.9 296.045 10.86C296.045 9.82 295.865 9.04 295.505 8.52C295.158 8 294.672 7.74 294.045 7.74C293.432 7.74 292.945 8 292.585 8.52C292.238 9.04 292.065 9.82 292.065 10.86C292.065 11.9133 292.238 12.7 292.585 13.22C292.945 13.74 293.432 14 294.045 14ZM309.255 15.18C308.309 15.18 307.489 14.9733 306.795 14.56C306.102 14.1467 305.562 13.5667 305.175 12.82C304.802 12.06 304.615 11.1667 304.615 10.14C304.615 9.11333 304.802 8.22667 305.175 7.48C305.562 6.72 306.102 6.13333 306.795 5.72C307.489 5.30667 308.309 5.1 309.255 5.1C310.202 5.1 311.022 5.30667 311.715 5.72C312.409 6.13333 312.942 6.72 313.315 7.48C313.702 8.22667 313.895 9.11333 313.895 10.14C313.895 11.1667 313.702 12.06 313.315 12.82C312.942 13.5667 312.409 14.1467 311.715 14.56C311.022 14.9733 310.202 15.18 309.255 15.18ZM309.255 13.88C310.175 13.88 310.902 13.56 311.435 12.92C311.982 12.2667 312.255 11.3333 312.255 10.12C312.255 8.92 311.982 8 311.435 7.36C310.902 6.72 310.175 6.4 309.255 6.4C308.349 6.4 307.622 6.72 307.075 7.36C306.529 8 306.255 8.92 306.255 10.12C306.255 11.3333 306.529 12.2667 307.075 12.92C307.622 13.56 308.349 13.88 309.255 13.88ZM316.751 15V6.54H314.831V5.28H317.191L316.751 5.7V4.94C316.751 3.64667 317.071 2.66667 317.711 2C318.364 1.33333 319.364 0.959999 320.711 0.879999L321.491 0.84L321.631 2.08L320.711 2.14C320.164 2.18 319.718 2.3 319.371 2.5C319.024 2.7 318.771 2.98667 318.611 3.36C318.451 3.73333 318.371 4.19333 318.371 4.74V5.58L318.131 5.28H321.171V6.54H318.371V15H316.751ZM323.099 15V6.54H321.179V5.28H323.539L323.099 5.7V4.94C323.099 3.64667 323.419 2.66667 324.059 2C324.712 1.33333 325.712 0.959999 327.059 0.879999L327.839 0.84L327.979 2.08L327.059 2.14C326.512 2.18 326.065 2.3 325.719 2.5C325.372 2.7 325.119 2.98667 324.959 3.36C324.799 3.73333 324.719 4.19333 324.719 4.74V5.58L324.479 5.28H327.519V6.54H324.719V15H323.099ZM335.495 18.6L337.315 14.5V15.2L333.055 5.28H334.815L338.295 13.8H337.755L341.275 5.28H342.975L337.195 18.6H335.495ZM348.552 15.18C347.606 15.18 346.786 14.9733 346.092 14.56C345.399 14.1467 344.859 13.5667 344.472 12.82C344.099 12.06 343.912 11.1667 343.912 10.14C343.912 9.11333 344.099 8.22667 344.472 7.48C344.859 6.72 345.399 6.13333 346.092 5.72C346.786 5.30667 347.606 5.1 348.552 5.1C349.499 5.1 350.319 5.30667 351.012 5.72C351.706 6.13333 352.239 6.72 352.612 7.48C352.999 8.22667 353.192 9.11333 353.192 10.14C353.192 11.1667 352.999 12.06 352.612 12.82C352.239 13.5667 351.706 14.1467 351.012 14.56C350.319 14.9733 349.499 15.18 348.552 15.18ZM348.552 13.88C349.472 13.88 350.199 13.56 350.732 12.92C351.279 12.2667 351.552 11.3333 351.552 10.12C351.552 8.92 351.279 8 350.732 7.36C350.199 6.72 349.472 6.4 348.552 6.4C347.646 6.4 346.919 6.72 346.372 7.36C345.826 8 345.552 8.92 345.552 10.12C345.552 11.3333 345.826 12.2667 346.372 12.92C346.919 13.56 347.646 13.88 348.552 13.88ZM359.065 15.18C358.279 15.18 357.625 15.04 357.105 14.76C356.599 14.4667 356.212 14.0333 355.945 13.46C355.692 12.8867 355.565 12.1733 355.565 11.32V5.28H357.185V11.3C357.185 11.8733 357.259 12.3533 357.405 12.74C357.565 13.1133 357.812 13.3933 358.145 13.58C358.479 13.7533 358.892 13.84 359.385 13.84C359.945 13.84 360.432 13.7133 360.845 13.46C361.259 13.2067 361.585 12.8533 361.825 12.4C362.065 11.9467 362.185 11.4133 362.185 10.8V5.28H363.805V15H362.225V12.76H362.485C362.219 13.5467 361.779 14.1467 361.165 14.56C360.565 14.9733 359.865 15.18 359.065 15.18ZM366.836 15V5.28H368.416V7.58H368.216C368.443 6.79333 368.836 6.2 369.396 5.8C369.956 5.38667 370.696 5.14667 371.616 5.08L372.196 5.02L372.316 6.42L371.296 6.54C370.39 6.62 369.69 6.91333 369.196 7.42C368.716 7.91333 368.476 8.59333 368.476 9.46V15H366.836ZM379.661 15V6.54H377.741V5.28H380.101L379.661 5.7V4.94C379.661 3.64667 379.981 2.66667 380.621 2C381.274 1.33333 382.274 0.959999 383.621 0.879999L384.361 0.84L384.461 2.1L383.621 2.14C383.074 2.16667 382.628 2.28667 382.281 2.5C381.934 2.7 381.681 2.98667 381.521 3.36C381.361 3.73333 381.281 4.19333 381.281 4.74V5.5V5.28H387.281V15H385.661V6.54H381.281V15H379.661ZM385.481 2.86V1.04H387.461V2.86H385.481ZM390.313 15V5.28H391.893V7.58H391.693C391.92 6.79333 392.313 6.2 392.873 5.8C393.433 5.38667 394.173 5.14667 395.093 5.08L395.673 5.02L395.793 6.42L394.773 6.54C393.866 6.62 393.166 6.91333 392.673 7.42C392.193 7.91333 391.953 8.59333 391.953 9.46V15H390.313ZM400.663 15.18C400.157 15.18 399.663 15.1267 399.183 15.02C398.717 14.9267 398.277 14.7933 397.863 14.62C397.463 14.4333 397.117 14.2133 396.823 13.96L397.343 12.82C397.663 13.0733 398.01 13.2867 398.383 13.46C398.757 13.62 399.137 13.74 399.523 13.82C399.91 13.9 400.303 13.94 400.703 13.94C401.463 13.94 402.037 13.8 402.423 13.52C402.81 13.24 403.003 12.86 403.003 12.38C403.003 12.0067 402.877 11.7133 402.623 11.5C402.37 11.2733 401.97 11.1 401.423 10.98L399.603 10.58C398.763 10.4067 398.137 10.1067 397.723 9.68C397.323 9.25333 397.123 8.7 397.123 8.02C397.123 7.42 397.277 6.90667 397.583 6.48C397.903 6.04 398.35 5.7 398.923 5.46C399.497 5.22 400.163 5.1 400.923 5.1C401.377 5.1 401.81 5.14667 402.223 5.24C402.637 5.33333 403.023 5.47333 403.383 5.66C403.757 5.83333 404.077 6.05333 404.343 6.32L403.803 7.46C403.55 7.22 403.263 7.02 402.943 6.86C402.623 6.68667 402.29 6.56 401.943 6.48C401.61 6.38667 401.27 6.34 400.923 6.34C400.177 6.34 399.61 6.48667 399.223 6.78C398.837 7.07333 398.643 7.46 398.643 7.94C398.643 8.31333 398.763 8.62 399.003 8.86C399.243 9.1 399.617 9.27333 400.123 9.38L401.943 9.76C402.81 9.94667 403.457 10.2467 403.883 10.66C404.323 11.06 404.543 11.6067 404.543 12.3C404.543 12.8867 404.383 13.4 404.063 13.84C403.743 14.2667 403.29 14.6 402.703 14.84C402.13 15.0667 401.45 15.18 400.663 15.18ZM410.815 15.18C409.668 15.18 408.808 14.8733 408.235 14.26C407.661 13.6467 407.375 12.7733 407.375 11.64V6.54H405.475V5.28H407.375V2.3H408.995V5.28H412.075V6.54H408.995V11.48C408.995 12.24 409.155 12.82 409.475 13.22C409.795 13.6067 410.315 13.8 411.035 13.8C411.248 13.8 411.461 13.7733 411.675 13.72C411.888 13.6667 412.081 13.6133 412.255 13.56L412.535 14.8C412.361 14.8933 412.108 14.98 411.775 15.06C411.441 15.14 411.121 15.18 410.815 15.18ZM422.323 15.18C421.817 15.18 421.323 15.1267 420.843 15.02C420.377 14.9267 419.937 14.7933 419.523 14.62C419.123 14.4333 418.777 14.2133 418.483 13.96L419.003 12.82C419.323 13.0733 419.67 13.2867 420.043 13.46C420.417 13.62 420.797 13.74 421.183 13.82C421.57 13.9 421.963 13.94 422.363 13.94C423.123 13.94 423.697 13.8 424.083 13.52C424.47 13.24 424.663 12.86 424.663 12.38C424.663 12.0067 424.537 11.7133 424.283 11.5C424.03 11.2733 423.63 11.1 423.083 10.98L421.263 10.58C420.423 10.4067 419.797 10.1067 419.383 9.68C418.983 9.25333 418.783 8.7 418.783 8.02C418.783 7.42 418.937 6.90667 419.243 6.48C419.563 6.04 420.01 5.7 420.583 5.46C421.157 5.22 421.823 5.1 422.583 5.1C423.037 5.1 423.47 5.14667 423.883 5.24C424.297 5.33333 424.683 5.47333 425.043 5.66C425.417 5.83333 425.737 6.05333 426.003 6.32L425.463 7.46C425.21 7.22 424.923 7.02 424.603 6.86C424.283 6.68667 423.95 6.56 423.603 6.48C423.27 6.38667 422.93 6.34 422.583 6.34C421.837 6.34 421.27 6.48667 420.883 6.78C420.497 7.07333 420.303 7.46 420.303 7.94C420.303 8.31333 420.423 8.62 420.663 8.86C420.903 9.1 421.277 9.27333 421.783 9.38L423.603 9.76C424.47 9.94667 425.117 10.2467 425.543 10.66C425.983 11.06 426.203 11.6067 426.203 12.3C426.203 12.8867 426.043 13.4 425.723 13.84C425.403 14.2667 424.95 14.6 424.363 14.84C423.79 15.0667 423.11 15.18 422.323 15.18ZM433.052 15.18C432.026 15.18 431.139 14.98 430.392 14.58C429.659 14.1667 429.086 13.5867 428.672 12.84C428.272 12.0933 428.072 11.2 428.072 10.16C428.072 9.14667 428.272 8.26667 428.672 7.52C429.072 6.76 429.619 6.16667 430.312 5.74C431.019 5.31333 431.832 5.1 432.752 5.1C433.632 5.1 434.386 5.29333 435.012 5.68C435.639 6.06667 436.119 6.61333 436.452 7.32C436.799 8.02667 436.972 8.87333 436.972 9.86V10.48H429.312V9.42H435.892L435.572 9.68C435.572 8.61333 435.332 7.78667 434.852 7.2C434.386 6.6 433.699 6.3 432.792 6.3C432.112 6.3 431.532 6.46 431.052 6.78C430.586 7.08667 430.232 7.52 429.992 8.08C429.752 8.62667 429.632 9.26667 429.632 10V10.12C429.632 10.9333 429.759 11.62 430.012 12.18C430.279 12.74 430.672 13.1667 431.192 13.46C431.712 13.74 432.332 13.88 433.052 13.88C433.626 13.88 434.179 13.7933 434.712 13.62C435.259 13.4333 435.772 13.1333 436.252 12.72L436.812 13.86C436.372 14.26 435.812 14.58 435.132 14.82C434.452 15.06 433.759 15.18 433.052 15.18ZM443.437 15.18C442.464 15.18 441.624 14.9667 440.917 14.54C440.21 14.1133 439.664 13.52 439.277 12.76C438.904 11.9867 438.717 11.0933 438.717 10.08C438.717 9.05333 438.904 8.16667 439.277 7.42C439.664 6.67333 440.21 6.1 440.917 5.7C441.624 5.3 442.464 5.1 443.437 5.1C444.037 5.1 444.63 5.20667 445.217 5.42C445.804 5.63333 446.29 5.93333 446.677 6.32L446.117 7.5C445.73 7.12667 445.304 6.85333 444.837 6.68C444.384 6.50667 443.95 6.42 443.537 6.42C442.524 6.42 441.744 6.74 441.197 7.38C440.65 8.00667 440.377 8.91333 440.377 10.1C440.377 11.26 440.65 12.18 441.197 12.86C441.744 13.5267 442.524 13.86 443.537 13.86C443.95 13.86 444.384 13.7733 444.837 13.6C445.304 13.4267 445.73 13.1467 446.117 12.76L446.677 13.94C446.29 14.3267 445.797 14.6333 445.197 14.86C444.61 15.0733 444.024 15.18 443.437 15.18ZM452.475 15.18C451.328 15.18 450.468 14.8733 449.895 14.26C449.321 13.6467 449.035 12.7733 449.035 11.64V6.54H447.135V5.28H449.035V2.3H450.655V5.28H453.735V6.54H450.655V11.48C450.655 12.24 450.815 12.82 451.135 13.22C451.455 13.6067 451.975 13.8 452.695 13.8C452.908 13.8 453.121 13.7733 453.335 13.72C453.548 13.6667 453.741 13.6133 453.915 13.56L454.195 14.8C454.021 14.8933 453.768 14.98 453.435 15.06C453.101 15.14 452.781 15.18 452.475 15.18ZM455.367 2.86V1.04H457.367V2.86H455.367ZM455.567 15V5.28H457.187V15H455.567ZM464.255 15.18C463.309 15.18 462.489 14.9733 461.795 14.56C461.102 14.1467 460.562 13.5667 460.175 12.82C459.802 12.06 459.615 11.1667 459.615 10.14C459.615 9.11333 459.802 8.22667 460.175 7.48C460.562 6.72 461.102 6.13333 461.795 5.72C462.489 5.30667 463.309 5.1 464.255 5.1C465.202 5.1 466.022 5.30667 466.715 5.72C467.409 6.13333 467.942 6.72 468.315 7.48C468.702 8.22667 468.895 9.11333 468.895 10.14C468.895 11.1667 468.702 12.06 468.315 12.82C467.942 13.5667 467.409 14.1467 466.715 14.56C466.022 14.9733 465.202 15.18 464.255 15.18ZM464.255 13.88C465.175 13.88 465.902 13.56 466.435 12.92C466.982 12.2667 467.255 11.3333 467.255 10.12C467.255 8.92 466.982 8 466.435 7.36C465.902 6.72 465.175 6.4 464.255 6.4C463.349 6.4 462.622 6.72 462.075 7.36C461.529 8 461.255 8.92 461.255 10.12C461.255 11.3333 461.529 12.2667 462.075 12.92C462.622 13.56 463.349 13.88 464.255 13.88ZM471.329 15V5.28H472.909V7.44H472.689C472.969 6.66667 473.422 6.08667 474.049 5.7C474.689 5.3 475.422 5.1 476.249 5.1C477.022 5.1 477.662 5.24 478.169 5.52C478.689 5.78667 479.075 6.20667 479.329 6.78C479.582 7.35333 479.709 8.07333 479.709 8.94V15H478.089V9.04C478.089 8.44 478.009 7.94667 477.849 7.56C477.702 7.17333 477.462 6.88667 477.129 6.7C476.809 6.51333 476.389 6.42 475.869 6.42C475.282 6.42 474.769 6.54667 474.329 6.8C473.889 7.05333 473.549 7.40667 473.309 7.86C473.069 8.31333 472.949 8.84667 472.949 9.46V15H471.329Z" fill="#FCFCFC"/>
</svg>
