<svg width="319" height="19" viewBox="0 0 319 19" fill="none" xmlns="http://www.w3.org/2000/svg">
<path d="M0.74 15V0.899999H6.38C7.82 0.899999 8.94 1.22 9.74 1.86C10.54 2.5 10.94 3.40667 10.94 4.58C10.94 5.46 10.68 6.19333 10.16 6.78C9.65333 7.36667 8.96 7.75333 8.08 7.94V7.66C8.74667 7.74 9.32 7.93333 9.8 8.24C10.28 8.53333 10.6467 8.92667 10.9 9.42C11.1533 9.9 11.28 10.4667 11.28 11.12C11.28 11.96 11.0933 12.6733 10.72 13.26C10.36 13.8333 9.83333 14.2667 9.14 14.56C8.44667 14.8533 7.60667 15 6.62 15H0.74ZM2.34 13.68H6.46C6.88667 13.68 7.26667 13.6467 7.6 13.58C7.94667 13.5133 8.24667 13.4133 8.5 13.28C8.75333 13.1333 8.96667 12.96 9.14 12.76C9.31333 12.56 9.44 12.32 9.52 12.04C9.61333 11.76 9.66 11.4467 9.66 11.1C9.66 10.74 9.61333 10.4267 9.52 10.16C9.44 9.88 9.31333 9.64 9.14 9.44C8.96667 9.22667 8.75333 9.05333 8.5 8.92C8.24667 8.78667 7.94667 8.68667 7.6 8.62C7.26667 8.55333 6.88667 8.52 6.46 8.52H2.34V13.68ZM2.34 7.2H6.14C7.18 7.2 7.96667 6.98667 8.5 6.56C9.04667 6.13333 9.32 5.52 9.32 4.72C9.32 3.89333 9.04667 3.27333 8.5 2.86C7.96667 2.43333 7.18 2.22 6.14 2.22H2.34V7.2ZM18.0756 15.18C17.129 15.18 16.309 14.9733 15.6156 14.56C14.9223 14.1467 14.3823 13.5667 13.9956 12.82C13.6223 12.06 13.4356 11.1667 13.4356 10.14C13.4356 9.11333 13.6223 8.22667 13.9956 7.48C14.3823 6.72 14.9223 6.13333 15.6156 5.72C16.309 5.30667 17.129 5.1 18.0756 5.1C19.0223 5.1 19.8423 5.30667 20.5356 5.72C21.229 6.13333 21.7623 6.72 22.1356 7.48C22.5223 8.22667 22.7156 9.11333 22.7156 10.14C22.7156 11.1667 22.5223 12.06 22.1356 12.82C21.7623 13.5667 21.229 14.1467 20.5356 14.56C19.8423 14.9733 19.0223 15.18 18.0756 15.18ZM18.0756 13.88C18.9956 13.88 19.7223 13.56 20.2556 12.92C20.8023 12.2667 21.0756 11.3333 21.0756 10.12C21.0756 8.92 20.8023 8 20.2556 7.36C19.7223 6.72 18.9956 6.4 18.0756 6.4C17.169 6.4 16.4423 6.72 15.8956 7.36C15.349 8 15.0756 8.92 15.0756 10.12C15.0756 11.3333 15.349 12.2667 15.8956 12.92C16.4423 13.56 17.169 13.88 18.0756 13.88ZM29.1889 15.18C28.2422 15.18 27.4222 14.9733 26.7289 14.56C26.0356 14.1467 25.4956 13.5667 25.1089 12.82C24.7356 12.06 24.5489 11.1667 24.5489 10.14C24.5489 9.11333 24.7356 8.22667 25.1089 7.48C25.4956 6.72 26.0356 6.13333 26.7289 5.72C27.4222 5.30667 28.2422 5.1 29.1889 5.1C30.1356 5.1 30.9556 5.30667 31.6489 5.72C32.3422 6.13333 32.8756 6.72 33.2489 7.48C33.6356 8.22667 33.8289 9.11333 33.8289 10.14C33.8289 11.1667 33.6356 12.06 33.2489 12.82C32.8756 13.5667 32.3422 14.1467 31.6489 14.56C30.9556 14.9733 30.1356 15.18 29.1889 15.18ZM29.1889 13.88C30.1089 13.88 30.8356 13.56 31.3689 12.92C31.9156 12.2667 32.1889 11.3333 32.1889 10.12C32.1889 8.92 31.9156 8 31.3689 7.36C30.8356 6.72 30.1089 6.4 29.1889 6.4C28.2822 6.4 27.5556 6.72 27.0089 7.36C26.4622 8 26.1889 8.92 26.1889 10.12C26.1889 11.3333 26.4622 12.2667 27.0089 12.92C27.5556 13.56 28.2822 13.88 29.1889 13.88ZM36.2622 15V0.899999H37.8822V9.6H37.9222L42.4222 5.28H44.4822L39.1422 10.4V9.52L44.9022 15H42.8422L37.9222 10.44H37.8822V15H36.2622ZM51.6789 15V13.76L56.4989 8.56C56.9522 8.06667 57.3189 7.60667 57.5989 7.18C57.8789 6.74 58.0856 6.31333 58.2189 5.9C58.3522 5.48667 58.4189 5.06667 58.4189 4.64C58.4189 3.84 58.1722 3.23333 57.6789 2.82C57.1989 2.39333 56.4922 2.18 55.5589 2.18C54.8389 2.18 54.1656 2.31333 53.5389 2.58C52.9256 2.83333 52.3389 3.23333 51.7789 3.78L51.1589 2.5C51.6789 1.96667 52.3389 1.54 53.1389 1.22C53.9522 0.886666 54.8056 0.719999 55.6989 0.719999C56.6456 0.719999 57.4456 0.866666 58.0989 1.16C58.7522 1.45333 59.2456 1.88667 59.5789 2.46C59.9122 3.02 60.0789 3.70667 60.0789 4.52C60.0789 4.94667 60.0256 5.36667 59.9189 5.78C59.8256 6.18 59.6722 6.58667 59.4589 7C59.2589 7.4 58.9989 7.81333 58.6789 8.24C58.3722 8.66667 57.9989 9.10667 57.5589 9.56L53.3189 14.06V13.6H60.6589V15H51.6789ZM68.5278 15V0.899999H70.1478V7.44H69.8878C70.1678 6.66667 70.6211 6.08667 71.2478 5.7C71.8878 5.3 72.6211 5.1 73.4478 5.1C74.2211 5.1 74.8611 5.24 75.3678 5.52C75.8878 5.8 76.2745 6.22667 76.5278 6.8C76.7811 7.36 76.9078 8.07333 76.9078 8.94V15H75.2878V9.04C75.2878 8.44 75.2078 7.94667 75.0478 7.56C74.9011 7.17333 74.6611 6.88667 74.3278 6.7C74.0078 6.51333 73.5878 6.42 73.0678 6.42C72.4811 6.42 71.9678 6.54667 71.5278 6.8C71.0878 7.05333 70.7478 7.40667 70.5078 7.86C70.2678 8.31333 70.1478 8.84667 70.1478 9.46V15H68.5278ZM83.935 15.18C82.9883 15.18 82.1683 14.9733 81.475 14.56C80.7817 14.1467 80.2417 13.5667 79.855 12.82C79.4817 12.06 79.295 11.1667 79.295 10.14C79.295 9.11333 79.4817 8.22667 79.855 7.48C80.2417 6.72 80.7817 6.13333 81.475 5.72C82.1683 5.30667 82.9883 5.1 83.935 5.1C84.8817 5.1 85.7017 5.30667 86.395 5.72C87.0883 6.13333 87.6217 6.72 87.995 7.48C88.3817 8.22667 88.575 9.11333 88.575 10.14C88.575 11.1667 88.3817 12.06 87.995 12.82C87.6217 13.5667 87.0883 14.1467 86.395 14.56C85.7017 14.9733 84.8817 15.18 83.935 15.18ZM83.935 13.88C84.855 13.88 85.5817 13.56 86.115 12.92C86.6617 12.2667 86.935 11.3333 86.935 10.12C86.935 8.92 86.6617 8 86.115 7.36C85.5817 6.72 84.855 6.4 83.935 6.4C83.0283 6.4 82.3017 6.72 81.755 7.36C81.2083 8 80.935 8.92 80.935 10.12C80.935 11.3333 81.2083 12.2667 81.755 12.92C82.3017 13.56 83.0283 13.88 83.935 13.88ZM94.4483 15.18C93.6616 15.18 93.0083 15.04 92.4883 14.76C91.9816 14.4667 91.5949 14.0333 91.3283 13.46C91.0749 12.8867 90.9483 12.1733 90.9483 11.32V5.28H92.5683V11.3C92.5683 11.8733 92.6416 12.3533 92.7883 12.74C92.9483 13.1133 93.1949 13.3933 93.5283 13.58C93.8616 13.7533 94.2749 13.84 94.7683 13.84C95.3283 13.84 95.8149 13.7133 96.2283 13.46C96.6416 13.2067 96.9683 12.8533 97.2083 12.4C97.4483 11.9467 97.5683 11.4133 97.5683 10.8V5.28H99.1883V15H97.6083V12.76H97.8683C97.6016 13.5467 97.1616 14.1467 96.5483 14.56C95.9483 14.9733 95.2483 15.18 94.4483 15.18ZM102.219 15V5.28H103.799V7.58H103.599C103.826 6.79333 104.219 6.2 104.779 5.8C105.339 5.38667 106.079 5.14667 106.999 5.08L107.579 5.02L107.699 6.42L106.679 6.54C105.773 6.62 105.073 6.91333 104.579 7.42C104.099 7.91333 103.859 8.59333 103.859 9.46V15H102.219ZM117.804 15.18C117.297 15.18 116.804 15.1267 116.324 15.02C115.857 14.9267 115.417 14.7933 115.004 14.62C114.604 14.4333 114.257 14.2133 113.964 13.96L114.484 12.82C114.804 13.0733 115.151 13.2867 115.524 13.46C115.897 13.62 116.277 13.74 116.664 13.82C117.051 13.9 117.444 13.94 117.844 13.94C118.604 13.94 119.177 13.8 119.564 13.52C119.951 13.24 120.144 12.86 120.144 12.38C120.144 12.0067 120.017 11.7133 119.764 11.5C119.511 11.2733 119.111 11.1 118.564 10.98L116.744 10.58C115.904 10.4067 115.277 10.1067 114.864 9.68C114.464 9.25333 114.264 8.7 114.264 8.02C114.264 7.42 114.417 6.90667 114.724 6.48C115.044 6.04 115.491 5.7 116.064 5.46C116.637 5.22 117.304 5.1 118.064 5.1C118.517 5.1 118.951 5.14667 119.364 5.24C119.777 5.33333 120.164 5.47333 120.524 5.66C120.897 5.83333 121.217 6.05333 121.484 6.32L120.944 7.46C120.691 7.22 120.404 7.02 120.084 6.86C119.764 6.68667 119.431 6.56 119.084 6.48C118.751 6.38667 118.411 6.34 118.064 6.34C117.317 6.34 116.751 6.48667 116.364 6.78C115.977 7.07333 115.784 7.46 115.784 7.94C115.784 8.31333 115.904 8.62 116.144 8.86C116.384 9.1 116.757 9.27333 117.264 9.38L119.084 9.76C119.951 9.94667 120.597 10.2467 121.024 10.66C121.464 11.06 121.684 11.6067 121.684 12.3C121.684 12.8867 121.524 13.4 121.204 13.84C120.884 14.2667 120.431 14.6 119.844 14.84C119.271 15.0667 118.591 15.18 117.804 15.18ZM128.533 15.18C127.506 15.18 126.619 14.98 125.873 14.58C125.139 14.1667 124.566 13.5867 124.153 12.84C123.753 12.0933 123.553 11.2 123.553 10.16C123.553 9.14667 123.753 8.26667 124.153 7.52C124.553 6.76 125.099 6.16667 125.793 5.74C126.499 5.31333 127.313 5.1 128.233 5.1C129.113 5.1 129.866 5.29333 130.493 5.68C131.119 6.06667 131.599 6.61333 131.933 7.32C132.279 8.02667 132.453 8.87333 132.453 9.86V10.48H124.793V9.42H131.373L131.053 9.68C131.053 8.61333 130.813 7.78667 130.333 7.2C129.866 6.6 129.179 6.3 128.273 6.3C127.593 6.3 127.013 6.46 126.533 6.78C126.066 7.08667 125.713 7.52 125.473 8.08C125.233 8.62667 125.113 9.26667 125.113 10V10.12C125.113 10.9333 125.239 11.62 125.493 12.18C125.759 12.74 126.153 13.1667 126.673 13.46C127.193 13.74 127.813 13.88 128.533 13.88C129.106 13.88 129.659 13.7933 130.193 13.62C130.739 13.4333 131.253 13.1333 131.733 12.72L132.293 13.86C131.853 14.26 131.293 14.58 130.613 14.82C129.933 15.06 129.239 15.18 128.533 15.18ZM138.077 15.18C137.571 15.18 137.077 15.1267 136.597 15.02C136.131 14.9267 135.691 14.7933 135.277 14.62C134.877 14.4333 134.531 14.2133 134.237 13.96L134.757 12.82C135.077 13.0733 135.424 13.2867 135.797 13.46C136.171 13.62 136.551 13.74 136.937 13.82C137.324 13.9 137.717 13.94 138.117 13.94C138.877 13.94 139.451 13.8 139.837 13.52C140.224 13.24 140.417 12.86 140.417 12.38C140.417 12.0067 140.291 11.7133 140.037 11.5C139.784 11.2733 139.384 11.1 138.837 10.98L137.017 10.58C136.177 10.4067 135.551 10.1067 135.137 9.68C134.737 9.25333 134.537 8.7 134.537 8.02C134.537 7.42 134.691 6.90667 134.997 6.48C135.317 6.04 135.764 5.7 136.337 5.46C136.911 5.22 137.577 5.1 138.337 5.1C138.791 5.1 139.224 5.14667 139.637 5.24C140.051 5.33333 140.437 5.47333 140.797 5.66C141.171 5.83333 141.491 6.05333 141.757 6.32L141.217 7.46C140.964 7.22 140.677 7.02 140.357 6.86C140.037 6.68667 139.704 6.56 139.357 6.48C139.024 6.38667 138.684 6.34 138.337 6.34C137.591 6.34 137.024 6.48667 136.637 6.78C136.251 7.07333 136.057 7.46 136.057 7.94C136.057 8.31333 136.177 8.62 136.417 8.86C136.657 9.1 137.031 9.27333 137.537 9.38L139.357 9.76C140.224 9.94667 140.871 10.2467 141.297 10.66C141.737 11.06 141.957 11.6067 141.957 12.3C141.957 12.8867 141.797 13.4 141.477 13.84C141.157 14.2667 140.704 14.6 140.117 14.84C139.544 15.0667 138.864 15.18 138.077 15.18ZM147.706 15.18C147.2 15.18 146.706 15.1267 146.226 15.02C145.76 14.9267 145.32 14.7933 144.906 14.62C144.506 14.4333 144.16 14.2133 143.866 13.96L144.386 12.82C144.706 13.0733 145.053 13.2867 145.426 13.46C145.8 13.62 146.18 13.74 146.566 13.82C146.953 13.9 147.346 13.94 147.746 13.94C148.506 13.94 149.08 13.8 149.466 13.52C149.853 13.24 150.046 12.86 150.046 12.38C150.046 12.0067 149.92 11.7133 149.666 11.5C149.413 11.2733 149.013 11.1 148.466 10.98L146.646 10.58C145.806 10.4067 145.18 10.1067 144.766 9.68C144.366 9.25333 144.166 8.7 144.166 8.02C144.166 7.42 144.32 6.90667 144.626 6.48C144.946 6.04 145.393 5.7 145.966 5.46C146.54 5.22 147.206 5.1 147.966 5.1C148.42 5.1 148.853 5.14667 149.266 5.24C149.68 5.33333 150.066 5.47333 150.426 5.66C150.8 5.83333 151.12 6.05333 151.386 6.32L150.846 7.46C150.593 7.22 150.306 7.02 149.986 6.86C149.666 6.68667 149.333 6.56 148.986 6.48C148.653 6.38667 148.313 6.34 147.966 6.34C147.22 6.34 146.653 6.48667 146.266 6.78C145.88 7.07333 145.686 7.46 145.686 7.94C145.686 8.31333 145.806 8.62 146.046 8.86C146.286 9.1 146.66 9.27333 147.166 9.38L148.986 9.76C149.853 9.94667 150.5 10.2467 150.926 10.66C151.366 11.06 151.586 11.6067 151.586 12.3C151.586 12.8867 151.426 13.4 151.106 13.84C150.786 14.2667 150.333 14.6 149.746 14.84C149.173 15.0667 148.493 15.18 147.706 15.18ZM153.855 2.86V1.04H155.855V2.86H153.855ZM154.055 15V5.28H155.675V15H154.055ZM162.744 15.18C161.797 15.18 160.977 14.9733 160.284 14.56C159.59 14.1467 159.05 13.5667 158.664 12.82C158.29 12.06 158.104 11.1667 158.104 10.14C158.104 9.11333 158.29 8.22667 158.664 7.48C159.05 6.72 159.59 6.13333 160.284 5.72C160.977 5.30667 161.797 5.1 162.744 5.1C163.69 5.1 164.51 5.30667 165.204 5.72C165.897 6.13333 166.43 6.72 166.804 7.48C167.19 8.22667 167.384 9.11333 167.384 10.14C167.384 11.1667 167.19 12.06 166.804 12.82C166.43 13.5667 165.897 14.1467 165.204 14.56C164.51 14.9733 163.69 15.18 162.744 15.18ZM162.744 13.88C163.664 13.88 164.39 13.56 164.924 12.92C165.47 12.2667 165.744 11.3333 165.744 10.12C165.744 8.92 165.47 8 164.924 7.36C164.39 6.72 163.664 6.4 162.744 6.4C161.837 6.4 161.11 6.72 160.564 7.36C160.017 8 159.744 8.92 159.744 10.12C159.744 11.3333 160.017 12.2667 160.564 12.92C161.11 13.56 161.837 13.88 162.744 13.88ZM169.817 15V5.28H171.397V7.44H171.177C171.457 6.66667 171.91 6.08667 172.537 5.7C173.177 5.3 173.91 5.1 174.737 5.1C175.51 5.1 176.15 5.24 176.657 5.52C177.177 5.78667 177.564 6.20667 177.817 6.78C178.07 7.35333 178.197 8.07333 178.197 8.94V15H176.577V9.04C176.577 8.44 176.497 7.94667 176.337 7.56C176.19 7.17333 175.95 6.88667 175.617 6.7C175.297 6.51333 174.877 6.42 174.357 6.42C173.77 6.42 173.257 6.54667 172.817 6.8C172.377 7.05333 172.037 7.40667 171.797 7.86C171.557 8.31333 171.437 8.84667 171.437 9.46V15H169.817ZM184.464 15.18C183.957 15.18 183.464 15.1267 182.984 15.02C182.517 14.9267 182.077 14.7933 181.664 14.62C181.264 14.4333 180.917 14.2133 180.624 13.96L181.144 12.82C181.464 13.0733 181.811 13.2867 182.184 13.46C182.557 13.62 182.937 13.74 183.324 13.82C183.711 13.9 184.104 13.94 184.504 13.94C185.264 13.94 185.837 13.8 186.224 13.52C186.611 13.24 186.804 12.86 186.804 12.38C186.804 12.0067 186.677 11.7133 186.424 11.5C186.171 11.2733 185.771 11.1 185.224 10.98L183.404 10.58C182.564 10.4067 181.937 10.1067 181.524 9.68C181.124 9.25333 180.924 8.7 180.924 8.02C180.924 7.42 181.077 6.90667 181.384 6.48C181.704 6.04 182.151 5.7 182.724 5.46C183.297 5.22 183.964 5.1 184.724 5.1C185.177 5.1 185.611 5.14667 186.024 5.24C186.437 5.33333 186.824 5.47333 187.184 5.66C187.557 5.83333 187.877 6.05333 188.144 6.32L187.604 7.46C187.351 7.22 187.064 7.02 186.744 6.86C186.424 6.68667 186.091 6.56 185.744 6.48C185.411 6.38667 185.071 6.34 184.724 6.34C183.977 6.34 183.411 6.48667 183.024 6.78C182.637 7.07333 182.444 7.46 182.444 7.94C182.444 8.31333 182.564 8.62 182.804 8.86C183.044 9.1 183.417 9.27333 183.924 9.38L185.744 9.76C186.611 9.94667 187.257 10.2467 187.684 10.66C188.124 11.06 188.344 11.6067 188.344 12.3C188.344 12.8867 188.184 13.4 187.864 13.84C187.544 14.2667 187.091 14.6 186.504 14.84C185.931 15.0667 185.251 15.18 184.464 15.18ZM199.01 15.18C198.343 15.18 197.743 15.0533 197.21 14.8C196.69 14.5333 196.276 14.1733 195.97 13.72C195.663 13.2667 195.51 12.76 195.51 12.2C195.51 11.48 195.69 10.9133 196.05 10.5C196.423 10.0867 197.03 9.79333 197.87 9.62C198.723 9.44667 199.883 9.36 201.35 9.36H202.25V10.42H201.37C200.556 10.42 199.876 10.4467 199.33 10.5C198.783 10.5533 198.35 10.6467 198.03 10.78C197.71 10.9133 197.483 11.0867 197.35 11.3C197.216 11.5133 197.15 11.78 197.15 12.1C197.15 12.6467 197.336 13.0933 197.71 13.44C198.096 13.7867 198.616 13.96 199.27 13.96C199.803 13.96 200.27 13.8333 200.67 13.58C201.083 13.3267 201.403 12.98 201.63 12.54C201.87 12.1 201.99 11.5933 201.99 11.02V8.74C201.99 7.91333 201.823 7.32 201.49 6.96C201.156 6.58667 200.61 6.4 199.85 6.4C199.263 6.4 198.696 6.48667 198.15 6.66C197.603 6.82 197.043 7.08667 196.47 7.46L195.91 6.28C196.256 6.04 196.65 5.83333 197.09 5.66C197.53 5.47333 197.99 5.33333 198.47 5.24C198.95 5.14667 199.41 5.1 199.85 5.1C200.69 5.1 201.383 5.24 201.93 5.52C202.476 5.78667 202.883 6.2 203.15 6.76C203.416 7.30667 203.55 8.01333 203.55 8.88V15H202.03V12.74H202.21C202.103 13.2467 201.896 13.68 201.59 14.04C201.296 14.4 200.93 14.68 200.49 14.88C200.05 15.08 199.556 15.18 199.01 15.18ZM206.555 15V5.28H208.135V7.44H207.915C208.195 6.66667 208.648 6.08667 209.275 5.7C209.915 5.3 210.648 5.1 211.475 5.1C212.248 5.1 212.888 5.24 213.395 5.52C213.915 5.78667 214.302 6.20667 214.555 6.78C214.808 7.35333 214.935 8.07333 214.935 8.94V15H213.315V9.04C213.315 8.44 213.235 7.94667 213.075 7.56C212.928 7.17333 212.688 6.88667 212.355 6.7C212.035 6.51333 211.615 6.42 211.095 6.42C210.508 6.42 209.995 6.54667 209.555 6.8C209.115 7.05333 208.775 7.40667 208.535 7.86C208.295 8.31333 208.175 8.84667 208.175 9.46V15H206.555ZM221.622 15.18C220.756 15.18 219.996 14.9733 219.342 14.56C218.702 14.1467 218.202 13.5667 217.842 12.82C217.496 12.06 217.322 11.1667 217.322 10.14C217.322 9.1 217.496 8.20667 217.842 7.46C218.202 6.7 218.702 6.12 219.342 5.72C219.996 5.30667 220.756 5.1 221.622 5.1C222.502 5.1 223.256 5.32 223.882 5.76C224.509 6.2 224.929 6.79333 225.142 7.54H224.922V0.899999H226.542V15H224.962V12.68H225.162C224.949 13.44 224.522 14.0467 223.882 14.5C223.256 14.9533 222.502 15.18 221.622 15.18ZM221.962 13.88C222.882 13.88 223.609 13.56 224.142 12.92C224.689 12.2667 224.962 11.34 224.962 10.14C224.962 8.92667 224.689 8 224.142 7.36C223.609 6.72 222.882 6.4 221.962 6.4C221.056 6.4 220.329 6.72 219.782 7.36C219.236 8 218.962 8.92667 218.962 10.14C218.962 11.34 219.236 12.2667 219.782 12.92C220.329 13.56 221.056 13.88 221.962 13.88ZM239.019 18.78C238.179 18.78 237.386 18.6667 236.639 18.44C235.906 18.2267 235.253 17.9 234.679 17.46L235.219 16.28C235.619 16.56 236.013 16.7867 236.399 16.96C236.799 17.1467 237.206 17.28 237.619 17.36C238.046 17.44 238.486 17.48 238.939 17.48C239.886 17.48 240.599 17.2267 241.079 16.72C241.573 16.2133 241.819 15.48 241.819 14.52V12.26H242.019C241.819 13.0333 241.393 13.6467 240.739 14.1C240.099 14.5533 239.346 14.78 238.479 14.78C237.586 14.78 236.813 14.58 236.159 14.18C235.506 13.7667 234.999 13.1933 234.639 12.46C234.293 11.7267 234.119 10.88 234.119 9.92C234.119 8.96 234.293 8.12 234.639 7.4C234.999 6.66667 235.506 6.1 236.159 5.7C236.813 5.3 237.586 5.1 238.479 5.1C239.359 5.1 240.119 5.32667 240.759 5.78C241.399 6.22 241.813 6.82 241.999 7.58H241.819V5.28H243.399V14.3C243.399 15.2867 243.233 16.1133 242.899 16.78C242.579 17.4467 242.093 17.9467 241.439 18.28C240.786 18.6133 239.979 18.78 239.019 18.78ZM238.779 13.46C239.713 13.46 240.453 13.14 240.999 12.5C241.546 11.86 241.819 11 241.819 9.92C241.819 8.84 241.546 7.98667 240.999 7.36C240.453 6.72 239.713 6.4 238.779 6.4C237.859 6.4 237.126 6.72 236.579 7.36C236.033 7.98667 235.759 8.84 235.759 9.92C235.759 11 236.033 11.86 236.579 12.5C237.126 13.14 237.859 13.46 238.779 13.46ZM250.818 15.18C249.791 15.18 248.905 14.98 248.158 14.58C247.425 14.1667 246.851 13.5867 246.438 12.84C246.038 12.0933 245.838 11.2 245.838 10.16C245.838 9.14667 246.038 8.26667 246.438 7.52C246.838 6.76 247.385 6.16667 248.078 5.74C248.785 5.31333 249.598 5.1 250.518 5.1C251.398 5.1 252.151 5.29333 252.778 5.68C253.405 6.06667 253.885 6.61333 254.218 7.32C254.565 8.02667 254.738 8.87333 254.738 9.86V10.48H247.078V9.42H253.658L253.338 9.68C253.338 8.61333 253.098 7.78667 252.618 7.2C252.151 6.6 251.465 6.3 250.558 6.3C249.878 6.3 249.298 6.46 248.818 6.78C248.351 7.08667 247.998 7.52 247.758 8.08C247.518 8.62667 247.398 9.26667 247.398 10V10.12C247.398 10.9333 247.525 11.62 247.778 12.18C248.045 12.74 248.438 13.1667 248.958 13.46C249.478 13.74 250.098 13.88 250.818 13.88C251.391 13.88 251.945 13.7933 252.478 13.62C253.025 13.4333 253.538 13.1333 254.018 12.72L254.578 13.86C254.138 14.26 253.578 14.58 252.898 14.82C252.218 15.06 251.525 15.18 250.818 15.18ZM260.983 15.18C259.836 15.18 258.976 14.8733 258.403 14.26C257.829 13.6467 257.543 12.7733 257.543 11.64V6.54H255.643V5.28H257.543V2.3H259.163V5.28H262.243V6.54H259.163V11.48C259.163 12.24 259.323 12.82 259.643 13.22C259.963 13.6067 260.483 13.8 261.203 13.8C261.416 13.8 261.629 13.7733 261.843 13.72C262.056 13.6667 262.249 13.6133 262.423 13.56L262.703 14.8C262.529 14.8933 262.276 14.98 261.943 15.06C261.609 15.14 261.289 15.18 260.983 15.18ZM270.171 15V13.6H273.391V2.32H274.251L270.851 4.48L270.151 3.26L273.851 0.899999H275.031V13.6H278.051V15H270.171ZM286.86 15V6.54H284.94V5.28H287.3L286.86 5.7V4.94C286.86 3.64667 287.18 2.66667 287.82 2C288.474 1.33333 289.474 0.959999 290.82 0.879999L291.6 0.84L291.74 2.08L290.82 2.14C290.274 2.18 289.827 2.3 289.48 2.5C289.134 2.7 288.88 2.98667 288.72 3.36C288.56 3.73333 288.48 4.19333 288.48 4.74V5.58L288.24 5.28H291.28V6.54H288.48V15H286.86ZM293 15V5.28H294.58V7.58H294.38C294.607 6.79333 295 6.2 295.56 5.8C296.12 5.38667 296.86 5.14667 297.78 5.08L298.36 5.02L298.48 6.42L297.46 6.54C296.554 6.62 295.854 6.91333 295.36 7.42C294.88 7.91333 294.64 8.59333 294.64 9.46V15H293ZM304.431 15.18C303.405 15.18 302.518 14.98 301.771 14.58C301.038 14.1667 300.465 13.5867 300.051 12.84C299.651 12.0933 299.451 11.2 299.451 10.16C299.451 9.14667 299.651 8.26667 300.051 7.52C300.451 6.76 300.998 6.16667 301.691 5.74C302.398 5.31333 303.211 5.1 304.131 5.1C305.011 5.1 305.765 5.29333 306.391 5.68C307.018 6.06667 307.498 6.61333 307.831 7.32C308.178 8.02667 308.351 8.87333 308.351 9.86V10.48H300.691V9.42H307.271L306.951 9.68C306.951 8.61333 306.711 7.78667 306.231 7.2C305.765 6.6 305.078 6.3 304.171 6.3C303.491 6.3 302.911 6.46 302.431 6.78C301.965 7.08667 301.611 7.52 301.371 8.08C301.131 8.62667 301.011 9.26667 301.011 10V10.12C301.011 10.9333 301.138 11.62 301.391 12.18C301.658 12.74 302.051 13.1667 302.571 13.46C303.091 13.74 303.711 13.88 304.431 13.88C305.005 13.88 305.558 13.7933 306.091 13.62C306.638 13.4333 307.151 13.1333 307.631 12.72L308.191 13.86C307.751 14.26 307.191 14.58 306.511 14.82C305.831 15.06 305.138 15.18 304.431 15.18ZM315.076 15.18C314.049 15.18 313.162 14.98 312.416 14.58C311.682 14.1667 311.109 13.5867 310.696 12.84C310.296 12.0933 310.096 11.2 310.096 10.16C310.096 9.14667 310.296 8.26667 310.696 7.52C311.096 6.76 311.642 6.16667 312.336 5.74C313.042 5.31333 313.856 5.1 314.776 5.1C315.656 5.1 316.409 5.29333 317.036 5.68C317.662 6.06667 318.142 6.61333 318.476 7.32C318.822 8.02667 318.996 8.87333 318.996 9.86V10.48H311.336V9.42H317.916L317.596 9.68C317.596 8.61333 317.356 7.78667 316.876 7.2C316.409 6.6 315.722 6.3 314.816 6.3C314.136 6.3 313.556 6.46 313.076 6.78C312.609 7.08667 312.256 7.52 312.016 8.08C311.776 8.62667 311.656 9.26667 311.656 10V10.12C311.656 10.9333 311.782 11.62 312.036 12.18C312.302 12.74 312.696 13.1667 313.216 13.46C313.736 13.74 314.356 13.88 315.076 13.88C315.649 13.88 316.202 13.7933 316.736 13.62C317.282 13.4333 317.796 13.1333 318.276 12.72L318.836 13.86C318.396 14.26 317.836 14.58 317.156 14.82C316.476 15.06 315.782 15.18 315.076 15.18Z" fill="#FCFCFC"/>
</svg>
