<svg width="293" height="19" viewBox="0 0 293 19" fill="none" xmlns="http://www.w3.org/2000/svg">
<path d="M0.24 15V0.899999H5.88C7.32 0.899999 8.44 1.22 9.24 1.86C10.04 2.5 10.44 3.40667 10.44 4.58C10.44 5.46 10.18 6.19333 9.66 6.78C9.15333 7.36667 8.46 7.75333 7.58 7.94V7.66C8.24667 7.74 8.82 7.93333 9.3 8.24C9.78 8.53333 10.1467 8.92667 10.4 9.42C10.6533 9.9 10.78 10.4667 10.78 11.12C10.78 11.96 10.5933 12.6733 10.22 13.26C9.86 13.8333 9.33333 14.2667 8.64 14.56C7.94667 14.8533 7.10667 15 6.12 15H0.24ZM1.84 13.68H5.96C6.38667 13.68 6.76667 13.6467 7.1 13.58C7.44667 13.5133 7.74667 13.4133 8 13.28C8.25333 13.1333 8.46667 12.96 8.64 12.76C8.81333 12.56 8.94 12.32 9.02 12.04C9.11333 11.76 9.16 11.4467 9.16 11.1C9.16 10.74 9.11333 10.4267 9.02 10.16C8.94 9.88 8.81333 9.64 8.64 9.44C8.46667 9.22667 8.25333 9.05333 8 8.92C7.74667 8.78667 7.44667 8.68667 7.1 8.62C6.76667 8.55333 6.38667 8.52 5.96 8.52H1.84V13.68ZM1.84 7.2H5.64C6.68 7.2 7.46667 6.98667 8 6.56C8.54667 6.13333 8.82 5.52 8.82 4.72C8.82 3.89333 8.54667 3.27333 8 2.86C7.46667 2.43333 6.68 2.22 5.64 2.22H1.84V7.2ZM17.5756 15.18C16.629 15.18 15.809 14.9733 15.1156 14.56C14.4223 14.1467 13.8823 13.5667 13.4956 12.82C13.1223 12.06 12.9356 11.1667 12.9356 10.14C12.9356 9.11333 13.1223 8.22667 13.4956 7.48C13.8823 6.72 14.4223 6.13333 15.1156 5.72C15.809 5.30667 16.629 5.1 17.5756 5.1C18.5223 5.1 19.3423 5.30667 20.0356 5.72C20.729 6.13333 21.2623 6.72 21.6356 7.48C22.0223 8.22667 22.2156 9.11333 22.2156 10.14C22.2156 11.1667 22.0223 12.06 21.6356 12.82C21.2623 13.5667 20.729 14.1467 20.0356 14.56C19.3423 14.9733 18.5223 15.18 17.5756 15.18ZM17.5756 13.88C18.4956 13.88 19.2223 13.56 19.7556 12.92C20.3023 12.2667 20.5756 11.3333 20.5756 10.12C20.5756 8.92 20.3023 8 19.7556 7.36C19.2223 6.72 18.4956 6.4 17.5756 6.4C16.669 6.4 15.9423 6.72 15.3956 7.36C14.849 8 14.5756 8.92 14.5756 10.12C14.5756 11.3333 14.849 12.2667 15.3956 12.92C15.9423 13.56 16.669 13.88 17.5756 13.88ZM28.6889 15.18C27.7422 15.18 26.9222 14.9733 26.2289 14.56C25.5356 14.1467 24.9956 13.5667 24.6089 12.82C24.2356 12.06 24.0489 11.1667 24.0489 10.14C24.0489 9.11333 24.2356 8.22667 24.6089 7.48C24.9956 6.72 25.5356 6.13333 26.2289 5.72C26.9222 5.30667 27.7422 5.1 28.6889 5.1C29.6356 5.1 30.4556 5.30667 31.1489 5.72C31.8422 6.13333 32.3756 6.72 32.7489 7.48C33.1356 8.22667 33.3289 9.11333 33.3289 10.14C33.3289 11.1667 33.1356 12.06 32.7489 12.82C32.3756 13.5667 31.8422 14.1467 31.1489 14.56C30.4556 14.9733 29.6356 15.18 28.6889 15.18ZM28.6889 13.88C29.6089 13.88 30.3356 13.56 30.8689 12.92C31.4156 12.2667 31.6889 11.3333 31.6889 10.12C31.6889 8.92 31.4156 8 30.8689 7.36C30.3356 6.72 29.6089 6.4 28.6889 6.4C27.7822 6.4 27.0556 6.72 26.5089 7.36C25.9622 8 25.6889 8.92 25.6889 10.12C25.6889 11.3333 25.9622 12.2667 26.5089 12.92C27.0556 13.56 27.7822 13.88 28.6889 13.88ZM35.7622 15V0.899999H37.3822V9.6H37.4222L41.9222 5.28H43.9822L38.6422 10.4V9.52L44.4022 15H42.3422L37.4222 10.44H37.3822V15H35.7622ZM55.2189 15.18C54.5922 15.18 53.9856 15.1133 53.3989 14.98C52.8256 14.8467 52.2856 14.66 51.7789 14.42C51.2722 14.1667 50.8256 13.86 50.4389 13.5L51.0389 12.2C51.6922 12.7333 52.3522 13.12 53.0189 13.36C53.6856 13.6 54.4056 13.72 55.1789 13.72C55.8589 13.72 56.4322 13.62 56.8989 13.42C57.3656 13.22 57.7189 12.9267 57.9589 12.54C58.1989 12.14 58.3189 11.6533 58.3189 11.08C58.3189 10.2533 58.0456 9.62667 57.4989 9.2C56.9522 8.77333 56.1589 8.56 55.1189 8.56H53.0389V7.14H54.9789C55.5922 7.14 56.1122 7.03333 56.5389 6.82C56.9789 6.60667 57.3189 6.30667 57.5589 5.92C57.7989 5.52 57.9189 5.04 57.9189 4.48C57.9189 3.73333 57.6789 3.16667 57.1989 2.78C56.7189 2.38 56.0256 2.18 55.1189 2.18C54.3722 2.18 53.6856 2.31333 53.0589 2.58C52.4322 2.83333 51.8389 3.23333 51.2789 3.78L50.6789 2.5C51.2122 1.94 51.8789 1.50667 52.6789 1.2C53.4922 0.879999 54.3389 0.719999 55.2189 0.719999C56.1256 0.719999 56.8989 0.866666 57.5389 1.16C58.1922 1.44 58.6922 1.85333 59.0389 2.4C59.3856 2.93333 59.5589 3.58 59.5589 4.34C59.5589 5.20667 59.3189 5.95333 58.8389 6.58C58.3589 7.19333 57.7056 7.61333 56.8789 7.84V7.62C57.5322 7.72667 58.0856 7.94 58.5389 8.26C59.0056 8.58 59.3589 8.99333 59.5989 9.5C59.8389 9.99333 59.9589 10.56 59.9589 11.2C59.9589 12.0133 59.7656 12.72 59.3789 13.32C59.0056 13.9067 58.4656 14.3667 57.7589 14.7C57.0522 15.02 56.2056 15.18 55.2189 15.18ZM68.0278 15V0.899999H69.6478V7.44H69.3878C69.6678 6.66667 70.1211 6.08667 70.7478 5.7C71.3878 5.3 72.1211 5.1 72.9478 5.1C73.7211 5.1 74.3611 5.24 74.8678 5.52C75.3878 5.8 75.7745 6.22667 76.0278 6.8C76.2811 7.36 76.4078 8.07333 76.4078 8.94V15H74.7878V9.04C74.7878 8.44 74.7078 7.94667 74.5478 7.56C74.4011 7.17333 74.1611 6.88667 73.8278 6.7C73.5078 6.51333 73.0878 6.42 72.5678 6.42C71.9811 6.42 71.4678 6.54667 71.0278 6.8C70.5878 7.05333 70.2478 7.40667 70.0078 7.86C69.7678 8.31333 69.6478 8.84667 69.6478 9.46V15H68.0278ZM83.435 15.18C82.4883 15.18 81.6683 14.9733 80.975 14.56C80.2817 14.1467 79.7417 13.5667 79.355 12.82C78.9817 12.06 78.795 11.1667 78.795 10.14C78.795 9.11333 78.9817 8.22667 79.355 7.48C79.7417 6.72 80.2817 6.13333 80.975 5.72C81.6683 5.30667 82.4883 5.1 83.435 5.1C84.3817 5.1 85.2017 5.30667 85.895 5.72C86.5883 6.13333 87.1217 6.72 87.495 7.48C87.8817 8.22667 88.075 9.11333 88.075 10.14C88.075 11.1667 87.8817 12.06 87.495 12.82C87.1217 13.5667 86.5883 14.1467 85.895 14.56C85.2017 14.9733 84.3817 15.18 83.435 15.18ZM83.435 13.88C84.355 13.88 85.0817 13.56 85.615 12.92C86.1617 12.2667 86.435 11.3333 86.435 10.12C86.435 8.92 86.1617 8 85.615 7.36C85.0817 6.72 84.355 6.4 83.435 6.4C82.5283 6.4 81.8017 6.72 81.255 7.36C80.7083 8 80.435 8.92 80.435 10.12C80.435 11.3333 80.7083 12.2667 81.255 12.92C81.8017 13.56 82.5283 13.88 83.435 13.88ZM93.9483 15.18C93.1616 15.18 92.5083 15.04 91.9883 14.76C91.4816 14.4667 91.0949 14.0333 90.8283 13.46C90.5749 12.8867 90.4483 12.1733 90.4483 11.32V5.28H92.0683V11.3C92.0683 11.8733 92.1416 12.3533 92.2883 12.74C92.4483 13.1133 92.6949 13.3933 93.0283 13.58C93.3616 13.7533 93.7749 13.84 94.2683 13.84C94.8283 13.84 95.3149 13.7133 95.7283 13.46C96.1416 13.2067 96.4683 12.8533 96.7083 12.4C96.9483 11.9467 97.0683 11.4133 97.0683 10.8V5.28H98.6883V15H97.1083V12.76H97.3683C97.1016 13.5467 96.6616 14.1467 96.0483 14.56C95.4483 14.9733 94.7483 15.18 93.9483 15.18ZM101.719 15V5.28H103.299V7.58H103.099C103.326 6.79333 103.719 6.2 104.279 5.8C104.839 5.38667 105.579 5.14667 106.499 5.08L107.079 5.02L107.199 6.42L106.179 6.54C105.273 6.62 104.573 6.91333 104.079 7.42C103.599 7.91333 103.359 8.59333 103.359 9.46V15H101.719ZM112.07 15.18C111.563 15.18 111.07 15.1267 110.59 15.02C110.123 14.9267 109.683 14.7933 109.27 14.62C108.87 14.4333 108.523 14.2133 108.23 13.96L108.75 12.82C109.07 13.0733 109.416 13.2867 109.79 13.46C110.163 13.62 110.543 13.74 110.93 13.82C111.316 13.9 111.71 13.94 112.11 13.94C112.87 13.94 113.443 13.8 113.83 13.52C114.216 13.24 114.41 12.86 114.41 12.38C114.41 12.0067 114.283 11.7133 114.03 11.5C113.776 11.2733 113.376 11.1 112.83 10.98L111.01 10.58C110.17 10.4067 109.543 10.1067 109.13 9.68C108.73 9.25333 108.53 8.7 108.53 8.02C108.53 7.42 108.683 6.90667 108.99 6.48C109.31 6.04 109.756 5.7 110.33 5.46C110.903 5.22 111.57 5.1 112.33 5.1C112.783 5.1 113.216 5.14667 113.63 5.24C114.043 5.33333 114.43 5.47333 114.79 5.66C115.163 5.83333 115.483 6.05333 115.75 6.32L115.21 7.46C114.956 7.22 114.67 7.02 114.35 6.86C114.03 6.68667 113.696 6.56 113.35 6.48C113.016 6.38667 112.676 6.34 112.33 6.34C111.583 6.34 111.016 6.48667 110.63 6.78C110.243 7.07333 110.05 7.46 110.05 7.94C110.05 8.31333 110.17 8.62 110.41 8.86C110.65 9.1 111.023 9.27333 111.53 9.38L113.35 9.76C114.216 9.94667 114.863 10.2467 115.29 10.66C115.73 11.06 115.95 11.6067 115.95 12.3C115.95 12.8867 115.79 13.4 115.47 13.84C115.15 14.2667 114.696 14.6 114.11 14.84C113.536 15.0667 112.856 15.18 112.07 15.18ZM126.615 15.18C125.948 15.18 125.348 15.0533 124.815 14.8C124.295 14.5333 123.882 14.1733 123.575 13.72C123.268 13.2667 123.115 12.76 123.115 12.2C123.115 11.48 123.295 10.9133 123.655 10.5C124.028 10.0867 124.635 9.79333 125.475 9.62C126.328 9.44667 127.488 9.36 128.955 9.36H129.855V10.42H128.975C128.162 10.42 127.482 10.4467 126.935 10.5C126.388 10.5533 125.955 10.6467 125.635 10.78C125.315 10.9133 125.088 11.0867 124.955 11.3C124.822 11.5133 124.755 11.78 124.755 12.1C124.755 12.6467 124.942 13.0933 125.315 13.44C125.702 13.7867 126.222 13.96 126.875 13.96C127.408 13.96 127.875 13.8333 128.275 13.58C128.688 13.3267 129.008 12.98 129.235 12.54C129.475 12.1 129.595 11.5933 129.595 11.02V8.74C129.595 7.91333 129.428 7.32 129.095 6.96C128.762 6.58667 128.215 6.4 127.455 6.4C126.868 6.4 126.302 6.48667 125.755 6.66C125.208 6.82 124.648 7.08667 124.075 7.46L123.515 6.28C123.862 6.04 124.255 5.83333 124.695 5.66C125.135 5.47333 125.595 5.33333 126.075 5.24C126.555 5.14667 127.015 5.1 127.455 5.1C128.295 5.1 128.988 5.24 129.535 5.52C130.082 5.78667 130.488 6.2 130.755 6.76C131.022 7.30667 131.155 8.01333 131.155 8.88V15H129.635V12.74H129.815C129.708 13.2467 129.502 13.68 129.195 14.04C128.902 14.4 128.535 14.68 128.095 14.88C127.655 15.08 127.162 15.18 126.615 15.18ZM134.161 15V5.28H135.741V7.44H135.521C135.801 6.66667 136.254 6.08667 136.881 5.7C137.521 5.3 138.254 5.1 139.081 5.1C139.854 5.1 140.494 5.24 141.001 5.52C141.521 5.78667 141.907 6.20667 142.161 6.78C142.414 7.35333 142.541 8.07333 142.541 8.94V15H140.921V9.04C140.921 8.44 140.841 7.94667 140.681 7.56C140.534 7.17333 140.294 6.88667 139.961 6.7C139.641 6.51333 139.221 6.42 138.701 6.42C138.114 6.42 137.601 6.54667 137.161 6.8C136.721 7.05333 136.381 7.40667 136.141 7.86C135.901 8.31333 135.781 8.84667 135.781 9.46V15H134.161ZM149.228 15.18C148.361 15.18 147.601 14.9733 146.948 14.56C146.308 14.1467 145.808 13.5667 145.448 12.82C145.101 12.06 144.928 11.1667 144.928 10.14C144.928 9.1 145.101 8.20667 145.448 7.46C145.808 6.7 146.308 6.12 146.948 5.72C147.601 5.30667 148.361 5.1 149.228 5.1C150.108 5.1 150.861 5.32 151.488 5.76C152.114 6.2 152.534 6.79333 152.748 7.54H152.528V0.899999H154.148V15H152.568V12.68H152.768C152.554 13.44 152.128 14.0467 151.488 14.5C150.861 14.9533 150.108 15.18 149.228 15.18ZM149.568 13.88C150.488 13.88 151.214 13.56 151.748 12.92C152.294 12.2667 152.568 11.34 152.568 10.14C152.568 8.92667 152.294 8 151.748 7.36C151.214 6.72 150.488 6.4 149.568 6.4C148.661 6.4 147.934 6.72 147.388 7.36C146.841 8 146.568 8.92667 146.568 10.14C146.568 11.34 146.841 12.2667 147.388 12.92C147.934 13.56 148.661 13.88 149.568 13.88ZM166.625 18.78C165.785 18.78 164.991 18.6667 164.245 18.44C163.511 18.2267 162.858 17.9 162.285 17.46L162.825 16.28C163.225 16.56 163.618 16.7867 164.005 16.96C164.405 17.1467 164.811 17.28 165.225 17.36C165.651 17.44 166.091 17.48 166.545 17.48C167.491 17.48 168.205 17.2267 168.685 16.72C169.178 16.2133 169.425 15.48 169.425 14.52V12.26H169.625C169.425 13.0333 168.998 13.6467 168.345 14.1C167.705 14.5533 166.951 14.78 166.085 14.78C165.191 14.78 164.418 14.58 163.765 14.18C163.111 13.7667 162.605 13.1933 162.245 12.46C161.898 11.7267 161.725 10.88 161.725 9.92C161.725 8.96 161.898 8.12 162.245 7.4C162.605 6.66667 163.111 6.1 163.765 5.7C164.418 5.3 165.191 5.1 166.085 5.1C166.965 5.1 167.725 5.32667 168.365 5.78C169.005 6.22 169.418 6.82 169.605 7.58H169.425V5.28H171.005V14.3C171.005 15.2867 170.838 16.1133 170.505 16.78C170.185 17.4467 169.698 17.9467 169.045 18.28C168.391 18.6133 167.585 18.78 166.625 18.78ZM166.385 13.46C167.318 13.46 168.058 13.14 168.605 12.5C169.151 11.86 169.425 11 169.425 9.92C169.425 8.84 169.151 7.98667 168.605 7.36C168.058 6.72 167.318 6.4 166.385 6.4C165.465 6.4 164.731 6.72 164.185 7.36C163.638 7.98667 163.365 8.84 163.365 9.92C163.365 11 163.638 11.86 164.185 12.5C164.731 13.14 165.465 13.46 166.385 13.46ZM178.423 15.18C177.397 15.18 176.51 14.98 175.763 14.58C175.03 14.1667 174.457 13.5867 174.043 12.84C173.643 12.0933 173.443 11.2 173.443 10.16C173.443 9.14667 173.643 8.26667 174.043 7.52C174.443 6.76 174.99 6.16667 175.683 5.74C176.39 5.31333 177.203 5.1 178.123 5.1C179.003 5.1 179.757 5.29333 180.383 5.68C181.01 6.06667 181.49 6.61333 181.823 7.32C182.17 8.02667 182.343 8.87333 182.343 9.86V10.48H174.683V9.42H181.263L180.943 9.68C180.943 8.61333 180.703 7.78667 180.223 7.2C179.757 6.6 179.07 6.3 178.163 6.3C177.483 6.3 176.903 6.46 176.423 6.78C175.957 7.08667 175.603 7.52 175.363 8.08C175.123 8.62667 175.003 9.26667 175.003 10V10.12C175.003 10.9333 175.13 11.62 175.383 12.18C175.65 12.74 176.043 13.1667 176.563 13.46C177.083 13.74 177.703 13.88 178.423 13.88C178.997 13.88 179.55 13.7933 180.083 13.62C180.63 13.4333 181.143 13.1333 181.623 12.72L182.183 13.86C181.743 14.26 181.183 14.58 180.503 14.82C179.823 15.06 179.13 15.18 178.423 15.18ZM188.588 15.18C187.441 15.18 186.581 14.8733 186.008 14.26C185.435 13.6467 185.148 12.7733 185.148 11.64V6.54H183.248V5.28H185.148V2.3H186.768V5.28H189.848V6.54H186.768V11.48C186.768 12.24 186.928 12.82 187.248 13.22C187.568 13.6067 188.088 13.8 188.808 13.8C189.021 13.8 189.235 13.7733 189.448 13.72C189.661 13.6667 189.855 13.6133 190.028 13.56L190.308 14.8C190.135 14.8933 189.881 14.98 189.548 15.06C189.215 15.14 188.895 15.18 188.588 15.18ZM197.777 15V13.6H200.997V2.32H201.857L198.457 4.48L197.757 3.26L201.457 0.899999H202.637V13.6H205.657V15H197.777ZM213.946 15V0.899999H215.566V7.44H215.306C215.586 6.66667 216.039 6.08667 216.666 5.7C217.306 5.3 218.039 5.1 218.866 5.1C219.639 5.1 220.279 5.24 220.786 5.52C221.306 5.8 221.692 6.22667 221.946 6.8C222.199 7.36 222.326 8.07333 222.326 8.94V15H220.706V9.04C220.706 8.44 220.626 7.94667 220.466 7.56C220.319 7.17333 220.079 6.88667 219.746 6.7C219.426 6.51333 219.006 6.42 218.486 6.42C217.899 6.42 217.386 6.54667 216.946 6.8C216.506 7.05333 216.166 7.40667 215.926 7.86C215.686 8.31333 215.566 8.84667 215.566 9.46V15H213.946ZM229.353 15.18C228.406 15.18 227.586 14.9733 226.893 14.56C226.2 14.1467 225.66 13.5667 225.273 12.82C224.9 12.06 224.713 11.1667 224.713 10.14C224.713 9.11333 224.9 8.22667 225.273 7.48C225.66 6.72 226.2 6.13333 226.893 5.72C227.586 5.30667 228.406 5.1 229.353 5.1C230.3 5.1 231.12 5.30667 231.813 5.72C232.506 6.13333 233.04 6.72 233.413 7.48C233.8 8.22667 233.993 9.11333 233.993 10.14C233.993 11.1667 233.8 12.06 233.413 12.82C233.04 13.5667 232.506 14.1467 231.813 14.56C231.12 14.9733 230.3 15.18 229.353 15.18ZM229.353 13.88C230.273 13.88 231 13.56 231.533 12.92C232.08 12.2667 232.353 11.3333 232.353 10.12C232.353 8.92 232.08 8 231.533 7.36C231 6.72 230.273 6.4 229.353 6.4C228.446 6.4 227.72 6.72 227.173 7.36C226.626 8 226.353 8.92 226.353 10.12C226.353 11.3333 226.626 12.2667 227.173 12.92C227.72 13.56 228.446 13.88 229.353 13.88ZM239.866 15.18C239.08 15.18 238.426 15.04 237.906 14.76C237.4 14.4667 237.013 14.0333 236.746 13.46C236.493 12.8867 236.366 12.1733 236.366 11.32V5.28H237.986V11.3C237.986 11.8733 238.06 12.3533 238.206 12.74C238.366 13.1133 238.613 13.3933 238.946 13.58C239.28 13.7533 239.693 13.84 240.186 13.84C240.746 13.84 241.233 13.7133 241.646 13.46C242.06 13.2067 242.386 12.8533 242.626 12.4C242.866 11.9467 242.986 11.4133 242.986 10.8V5.28H244.606V15H243.026V12.76H243.286C243.02 13.5467 242.58 14.1467 241.966 14.56C241.366 14.9733 240.666 15.18 239.866 15.18ZM247.637 15V5.28H249.217V7.58H249.017C249.244 6.79333 249.637 6.2 250.197 5.8C250.757 5.38667 251.497 5.14667 252.417 5.08L252.997 5.02L253.117 6.42L252.097 6.54C251.191 6.62 250.491 6.91333 249.997 7.42C249.517 7.91333 249.277 8.59333 249.277 9.46V15H247.637ZM260.462 15V6.54H258.542V5.28H260.902L260.462 5.7V4.94C260.462 3.64667 260.782 2.66667 261.422 2C262.075 1.33333 263.075 0.959999 264.422 0.879999L265.202 0.84L265.342 2.08L264.422 2.14C263.875 2.18 263.429 2.3 263.082 2.5C262.735 2.7 262.482 2.98667 262.322 3.36C262.162 3.73333 262.082 4.19333 262.082 4.74V5.58L261.842 5.28H264.882V6.54H262.082V15H260.462ZM266.602 15V5.28H268.182V7.58H267.982C268.209 6.79333 268.602 6.2 269.162 5.8C269.722 5.38667 270.462 5.14667 271.382 5.08L271.962 5.02L272.082 6.42L271.062 6.54C270.155 6.62 269.455 6.91333 268.962 7.42C268.482 7.91333 268.242 8.59333 268.242 9.46V15H266.602ZM278.033 15.18C277.006 15.18 276.119 14.98 275.373 14.58C274.639 14.1667 274.066 13.5867 273.653 12.84C273.253 12.0933 273.053 11.2 273.053 10.16C273.053 9.14667 273.253 8.26667 273.653 7.52C274.053 6.76 274.599 6.16667 275.293 5.74C275.999 5.31333 276.813 5.1 277.733 5.1C278.613 5.1 279.366 5.29333 279.993 5.68C280.619 6.06667 281.099 6.61333 281.433 7.32C281.779 8.02667 281.953 8.87333 281.953 9.86V10.48H274.293V9.42H280.873L280.553 9.68C280.553 8.61333 280.313 7.78667 279.833 7.2C279.366 6.6 278.679 6.3 277.773 6.3C277.093 6.3 276.513 6.46 276.033 6.78C275.566 7.08667 275.213 7.52 274.973 8.08C274.733 8.62667 274.613 9.26667 274.613 10V10.12C274.613 10.9333 274.739 11.62 274.993 12.18C275.259 12.74 275.653 13.1667 276.173 13.46C276.693 13.74 277.313 13.88 278.033 13.88C278.606 13.88 279.159 13.7933 279.693 13.62C280.239 13.4333 280.753 13.1333 281.233 12.72L281.793 13.86C281.353 14.26 280.793 14.58 280.113 14.82C279.433 15.06 278.739 15.18 278.033 15.18ZM288.677 15.18C287.651 15.18 286.764 14.98 286.017 14.58C285.284 14.1667 284.711 13.5867 284.297 12.84C283.897 12.0933 283.697 11.2 283.697 10.16C283.697 9.14667 283.897 8.26667 284.297 7.52C284.697 6.76 285.244 6.16667 285.937 5.74C286.644 5.31333 287.457 5.1 288.377 5.1C289.257 5.1 290.011 5.29333 290.637 5.68C291.264 6.06667 291.744 6.61333 292.077 7.32C292.424 8.02667 292.597 8.87333 292.597 9.86V10.48H284.937V9.42H291.517L291.197 9.68C291.197 8.61333 290.957 7.78667 290.477 7.2C290.011 6.6 289.324 6.3 288.417 6.3C287.737 6.3 287.157 6.46 286.677 6.78C286.211 7.08667 285.857 7.52 285.617 8.08C285.377 8.62667 285.257 9.26667 285.257 10V10.12C285.257 10.9333 285.384 11.62 285.637 12.18C285.904 12.74 286.297 13.1667 286.817 13.46C287.337 13.74 287.957 13.88 288.677 13.88C289.251 13.88 289.804 13.7933 290.337 13.62C290.884 13.4333 291.397 13.1333 291.877 12.72L292.437 13.86C291.997 14.26 291.437 14.58 290.757 14.82C290.077 15.06 289.384 15.18 288.677 15.18Z" fill="#FCFCFC"/>
</svg>
