<svg width="32" height="32" viewBox="0 0 32 32" fill="none" xmlns="http://www.w3.org/2000/svg">
<path d="M27.7866 2.90625L22.5466 3.94625L26.2 8.66625L28.8266 8.13292L27.7866 2.90625ZM18.6266 4.71958L16 5.23958L19.6666 9.94625L22.28 9.42625L18.6266 4.71958ZM12.0933 5.99958L9.46665 6.54625L13.1333 11.2529L15.7466 10.7329L12.0933 5.99958ZM5.54664 7.33292L4.23998 7.58625C3.89651 7.65398 3.56978 7.78885 3.27854 7.98311C2.98731 8.17738 2.73728 8.42722 2.5428 8.71832C2.34832 9.00942 2.21322 9.33604 2.14524 9.67946C2.07726 10.0229 2.07773 10.3763 2.14664 10.7196L2.66664 13.3329L9.19998 12.0396L5.54664 7.33292ZM26.6666 15.9996V26.6663H5.33331V15.9996H26.6666ZM29.3333 13.3329H2.66664V26.6663C2.66664 27.3735 2.9476 28.0518 3.44769 28.5519C3.94779 29.052 4.62607 29.3329 5.33331 29.3329H26.6666C28.1466 29.3329 29.3333 28.1462 29.3333 26.6663V13.3329Z" fill="#FF8C42"/>
</svg>
