<svg width="319" height="19" viewBox="0 0 319 19" fill="none" xmlns="http://www.w3.org/2000/svg">
<path d="M0.24 15V0.899999H5.88C7.32 0.899999 8.44 1.22 9.24 1.86C10.04 2.5 10.44 3.40667 10.44 4.58C10.44 5.46 10.18 6.19333 9.66 6.78C9.15333 7.36667 8.46 7.75333 7.58 7.94V7.66C8.24667 7.74 8.82 7.93333 9.3 8.24C9.78 8.53333 10.1467 8.92667 10.4 9.42C10.6533 9.9 10.78 10.4667 10.78 11.12C10.78 11.96 10.5933 12.6733 10.22 13.26C9.86 13.8333 9.33333 14.2667 8.64 14.56C7.94667 14.8533 7.10667 15 6.12 15H0.24ZM1.84 13.68H5.96C6.38667 13.68 6.76667 13.6467 7.1 13.58C7.44667 13.5133 7.74667 13.4133 8 13.28C8.25333 13.1333 8.46667 12.96 8.64 12.76C8.81333 12.56 8.94 12.32 9.02 12.04C9.11333 11.76 9.16 11.4467 9.16 11.1C9.16 10.74 9.11333 10.4267 9.02 10.16C8.94 9.88 8.81333 9.64 8.64 9.44C8.46667 9.22667 8.25333 9.05333 8 8.92C7.74667 8.78667 7.44667 8.68667 7.1 8.62C6.76667 8.55333 6.38667 8.52 5.96 8.52H1.84V13.68ZM1.84 7.2H5.64C6.68 7.2 7.46667 6.98667 8 6.56C8.54667 6.13333 8.82 5.52 8.82 4.72C8.82 3.89333 8.54667 3.27333 8 2.86C7.46667 2.43333 6.68 2.22 5.64 2.22H1.84V7.2ZM17.5756 15.18C16.629 15.18 15.809 14.9733 15.1156 14.56C14.4223 14.1467 13.8823 13.5667 13.4956 12.82C13.1223 12.06 12.9356 11.1667 12.9356 10.14C12.9356 9.11333 13.1223 8.22667 13.4956 7.48C13.8823 6.72 14.4223 6.13333 15.1156 5.72C15.809 5.30667 16.629 5.1 17.5756 5.1C18.5223 5.1 19.3423 5.30667 20.0356 5.72C20.729 6.13333 21.2623 6.72 21.6356 7.48C22.0223 8.22667 22.2156 9.11333 22.2156 10.14C22.2156 11.1667 22.0223 12.06 21.6356 12.82C21.2623 13.5667 20.729 14.1467 20.0356 14.56C19.3423 14.9733 18.5223 15.18 17.5756 15.18ZM17.5756 13.88C18.4956 13.88 19.2223 13.56 19.7556 12.92C20.3023 12.2667 20.5756 11.3333 20.5756 10.12C20.5756 8.92 20.3023 8 19.7556 7.36C19.2223 6.72 18.4956 6.4 17.5756 6.4C16.669 6.4 15.9423 6.72 15.3956 7.36C14.849 8 14.5756 8.92 14.5756 10.12C14.5756 11.3333 14.849 12.2667 15.3956 12.92C15.9423 13.56 16.669 13.88 17.5756 13.88ZM28.6889 15.18C27.7422 15.18 26.9222 14.9733 26.2289 14.56C25.5356 14.1467 24.9956 13.5667 24.6089 12.82C24.2356 12.06 24.0489 11.1667 24.0489 10.14C24.0489 9.11333 24.2356 8.22667 24.6089 7.48C24.9956 6.72 25.5356 6.13333 26.2289 5.72C26.9222 5.30667 27.7422 5.1 28.6889 5.1C29.6356 5.1 30.4556 5.30667 31.1489 5.72C31.8422 6.13333 32.3756 6.72 32.7489 7.48C33.1356 8.22667 33.3289 9.11333 33.3289 10.14C33.3289 11.1667 33.1356 12.06 32.7489 12.82C32.3756 13.5667 31.8422 14.1467 31.1489 14.56C30.4556 14.9733 29.6356 15.18 28.6889 15.18ZM28.6889 13.88C29.6089 13.88 30.3356 13.56 30.8689 12.92C31.4156 12.2667 31.6889 11.3333 31.6889 10.12C31.6889 8.92 31.4156 8 30.8689 7.36C30.3356 6.72 29.6089 6.4 28.6889 6.4C27.7822 6.4 27.0556 6.72 26.5089 7.36C25.9622 8 25.6889 8.92 25.6889 10.12C25.6889 11.3333 25.9622 12.2667 26.5089 12.92C27.0556 13.56 27.7822 13.88 28.6889 13.88ZM35.7622 15V0.899999H37.3822V9.6H37.4222L41.9222 5.28H43.9822L38.6422 10.4V9.52L44.4022 15H42.3422L37.4222 10.44H37.3822V15H35.7622ZM51.1789 15V13.76L55.9989 8.56C56.4522 8.06667 56.8189 7.60667 57.0989 7.18C57.3789 6.74 57.5856 6.31333 57.7189 5.9C57.8522 5.48667 57.9189 5.06667 57.9189 4.64C57.9189 3.84 57.6722 3.23333 57.1789 2.82C56.6989 2.39333 55.9922 2.18 55.0589 2.18C54.3389 2.18 53.6656 2.31333 53.0389 2.58C52.4256 2.83333 51.8389 3.23333 51.2789 3.78L50.6589 2.5C51.1789 1.96667 51.8389 1.54 52.6389 1.22C53.4522 0.886666 54.3056 0.719999 55.1989 0.719999C56.1456 0.719999 56.9456 0.866666 57.5989 1.16C58.2522 1.45333 58.7456 1.88667 59.0789 2.46C59.4122 3.02 59.5789 3.70667 59.5789 4.52C59.5789 4.94667 59.5256 5.36667 59.4189 5.78C59.3256 6.18 59.1722 6.58667 58.9589 7C58.7589 7.4 58.4989 7.81333 58.1789 8.24C57.8722 8.66667 57.4989 9.10667 57.0589 9.56L52.8189 14.06V13.6H60.1589V15H51.1789ZM68.0278 15V0.899999H69.6478V7.44H69.3878C69.6678 6.66667 70.1211 6.08667 70.7478 5.7C71.3878 5.3 72.1211 5.1 72.9478 5.1C73.7211 5.1 74.3611 5.24 74.8678 5.52C75.3878 5.8 75.7745 6.22667 76.0278 6.8C76.2811 7.36 76.4078 8.07333 76.4078 8.94V15H74.7878V9.04C74.7878 8.44 74.7078 7.94667 74.5478 7.56C74.4011 7.17333 74.1611 6.88667 73.8278 6.7C73.5078 6.51333 73.0878 6.42 72.5678 6.42C71.9811 6.42 71.4678 6.54667 71.0278 6.8C70.5878 7.05333 70.2478 7.40667 70.0078 7.86C69.7678 8.31333 69.6478 8.84667 69.6478 9.46V15H68.0278ZM83.435 15.18C82.4883 15.18 81.6683 14.9733 80.975 14.56C80.2817 14.1467 79.7417 13.5667 79.355 12.82C78.9817 12.06 78.795 11.1667 78.795 10.14C78.795 9.11333 78.9817 8.22667 79.355 7.48C79.7417 6.72 80.2817 6.13333 80.975 5.72C81.6683 5.30667 82.4883 5.1 83.435 5.1C84.3817 5.1 85.2017 5.30667 85.895 5.72C86.5883 6.13333 87.1217 6.72 87.495 7.48C87.8817 8.22667 88.075 9.11333 88.075 10.14C88.075 11.1667 87.8817 12.06 87.495 12.82C87.1217 13.5667 86.5883 14.1467 85.895 14.56C85.2017 14.9733 84.3817 15.18 83.435 15.18ZM83.435 13.88C84.355 13.88 85.0817 13.56 85.615 12.92C86.1617 12.2667 86.435 11.3333 86.435 10.12C86.435 8.92 86.1617 8 85.615 7.36C85.0817 6.72 84.355 6.4 83.435 6.4C82.5283 6.4 81.8017 6.72 81.255 7.36C80.7083 8 80.435 8.92 80.435 10.12C80.435 11.3333 80.7083 12.2667 81.255 12.92C81.8017 13.56 82.5283 13.88 83.435 13.88ZM93.9483 15.18C93.1616 15.18 92.5083 15.04 91.9883 14.76C91.4816 14.4667 91.0949 14.0333 90.8283 13.46C90.5749 12.8867 90.4483 12.1733 90.4483 11.32V5.28H92.0683V11.3C92.0683 11.8733 92.1416 12.3533 92.2883 12.74C92.4483 13.1133 92.6949 13.3933 93.0283 13.58C93.3616 13.7533 93.7749 13.84 94.2683 13.84C94.8283 13.84 95.3149 13.7133 95.7283 13.46C96.1416 13.2067 96.4683 12.8533 96.7083 12.4C96.9483 11.9467 97.0683 11.4133 97.0683 10.8V5.28H98.6883V15H97.1083V12.76H97.3683C97.1016 13.5467 96.6616 14.1467 96.0483 14.56C95.4483 14.9733 94.7483 15.18 93.9483 15.18ZM101.719 15V5.28H103.299V7.58H103.099C103.326 6.79333 103.719 6.2 104.279 5.8C104.839 5.38667 105.579 5.14667 106.499 5.08L107.079 5.02L107.199 6.42L106.179 6.54C105.273 6.62 104.573 6.91333 104.079 7.42C103.599 7.91333 103.359 8.59333 103.359 9.46V15H101.719ZM117.304 15.18C116.797 15.18 116.304 15.1267 115.824 15.02C115.357 14.9267 114.917 14.7933 114.504 14.62C114.104 14.4333 113.757 14.2133 113.464 13.96L113.984 12.82C114.304 13.0733 114.651 13.2867 115.024 13.46C115.397 13.62 115.777 13.74 116.164 13.82C116.551 13.9 116.944 13.94 117.344 13.94C118.104 13.94 118.677 13.8 119.064 13.52C119.451 13.24 119.644 12.86 119.644 12.38C119.644 12.0067 119.517 11.7133 119.264 11.5C119.011 11.2733 118.611 11.1 118.064 10.98L116.244 10.58C115.404 10.4067 114.777 10.1067 114.364 9.68C113.964 9.25333 113.764 8.7 113.764 8.02C113.764 7.42 113.917 6.90667 114.224 6.48C114.544 6.04 114.991 5.7 115.564 5.46C116.137 5.22 116.804 5.1 117.564 5.1C118.017 5.1 118.451 5.14667 118.864 5.24C119.277 5.33333 119.664 5.47333 120.024 5.66C120.397 5.83333 120.717 6.05333 120.984 6.32L120.444 7.46C120.191 7.22 119.904 7.02 119.584 6.86C119.264 6.68667 118.931 6.56 118.584 6.48C118.251 6.38667 117.911 6.34 117.564 6.34C116.817 6.34 116.251 6.48667 115.864 6.78C115.477 7.07333 115.284 7.46 115.284 7.94C115.284 8.31333 115.404 8.62 115.644 8.86C115.884 9.1 116.257 9.27333 116.764 9.38L118.584 9.76C119.451 9.94667 120.097 10.2467 120.524 10.66C120.964 11.06 121.184 11.6067 121.184 12.3C121.184 12.8867 121.024 13.4 120.704 13.84C120.384 14.2667 119.931 14.6 119.344 14.84C118.771 15.0667 118.091 15.18 117.304 15.18ZM128.033 15.18C127.006 15.18 126.119 14.98 125.373 14.58C124.639 14.1667 124.066 13.5867 123.653 12.84C123.253 12.0933 123.053 11.2 123.053 10.16C123.053 9.14667 123.253 8.26667 123.653 7.52C124.053 6.76 124.599 6.16667 125.293 5.74C125.999 5.31333 126.813 5.1 127.733 5.1C128.613 5.1 129.366 5.29333 129.993 5.68C130.619 6.06667 131.099 6.61333 131.433 7.32C131.779 8.02667 131.953 8.87333 131.953 9.86V10.48H124.293V9.42H130.873L130.553 9.68C130.553 8.61333 130.313 7.78667 129.833 7.2C129.366 6.6 128.679 6.3 127.773 6.3C127.093 6.3 126.513 6.46 126.033 6.78C125.566 7.08667 125.213 7.52 124.973 8.08C124.733 8.62667 124.613 9.26667 124.613 10V10.12C124.613 10.9333 124.739 11.62 124.993 12.18C125.259 12.74 125.653 13.1667 126.173 13.46C126.693 13.74 127.313 13.88 128.033 13.88C128.606 13.88 129.159 13.7933 129.693 13.62C130.239 13.4333 130.753 13.1333 131.233 12.72L131.793 13.86C131.353 14.26 130.793 14.58 130.113 14.82C129.433 15.06 128.739 15.18 128.033 15.18ZM137.577 15.18C137.071 15.18 136.577 15.1267 136.097 15.02C135.631 14.9267 135.191 14.7933 134.777 14.62C134.377 14.4333 134.031 14.2133 133.737 13.96L134.257 12.82C134.577 13.0733 134.924 13.2867 135.297 13.46C135.671 13.62 136.051 13.74 136.437 13.82C136.824 13.9 137.217 13.94 137.617 13.94C138.377 13.94 138.951 13.8 139.337 13.52C139.724 13.24 139.917 12.86 139.917 12.38C139.917 12.0067 139.791 11.7133 139.537 11.5C139.284 11.2733 138.884 11.1 138.337 10.98L136.517 10.58C135.677 10.4067 135.051 10.1067 134.637 9.68C134.237 9.25333 134.037 8.7 134.037 8.02C134.037 7.42 134.191 6.90667 134.497 6.48C134.817 6.04 135.264 5.7 135.837 5.46C136.411 5.22 137.077 5.1 137.837 5.1C138.291 5.1 138.724 5.14667 139.137 5.24C139.551 5.33333 139.937 5.47333 140.297 5.66C140.671 5.83333 140.991 6.05333 141.257 6.32L140.717 7.46C140.464 7.22 140.177 7.02 139.857 6.86C139.537 6.68667 139.204 6.56 138.857 6.48C138.524 6.38667 138.184 6.34 137.837 6.34C137.091 6.34 136.524 6.48667 136.137 6.78C135.751 7.07333 135.557 7.46 135.557 7.94C135.557 8.31333 135.677 8.62 135.917 8.86C136.157 9.1 136.531 9.27333 137.037 9.38L138.857 9.76C139.724 9.94667 140.371 10.2467 140.797 10.66C141.237 11.06 141.457 11.6067 141.457 12.3C141.457 12.8867 141.297 13.4 140.977 13.84C140.657 14.2667 140.204 14.6 139.617 14.84C139.044 15.0667 138.364 15.18 137.577 15.18ZM147.206 15.18C146.7 15.18 146.206 15.1267 145.726 15.02C145.26 14.9267 144.82 14.7933 144.406 14.62C144.006 14.4333 143.66 14.2133 143.366 13.96L143.886 12.82C144.206 13.0733 144.553 13.2867 144.926 13.46C145.3 13.62 145.68 13.74 146.066 13.82C146.453 13.9 146.846 13.94 147.246 13.94C148.006 13.94 148.58 13.8 148.966 13.52C149.353 13.24 149.546 12.86 149.546 12.38C149.546 12.0067 149.42 11.7133 149.166 11.5C148.913 11.2733 148.513 11.1 147.966 10.98L146.146 10.58C145.306 10.4067 144.68 10.1067 144.266 9.68C143.866 9.25333 143.666 8.7 143.666 8.02C143.666 7.42 143.82 6.90667 144.126 6.48C144.446 6.04 144.893 5.7 145.466 5.46C146.04 5.22 146.706 5.1 147.466 5.1C147.92 5.1 148.353 5.14667 148.766 5.24C149.18 5.33333 149.566 5.47333 149.926 5.66C150.3 5.83333 150.62 6.05333 150.886 6.32L150.346 7.46C150.093 7.22 149.806 7.02 149.486 6.86C149.166 6.68667 148.833 6.56 148.486 6.48C148.153 6.38667 147.813 6.34 147.466 6.34C146.72 6.34 146.153 6.48667 145.766 6.78C145.38 7.07333 145.186 7.46 145.186 7.94C145.186 8.31333 145.306 8.62 145.546 8.86C145.786 9.1 146.16 9.27333 146.666 9.38L148.486 9.76C149.353 9.94667 150 10.2467 150.426 10.66C150.866 11.06 151.086 11.6067 151.086 12.3C151.086 12.8867 150.926 13.4 150.606 13.84C150.286 14.2667 149.833 14.6 149.246 14.84C148.673 15.0667 147.993 15.18 147.206 15.18ZM153.355 2.86V1.04H155.355V2.86H153.355ZM153.555 15V5.28H155.175V15H153.555ZM162.244 15.18C161.297 15.18 160.477 14.9733 159.784 14.56C159.09 14.1467 158.55 13.5667 158.164 12.82C157.79 12.06 157.604 11.1667 157.604 10.14C157.604 9.11333 157.79 8.22667 158.164 7.48C158.55 6.72 159.09 6.13333 159.784 5.72C160.477 5.30667 161.297 5.1 162.244 5.1C163.19 5.1 164.01 5.30667 164.704 5.72C165.397 6.13333 165.93 6.72 166.304 7.48C166.69 8.22667 166.884 9.11333 166.884 10.14C166.884 11.1667 166.69 12.06 166.304 12.82C165.93 13.5667 165.397 14.1467 164.704 14.56C164.01 14.9733 163.19 15.18 162.244 15.18ZM162.244 13.88C163.164 13.88 163.89 13.56 164.424 12.92C164.97 12.2667 165.244 11.3333 165.244 10.12C165.244 8.92 164.97 8 164.424 7.36C163.89 6.72 163.164 6.4 162.244 6.4C161.337 6.4 160.61 6.72 160.064 7.36C159.517 8 159.244 8.92 159.244 10.12C159.244 11.3333 159.517 12.2667 160.064 12.92C160.61 13.56 161.337 13.88 162.244 13.88ZM169.317 15V5.28H170.897V7.44H170.677C170.957 6.66667 171.41 6.08667 172.037 5.7C172.677 5.3 173.41 5.1 174.237 5.1C175.01 5.1 175.65 5.24 176.157 5.52C176.677 5.78667 177.064 6.20667 177.317 6.78C177.57 7.35333 177.697 8.07333 177.697 8.94V15H176.077V9.04C176.077 8.44 175.997 7.94667 175.837 7.56C175.69 7.17333 175.45 6.88667 175.117 6.7C174.797 6.51333 174.377 6.42 173.857 6.42C173.27 6.42 172.757 6.54667 172.317 6.8C171.877 7.05333 171.537 7.40667 171.297 7.86C171.057 8.31333 170.937 8.84667 170.937 9.46V15H169.317ZM183.964 15.18C183.457 15.18 182.964 15.1267 182.484 15.02C182.017 14.9267 181.577 14.7933 181.164 14.62C180.764 14.4333 180.417 14.2133 180.124 13.96L180.644 12.82C180.964 13.0733 181.311 13.2867 181.684 13.46C182.057 13.62 182.437 13.74 182.824 13.82C183.211 13.9 183.604 13.94 184.004 13.94C184.764 13.94 185.337 13.8 185.724 13.52C186.111 13.24 186.304 12.86 186.304 12.38C186.304 12.0067 186.177 11.7133 185.924 11.5C185.671 11.2733 185.271 11.1 184.724 10.98L182.904 10.58C182.064 10.4067 181.437 10.1067 181.024 9.68C180.624 9.25333 180.424 8.7 180.424 8.02C180.424 7.42 180.577 6.90667 180.884 6.48C181.204 6.04 181.651 5.7 182.224 5.46C182.797 5.22 183.464 5.1 184.224 5.1C184.677 5.1 185.111 5.14667 185.524 5.24C185.937 5.33333 186.324 5.47333 186.684 5.66C187.057 5.83333 187.377 6.05333 187.644 6.32L187.104 7.46C186.851 7.22 186.564 7.02 186.244 6.86C185.924 6.68667 185.591 6.56 185.244 6.48C184.911 6.38667 184.571 6.34 184.224 6.34C183.477 6.34 182.911 6.48667 182.524 6.78C182.137 7.07333 181.944 7.46 181.944 7.94C181.944 8.31333 182.064 8.62 182.304 8.86C182.544 9.1 182.917 9.27333 183.424 9.38L185.244 9.76C186.111 9.94667 186.757 10.2467 187.184 10.66C187.624 11.06 187.844 11.6067 187.844 12.3C187.844 12.8867 187.684 13.4 187.364 13.84C187.044 14.2667 186.591 14.6 186.004 14.84C185.431 15.0667 184.751 15.18 183.964 15.18ZM198.51 15.18C197.843 15.18 197.243 15.0533 196.71 14.8C196.19 14.5333 195.776 14.1733 195.47 13.72C195.163 13.2667 195.01 12.76 195.01 12.2C195.01 11.48 195.19 10.9133 195.55 10.5C195.923 10.0867 196.53 9.79333 197.37 9.62C198.223 9.44667 199.383 9.36 200.85 9.36H201.75V10.42H200.87C200.056 10.42 199.376 10.4467 198.83 10.5C198.283 10.5533 197.85 10.6467 197.53 10.78C197.21 10.9133 196.983 11.0867 196.85 11.3C196.716 11.5133 196.65 11.78 196.65 12.1C196.65 12.6467 196.836 13.0933 197.21 13.44C197.596 13.7867 198.116 13.96 198.77 13.96C199.303 13.96 199.77 13.8333 200.17 13.58C200.583 13.3267 200.903 12.98 201.13 12.54C201.37 12.1 201.49 11.5933 201.49 11.02V8.74C201.49 7.91333 201.323 7.32 200.99 6.96C200.656 6.58667 200.11 6.4 199.35 6.4C198.763 6.4 198.196 6.48667 197.65 6.66C197.103 6.82 196.543 7.08667 195.97 7.46L195.41 6.28C195.756 6.04 196.15 5.83333 196.59 5.66C197.03 5.47333 197.49 5.33333 197.97 5.24C198.45 5.14667 198.91 5.1 199.35 5.1C200.19 5.1 200.883 5.24 201.43 5.52C201.976 5.78667 202.383 6.2 202.65 6.76C202.916 7.30667 203.05 8.01333 203.05 8.88V15H201.53V12.74H201.71C201.603 13.2467 201.396 13.68 201.09 14.04C200.796 14.4 200.43 14.68 199.99 14.88C199.55 15.08 199.056 15.18 198.51 15.18ZM206.055 15V5.28H207.635V7.44H207.415C207.695 6.66667 208.148 6.08667 208.775 5.7C209.415 5.3 210.148 5.1 210.975 5.1C211.748 5.1 212.388 5.24 212.895 5.52C213.415 5.78667 213.802 6.20667 214.055 6.78C214.308 7.35333 214.435 8.07333 214.435 8.94V15H212.815V9.04C212.815 8.44 212.735 7.94667 212.575 7.56C212.428 7.17333 212.188 6.88667 211.855 6.7C211.535 6.51333 211.115 6.42 210.595 6.42C210.008 6.42 209.495 6.54667 209.055 6.8C208.615 7.05333 208.275 7.40667 208.035 7.86C207.795 8.31333 207.675 8.84667 207.675 9.46V15H206.055ZM221.122 15.18C220.256 15.18 219.496 14.9733 218.842 14.56C218.202 14.1467 217.702 13.5667 217.342 12.82C216.996 12.06 216.822 11.1667 216.822 10.14C216.822 9.1 216.996 8.20667 217.342 7.46C217.702 6.7 218.202 6.12 218.842 5.72C219.496 5.30667 220.256 5.1 221.122 5.1C222.002 5.1 222.756 5.32 223.382 5.76C224.009 6.2 224.429 6.79333 224.642 7.54H224.422V0.899999H226.042V15H224.462V12.68H224.662C224.449 13.44 224.022 14.0467 223.382 14.5C222.756 14.9533 222.002 15.18 221.122 15.18ZM221.462 13.88C222.382 13.88 223.109 13.56 223.642 12.92C224.189 12.2667 224.462 11.34 224.462 10.14C224.462 8.92667 224.189 8 223.642 7.36C223.109 6.72 222.382 6.4 221.462 6.4C220.556 6.4 219.829 6.72 219.282 7.36C218.736 8 218.462 8.92667 218.462 10.14C218.462 11.34 218.736 12.2667 219.282 12.92C219.829 13.56 220.556 13.88 221.462 13.88ZM238.519 18.78C237.679 18.78 236.886 18.6667 236.139 18.44C235.406 18.2267 234.753 17.9 234.179 17.46L234.719 16.28C235.119 16.56 235.513 16.7867 235.899 16.96C236.299 17.1467 236.706 17.28 237.119 17.36C237.546 17.44 237.986 17.48 238.439 17.48C239.386 17.48 240.099 17.2267 240.579 16.72C241.073 16.2133 241.319 15.48 241.319 14.52V12.26H241.519C241.319 13.0333 240.893 13.6467 240.239 14.1C239.599 14.5533 238.846 14.78 237.979 14.78C237.086 14.78 236.313 14.58 235.659 14.18C235.006 13.7667 234.499 13.1933 234.139 12.46C233.793 11.7267 233.619 10.88 233.619 9.92C233.619 8.96 233.793 8.12 234.139 7.4C234.499 6.66667 235.006 6.1 235.659 5.7C236.313 5.3 237.086 5.1 237.979 5.1C238.859 5.1 239.619 5.32667 240.259 5.78C240.899 6.22 241.313 6.82 241.499 7.58H241.319V5.28H242.899V14.3C242.899 15.2867 242.733 16.1133 242.399 16.78C242.079 17.4467 241.593 17.9467 240.939 18.28C240.286 18.6133 239.479 18.78 238.519 18.78ZM238.279 13.46C239.213 13.46 239.953 13.14 240.499 12.5C241.046 11.86 241.319 11 241.319 9.92C241.319 8.84 241.046 7.98667 240.499 7.36C239.953 6.72 239.213 6.4 238.279 6.4C237.359 6.4 236.626 6.72 236.079 7.36C235.533 7.98667 235.259 8.84 235.259 9.92C235.259 11 235.533 11.86 236.079 12.5C236.626 13.14 237.359 13.46 238.279 13.46ZM250.318 15.18C249.291 15.18 248.405 14.98 247.658 14.58C246.925 14.1667 246.351 13.5867 245.938 12.84C245.538 12.0933 245.338 11.2 245.338 10.16C245.338 9.14667 245.538 8.26667 245.938 7.52C246.338 6.76 246.885 6.16667 247.578 5.74C248.285 5.31333 249.098 5.1 250.018 5.1C250.898 5.1 251.651 5.29333 252.278 5.68C252.905 6.06667 253.385 6.61333 253.718 7.32C254.065 8.02667 254.238 8.87333 254.238 9.86V10.48H246.578V9.42H253.158L252.838 9.68C252.838 8.61333 252.598 7.78667 252.118 7.2C251.651 6.6 250.965 6.3 250.058 6.3C249.378 6.3 248.798 6.46 248.318 6.78C247.851 7.08667 247.498 7.52 247.258 8.08C247.018 8.62667 246.898 9.26667 246.898 10V10.12C246.898 10.9333 247.025 11.62 247.278 12.18C247.545 12.74 247.938 13.1667 248.458 13.46C248.978 13.74 249.598 13.88 250.318 13.88C250.891 13.88 251.445 13.7933 251.978 13.62C252.525 13.4333 253.038 13.1333 253.518 12.72L254.078 13.86C253.638 14.26 253.078 14.58 252.398 14.82C251.718 15.06 251.025 15.18 250.318 15.18ZM260.483 15.18C259.336 15.18 258.476 14.8733 257.903 14.26C257.329 13.6467 257.043 12.7733 257.043 11.64V6.54H255.143V5.28H257.043V2.3H258.663V5.28H261.743V6.54H258.663V11.48C258.663 12.24 258.823 12.82 259.143 13.22C259.463 13.6067 259.983 13.8 260.703 13.8C260.916 13.8 261.129 13.7733 261.343 13.72C261.556 13.6667 261.749 13.6133 261.923 13.56L262.203 14.8C262.029 14.8933 261.776 14.98 261.443 15.06C261.109 15.14 260.789 15.18 260.483 15.18ZM269.671 15V13.6H272.891V2.32H273.751L270.351 4.48L269.651 3.26L273.351 0.899999H274.531V13.6H277.551V15H269.671ZM286.36 15V6.54H284.44V5.28H286.8L286.36 5.7V4.94C286.36 3.64667 286.68 2.66667 287.32 2C287.974 1.33333 288.974 0.959999 290.32 0.879999L291.1 0.84L291.24 2.08L290.32 2.14C289.774 2.18 289.327 2.3 288.98 2.5C288.634 2.7 288.38 2.98667 288.22 3.36C288.06 3.73333 287.98 4.19333 287.98 4.74V5.58L287.74 5.28H290.78V6.54H287.98V15H286.36ZM292.5 15V5.28H294.08V7.58H293.88C294.107 6.79333 294.5 6.2 295.06 5.8C295.62 5.38667 296.36 5.14667 297.28 5.08L297.86 5.02L297.98 6.42L296.96 6.54C296.054 6.62 295.354 6.91333 294.86 7.42C294.38 7.91333 294.14 8.59333 294.14 9.46V15H292.5ZM303.931 15.18C302.905 15.18 302.018 14.98 301.271 14.58C300.538 14.1667 299.965 13.5867 299.551 12.84C299.151 12.0933 298.951 11.2 298.951 10.16C298.951 9.14667 299.151 8.26667 299.551 7.52C299.951 6.76 300.498 6.16667 301.191 5.74C301.898 5.31333 302.711 5.1 303.631 5.1C304.511 5.1 305.265 5.29333 305.891 5.68C306.518 6.06667 306.998 6.61333 307.331 7.32C307.678 8.02667 307.851 8.87333 307.851 9.86V10.48H300.191V9.42H306.771L306.451 9.68C306.451 8.61333 306.211 7.78667 305.731 7.2C305.265 6.6 304.578 6.3 303.671 6.3C302.991 6.3 302.411 6.46 301.931 6.78C301.465 7.08667 301.111 7.52 300.871 8.08C300.631 8.62667 300.511 9.26667 300.511 10V10.12C300.511 10.9333 300.638 11.62 300.891 12.18C301.158 12.74 301.551 13.1667 302.071 13.46C302.591 13.74 303.211 13.88 303.931 13.88C304.505 13.88 305.058 13.7933 305.591 13.62C306.138 13.4333 306.651 13.1333 307.131 12.72L307.691 13.86C307.251 14.26 306.691 14.58 306.011 14.82C305.331 15.06 304.638 15.18 303.931 15.18ZM314.576 15.18C313.549 15.18 312.662 14.98 311.916 14.58C311.182 14.1667 310.609 13.5867 310.196 12.84C309.796 12.0933 309.596 11.2 309.596 10.16C309.596 9.14667 309.796 8.26667 310.196 7.52C310.596 6.76 311.142 6.16667 311.836 5.74C312.542 5.31333 313.356 5.1 314.276 5.1C315.156 5.1 315.909 5.29333 316.536 5.68C317.162 6.06667 317.642 6.61333 317.976 7.32C318.322 8.02667 318.496 8.87333 318.496 9.86V10.48H310.836V9.42H317.416L317.096 9.68C317.096 8.61333 316.856 7.78667 316.376 7.2C315.909 6.6 315.222 6.3 314.316 6.3C313.636 6.3 313.056 6.46 312.576 6.78C312.109 7.08667 311.756 7.52 311.516 8.08C311.276 8.62667 311.156 9.26667 311.156 10V10.12C311.156 10.9333 311.282 11.62 311.536 12.18C311.802 12.74 312.196 13.1667 312.716 13.46C313.236 13.74 313.856 13.88 314.576 13.88C315.149 13.88 315.702 13.7933 316.236 13.62C316.782 13.4333 317.296 13.1333 317.776 12.72L318.336 13.86C317.896 14.26 317.336 14.58 316.656 14.82C315.976 15.06 315.282 15.18 314.576 15.18Z" fill="#FCFCFC"/>
</svg>
