<svg width="379" height="19" viewBox="0 0 379 19" fill="none" xmlns="http://www.w3.org/2000/svg">
<path d="M5.8 15.18C5.06667 15.18 4.37333 15.1133 3.72 14.98C3.08 14.8467 2.48667 14.66 1.94 14.42C1.40667 14.1667 0.92 13.86 0.48 13.5L1.06 12.18C1.51333 12.5133 1.97333 12.8 2.44 13.04C2.92 13.2667 3.43333 13.44 3.98 13.56C4.54 13.6667 5.14667 13.72 5.8 13.72C7 13.72 7.88667 13.5 8.46 13.06C9.04667 12.6067 9.34 12.0133 9.34 11.28C9.34 10.8933 9.24667 10.56 9.06 10.28C8.88667 10 8.59333 9.76 8.18 9.56C7.78 9.36 7.25333 9.19333 6.6 9.06L4.52 8.64C3.26667 8.37333 2.32667 7.94 1.7 7.34C1.08667 6.72667 0.78 5.91333 0.78 4.9C0.78 4.06 0.993333 3.32667 1.42 2.7C1.86 2.07333 2.46667 1.58667 3.24 1.24C4.02667 0.893333 4.92 0.719999 5.92 0.719999C6.56 0.719999 7.16667 0.786666 7.74 0.919999C8.31333 1.05333 8.84 1.25333 9.32 1.52C9.81333 1.77333 10.2467 2.08667 10.62 2.46L10.04 3.74C9.44 3.19333 8.80667 2.8 8.14 2.56C7.47333 2.30667 6.72667 2.18 5.9 2.18C5.19333 2.18 4.58 2.28667 4.06 2.5C3.55333 2.71333 3.15333 3.02667 2.86 3.44C2.58 3.84 2.44 4.30667 2.44 4.84C2.44 5.48 2.63333 5.98667 3.02 6.36C3.42 6.73333 4.06667 7.00667 4.96 7.18L7.04 7.62C8.38667 7.9 9.38 8.32667 10.02 8.9C10.6733 9.46 11 10.2267 11 11.2C11 11.9733 10.7867 12.6667 10.36 13.28C9.94667 13.88 9.34667 14.3467 8.56 14.68C7.78667 15.0133 6.86667 15.18 5.8 15.18ZM16.3847 15.18C15.718 15.18 15.118 15.0533 14.5847 14.8C14.0647 14.5333 13.6514 14.1733 13.3447 13.72C13.038 13.2667 12.8847 12.76 12.8847 12.2C12.8847 11.48 13.0647 10.9133 13.4247 10.5C13.798 10.0867 14.4047 9.79333 15.2447 9.62C16.098 9.44667 17.258 9.36 18.7247 9.36H19.6247V10.42H18.7447C17.9314 10.42 17.2514 10.4467 16.7047 10.5C16.158 10.5533 15.7247 10.6467 15.4047 10.78C15.0847 10.9133 14.858 11.0867 14.7247 11.3C14.5914 11.5133 14.5247 11.78 14.5247 12.1C14.5247 12.6467 14.7114 13.0933 15.0847 13.44C15.4714 13.7867 15.9914 13.96 16.6447 13.96C17.178 13.96 17.6447 13.8333 18.0447 13.58C18.458 13.3267 18.778 12.98 19.0047 12.54C19.2447 12.1 19.3647 11.5933 19.3647 11.02V8.74C19.3647 7.91333 19.198 7.32 18.8647 6.96C18.5314 6.58667 17.9847 6.4 17.2247 6.4C16.638 6.4 16.0714 6.48667 15.5247 6.66C14.978 6.82 14.418 7.08667 13.8447 7.46L13.2847 6.28C13.6314 6.04 14.0247 5.83333 14.4647 5.66C14.9047 5.47333 15.3647 5.33333 15.8447 5.24C16.3247 5.14667 16.7847 5.1 17.2247 5.1C18.0647 5.1 18.758 5.24 19.3047 5.52C19.8514 5.78667 20.258 6.2 20.5247 6.76C20.7914 7.30667 20.9247 8.01333 20.9247 8.88V15H19.4047V12.74H19.5847C19.478 13.2467 19.2714 13.68 18.9647 14.04C18.6714 14.4 18.3047 14.68 17.8647 14.88C17.4247 15.08 16.9314 15.18 16.3847 15.18ZM26.6925 15L22.5125 5.28H24.2725L27.7525 13.8H27.2125L30.7525 5.28H32.4125L28.2125 15H26.6925ZM38.3688 15.18C37.3421 15.18 36.4554 14.98 35.7088 14.58C34.9754 14.1667 34.4021 13.5867 33.9888 12.84C33.5888 12.0933 33.3888 11.2 33.3888 10.16C33.3888 9.14667 33.5888 8.26667 33.9888 7.52C34.3888 6.76 34.9354 6.16667 35.6288 5.74C36.3354 5.31333 37.1488 5.1 38.0688 5.1C38.9488 5.1 39.7021 5.29333 40.3288 5.68C40.9554 6.06667 41.4354 6.61333 41.7688 7.32C42.1154 8.02667 42.2888 8.87333 42.2888 9.86V10.48H34.6288V9.42H41.2088L40.8888 9.68C40.8888 8.61333 40.6488 7.78667 40.1688 7.2C39.7021 6.6 39.0154 6.3 38.1088 6.3C37.4288 6.3 36.8488 6.46 36.3688 6.78C35.9021 7.08667 35.5488 7.52 35.3088 8.08C35.0688 8.62667 34.9488 9.26667 34.9488 10V10.12C34.9488 10.9333 35.0754 11.62 35.3288 12.18C35.5954 12.74 35.9888 13.1667 36.5088 13.46C37.0288 13.74 37.6488 13.88 38.3688 13.88C38.9421 13.88 39.4954 13.7933 40.0288 13.62C40.5754 13.4333 41.0888 13.1333 41.5688 12.72L42.1288 13.86C41.6888 14.26 41.1288 14.58 40.4488 14.82C39.7688 15.06 39.0754 15.18 38.3688 15.18ZM50.73 15V13.6H53.95V2.32H54.81L51.41 4.48L50.71 3.26L54.41 0.899999H55.59V13.6H58.61V15H50.73ZM66.2422 15.18C65.1755 15.18 64.2689 14.9067 63.5222 14.36C62.7889 13.8 62.2355 12.98 61.8622 11.9C61.4889 10.82 61.3022 9.5 61.3022 7.94C61.3022 6.36667 61.4889 5.04667 61.8622 3.98C62.2355 2.9 62.7889 2.08667 63.5222 1.54C64.2689 0.993332 65.1755 0.719999 66.2422 0.719999C67.3222 0.719999 68.2289 0.993332 68.9622 1.54C69.6955 2.08667 70.2489 2.89333 70.6222 3.96C70.9955 5.02667 71.1822 6.34667 71.1822 7.92C71.1822 9.49333 70.9955 10.82 70.6222 11.9C70.2489 12.98 69.6955 13.8 68.9622 14.36C68.2289 14.9067 67.3222 15.18 66.2422 15.18ZM66.2422 13.76C67.3622 13.76 68.1889 13.2867 68.7222 12.34C69.2689 11.3933 69.5422 9.92 69.5422 7.92C69.5422 5.92 69.2755 4.46 68.7422 3.54C68.2089 2.60667 67.3755 2.14 66.2422 2.14C65.1355 2.14 64.3089 2.60667 63.7622 3.54C63.2155 4.47333 62.9422 5.93333 62.9422 7.92C62.9422 9.92 63.2089 11.3933 63.7422 12.34C64.2889 13.2867 65.1222 13.76 66.2422 13.76ZM77.9544 15.5L76.8144 14.84L85.1144 0.4L86.2344 1.06L77.9544 15.5ZM76.7544 9.36C76.0477 9.36 75.4344 9.19333 74.9144 8.86C74.4077 8.51333 74.021 8.02 73.7544 7.38C73.4877 6.72667 73.3544 5.94667 73.3544 5.04C73.3544 3.68 73.6544 2.62667 74.2544 1.88C74.8544 1.12 75.6877 0.739999 76.7544 0.739999C77.461 0.739999 78.0677 0.913332 78.5744 1.26C79.081 1.59333 79.4677 2.08 79.7344 2.72C80.0144 3.36 80.1544 4.13333 80.1544 5.04C80.1544 5.94667 80.0144 6.72 79.7344 7.36C79.4677 8 79.081 8.49333 78.5744 8.84C78.0677 9.18667 77.461 9.36 76.7544 9.36ZM76.7544 8.18C77.3677 8.18 77.8544 7.92 78.2144 7.4C78.5744 6.86667 78.7544 6.08 78.7544 5.04C78.7544 4 78.5744 3.22 78.2144 2.7C77.8544 2.18 77.3677 1.92 76.7544 1.92C76.1277 1.92 75.6344 2.18 75.2744 2.7C74.9277 3.22 74.7544 4 74.7544 5.04C74.7544 6.08 74.9277 6.86667 75.2744 7.4C75.6344 7.92 76.1277 8.18 76.7544 8.18ZM86.3144 15.18C85.621 15.18 85.0144 15.0133 84.4944 14.68C83.9877 14.3333 83.5944 13.84 83.3144 13.2C83.0477 12.5467 82.9144 11.7667 82.9144 10.86C82.9144 9.5 83.2144 8.44667 83.8144 7.7C84.4277 6.94 85.261 6.56 86.3144 6.56C87.021 6.56 87.6277 6.73333 88.1344 7.08C88.641 7.41333 89.0277 7.9 89.2944 8.54C89.5744 9.18 89.7144 9.95333 89.7144 10.86C89.7144 11.7667 89.581 12.5467 89.3144 13.2C89.0477 13.84 88.661 14.3333 88.1544 14.68C87.6477 15.0133 87.0344 15.18 86.3144 15.18ZM86.3144 14C86.941 14 87.4277 13.74 87.7744 13.22C88.1344 12.6867 88.3144 11.9 88.3144 10.86C88.3144 9.82 88.1344 9.04 87.7744 8.52C87.4277 8 86.941 7.74 86.3144 7.74C85.701 7.74 85.2144 8 84.8544 8.52C84.5077 9.04 84.3344 9.82 84.3344 10.86C84.3344 11.9133 84.5077 12.7 84.8544 13.22C85.2144 13.74 85.701 14 86.3144 14ZM101.525 15.18C100.578 15.18 99.7582 14.9733 99.0648 14.56C98.3715 14.1467 97.8315 13.5667 97.4448 12.82C97.0715 12.06 96.8848 11.1667 96.8848 10.14C96.8848 9.11333 97.0715 8.22667 97.4448 7.48C97.8315 6.72 98.3715 6.13333 99.0648 5.72C99.7582 5.30667 100.578 5.1 101.525 5.1C102.472 5.1 103.292 5.30667 103.985 5.72C104.678 6.13333 105.212 6.72 105.585 7.48C105.972 8.22667 106.165 9.11333 106.165 10.14C106.165 11.1667 105.972 12.06 105.585 12.82C105.212 13.5667 104.678 14.1467 103.985 14.56C103.292 14.9733 102.472 15.18 101.525 15.18ZM101.525 13.88C102.445 13.88 103.172 13.56 103.705 12.92C104.252 12.2667 104.525 11.3333 104.525 10.12C104.525 8.92 104.252 8 103.705 7.36C103.172 6.72 102.445 6.4 101.525 6.4C100.618 6.4 99.8915 6.72 99.3448 7.36C98.7982 8 98.5248 8.92 98.5248 10.12C98.5248 11.3333 98.7982 12.2667 99.3448 12.92C99.8915 13.56 100.618 13.88 101.525 13.88ZM108.598 15V5.28H110.178V7.44H109.958C110.238 6.66667 110.691 6.08667 111.318 5.7C111.958 5.3 112.691 5.1 113.518 5.1C114.291 5.1 114.931 5.24 115.438 5.52C115.958 5.78667 116.345 6.20667 116.598 6.78C116.851 7.35333 116.978 8.07333 116.978 8.94V15H115.358V9.04C115.358 8.44 115.278 7.94667 115.118 7.56C114.971 7.17333 114.731 6.88667 114.398 6.7C114.078 6.51333 113.658 6.42 113.138 6.42C112.551 6.42 112.038 6.54667 111.598 6.8C111.158 7.05333 110.818 7.40667 110.578 7.86C110.338 8.31333 110.218 8.84667 110.218 9.46V15H108.598ZM125.322 15V0.899999H126.962V7.14H135.422V0.899999H137.062V15H135.422V8.56H126.962V15H125.322ZM144.357 15.18C143.41 15.18 142.59 14.9733 141.897 14.56C141.204 14.1467 140.664 13.5667 140.277 12.82C139.904 12.06 139.717 11.1667 139.717 10.14C139.717 9.11333 139.904 8.22667 140.277 7.48C140.664 6.72 141.204 6.13333 141.897 5.72C142.59 5.30667 143.41 5.1 144.357 5.1C145.304 5.1 146.124 5.30667 146.817 5.72C147.51 6.13333 148.044 6.72 148.417 7.48C148.804 8.22667 148.997 9.11333 148.997 10.14C148.997 11.1667 148.804 12.06 148.417 12.82C148.044 13.5667 147.51 14.1467 146.817 14.56C146.124 14.9733 145.304 15.18 144.357 15.18ZM144.357 13.88C145.277 13.88 146.004 13.56 146.537 12.92C147.084 12.2667 147.357 11.3333 147.357 10.12C147.357 8.92 147.084 8 146.537 7.36C146.004 6.72 145.277 6.4 144.357 6.4C143.45 6.4 142.724 6.72 142.177 7.36C141.63 8 141.357 8.92 141.357 10.12C141.357 11.3333 141.63 12.2667 142.177 12.92C142.724 13.56 143.45 13.88 144.357 13.88ZM154.87 15.18C154.083 15.18 153.43 15.04 152.91 14.76C152.403 14.4667 152.017 14.0333 151.75 13.46C151.497 12.8867 151.37 12.1733 151.37 11.32V5.28H152.99V11.3C152.99 11.8733 153.063 12.3533 153.21 12.74C153.37 13.1133 153.617 13.3933 153.95 13.58C154.283 13.7533 154.697 13.84 155.19 13.84C155.75 13.84 156.237 13.7133 156.65 13.46C157.063 13.2067 157.39 12.8533 157.63 12.4C157.87 11.9467 157.99 11.4133 157.99 10.8V5.28H159.61V15H158.03V12.76H158.29C158.023 13.5467 157.583 14.1467 156.97 14.56C156.37 14.9733 155.67 15.18 154.87 15.18ZM162.641 15V5.28H164.221V7.58H164.021C164.248 6.79333 164.641 6.2 165.201 5.8C165.761 5.38667 166.501 5.14667 167.421 5.08L168.001 5.02L168.121 6.42L167.101 6.54C166.194 6.62 165.494 6.91333 165.001 7.42C164.521 7.91333 164.281 8.59333 164.281 9.46V15H162.641ZM172.789 15.18C171.802 15.18 171.056 14.8867 170.549 14.3C170.056 13.7133 169.809 12.8733 169.809 11.78V0.899999H171.429V11.66C171.429 12.1267 171.489 12.52 171.609 12.84C171.742 13.16 171.936 13.4 172.189 13.56C172.442 13.72 172.756 13.8 173.129 13.8C173.289 13.8 173.442 13.7933 173.589 13.78C173.749 13.7533 173.896 13.72 174.029 13.68L173.989 15.04C173.776 15.08 173.569 15.1133 173.369 15.14C173.182 15.1667 172.989 15.18 172.789 15.18ZM176.632 18.6L178.452 14.5V15.2L174.192 5.28H175.952L179.432 13.8H178.892L182.412 5.28H184.112L178.332 18.6H176.632ZM191.142 15V0.899999H196.722C197.736 0.899999 198.589 1.06667 199.282 1.4C199.989 1.72 200.522 2.2 200.882 2.84C201.242 3.46667 201.422 4.23333 201.422 5.14C201.422 6.02 201.242 6.78 200.882 7.42C200.522 8.06 199.989 8.54667 199.282 8.88C198.589 9.21333 197.736 9.38 196.722 9.38H192.782V15H191.142ZM192.782 8H196.522C197.602 8 198.416 7.76 198.962 7.28C199.522 6.78667 199.802 6.07333 199.802 5.14C199.802 4.19333 199.522 3.48 198.962 3C198.416 2.50667 197.602 2.26 196.522 2.26H192.782V8ZM206.15 15.18C205.484 15.18 204.884 15.0533 204.35 14.8C203.83 14.5333 203.417 14.1733 203.11 13.72C202.804 13.2667 202.65 12.76 202.65 12.2C202.65 11.48 202.83 10.9133 203.19 10.5C203.564 10.0867 204.17 9.79333 205.01 9.62C205.864 9.44667 207.024 9.36 208.49 9.36H209.39V10.42H208.51C207.697 10.42 207.017 10.4467 206.47 10.5C205.924 10.5533 205.49 10.6467 205.17 10.78C204.85 10.9133 204.624 11.0867 204.49 11.3C204.357 11.5133 204.29 11.78 204.29 12.1C204.29 12.6467 204.477 13.0933 204.85 13.44C205.237 13.7867 205.757 13.96 206.41 13.96C206.944 13.96 207.41 13.8333 207.81 13.58C208.224 13.3267 208.544 12.98 208.77 12.54C209.01 12.1 209.13 11.5933 209.13 11.02V8.74C209.13 7.91333 208.964 7.32 208.63 6.96C208.297 6.58667 207.75 6.4 206.99 6.4C206.404 6.4 205.837 6.48667 205.29 6.66C204.744 6.82 204.184 7.08667 203.61 7.46L203.05 6.28C203.397 6.04 203.79 5.83333 204.23 5.66C204.67 5.47333 205.13 5.33333 205.61 5.24C206.09 5.14667 206.55 5.1 206.99 5.1C207.83 5.1 208.524 5.24 209.07 5.52C209.617 5.78667 210.024 6.2 210.29 6.76C210.557 7.30667 210.69 8.01333 210.69 8.88V15H209.17V12.74H209.35C209.244 13.2467 209.037 13.68 208.73 14.04C208.437 14.4 208.07 14.68 207.63 14.88C207.19 15.08 206.697 15.18 206.15 15.18ZM217.816 15.18C216.842 15.18 216.002 14.9667 215.296 14.54C214.589 14.1133 214.042 13.52 213.656 12.76C213.282 11.9867 213.096 11.0933 213.096 10.08C213.096 9.05333 213.282 8.16667 213.656 7.42C214.042 6.67333 214.589 6.1 215.296 5.7C216.002 5.3 216.842 5.1 217.816 5.1C218.416 5.1 219.009 5.20667 219.596 5.42C220.182 5.63333 220.669 5.93333 221.056 6.32L220.496 7.5C220.109 7.12667 219.682 6.85333 219.216 6.68C218.762 6.50667 218.329 6.42 217.916 6.42C216.902 6.42 216.122 6.74 215.576 7.38C215.029 8.00667 214.756 8.91333 214.756 10.1C214.756 11.26 215.029 12.18 215.576 12.86C216.122 13.5267 216.902 13.86 217.916 13.86C218.329 13.86 218.762 13.7733 219.216 13.6C219.682 13.4267 220.109 13.1467 220.496 12.76L221.056 13.94C220.669 14.3267 220.176 14.6333 219.576 14.86C218.989 15.0733 218.402 15.18 217.816 15.18ZM222.954 15V0.899999H224.574V9.6H224.614L229.114 5.28H231.174L225.834 10.4V9.52L231.594 15H229.534L224.614 10.44H224.574V15H222.954ZM235.916 15.18C235.249 15.18 234.649 15.0533 234.116 14.8C233.596 14.5333 233.183 14.1733 232.876 13.72C232.569 13.2667 232.416 12.76 232.416 12.2C232.416 11.48 232.596 10.9133 232.956 10.5C233.329 10.0867 233.936 9.79333 234.776 9.62C235.629 9.44667 236.789 9.36 238.256 9.36H239.156V10.42H238.276C237.463 10.42 236.783 10.4467 236.236 10.5C235.689 10.5533 235.256 10.6467 234.936 10.78C234.616 10.9133 234.389 11.0867 234.256 11.3C234.123 11.5133 234.056 11.78 234.056 12.1C234.056 12.6467 234.243 13.0933 234.616 13.44C235.003 13.7867 235.523 13.96 236.176 13.96C236.709 13.96 237.176 13.8333 237.576 13.58C237.989 13.3267 238.309 12.98 238.536 12.54C238.776 12.1 238.896 11.5933 238.896 11.02V8.74C238.896 7.91333 238.729 7.32 238.396 6.96C238.063 6.58667 237.516 6.4 236.756 6.4C236.169 6.4 235.603 6.48667 235.056 6.66C234.509 6.82 233.949 7.08667 233.376 7.46L232.816 6.28C233.163 6.04 233.556 5.83333 233.996 5.66C234.436 5.47333 234.896 5.33333 235.376 5.24C235.856 5.14667 236.316 5.1 236.756 5.1C237.596 5.1 238.289 5.24 238.836 5.52C239.383 5.78667 239.789 6.2 240.056 6.76C240.323 7.30667 240.456 8.01333 240.456 8.88V15H238.936V12.74H239.116C239.009 13.2467 238.803 13.68 238.496 14.04C238.203 14.4 237.836 14.68 237.396 14.88C236.956 15.08 236.463 15.18 235.916 15.18ZM247.761 18.78C246.921 18.78 246.128 18.6667 245.381 18.44C244.648 18.2267 243.995 17.9 243.421 17.46L243.961 16.28C244.361 16.56 244.755 16.7867 245.141 16.96C245.541 17.1467 245.948 17.28 246.361 17.36C246.788 17.44 247.228 17.48 247.681 17.48C248.628 17.48 249.341 17.2267 249.821 16.72C250.315 16.2133 250.561 15.48 250.561 14.52V12.26H250.761C250.561 13.0333 250.135 13.6467 249.481 14.1C248.841 14.5533 248.088 14.78 247.221 14.78C246.328 14.78 245.555 14.58 244.901 14.18C244.248 13.7667 243.741 13.1933 243.381 12.46C243.035 11.7267 242.861 10.88 242.861 9.92C242.861 8.96 243.035 8.12 243.381 7.4C243.741 6.66667 244.248 6.1 244.901 5.7C245.555 5.3 246.328 5.1 247.221 5.1C248.101 5.1 248.861 5.32667 249.501 5.78C250.141 6.22 250.555 6.82 250.741 7.58H250.561V5.28H252.141V14.3C252.141 15.2867 251.975 16.1133 251.641 16.78C251.321 17.4467 250.835 17.9467 250.181 18.28C249.528 18.6133 248.721 18.78 247.761 18.78ZM247.521 13.46C248.455 13.46 249.195 13.14 249.741 12.5C250.288 11.86 250.561 11 250.561 9.92C250.561 8.84 250.288 7.98667 249.741 7.36C249.195 6.72 248.455 6.4 247.521 6.4C246.601 6.4 245.868 6.72 245.321 7.36C244.775 7.98667 244.501 8.84 244.501 9.92C244.501 11 244.775 11.86 245.321 12.5C245.868 13.14 246.601 13.46 247.521 13.46ZM259.56 15.18C258.533 15.18 257.647 14.98 256.9 14.58C256.167 14.1667 255.593 13.5867 255.18 12.84C254.78 12.0933 254.58 11.2 254.58 10.16C254.58 9.14667 254.78 8.26667 255.18 7.52C255.58 6.76 256.127 6.16667 256.82 5.74C257.527 5.31333 258.34 5.1 259.26 5.1C260.14 5.1 260.893 5.29333 261.52 5.68C262.147 6.06667 262.627 6.61333 262.96 7.32C263.307 8.02667 263.48 8.87333 263.48 9.86V10.48H255.82V9.42H262.4L262.08 9.68C262.08 8.61333 261.84 7.78667 261.36 7.2C260.893 6.6 260.207 6.3 259.3 6.3C258.62 6.3 258.04 6.46 257.56 6.78C257.093 7.08667 256.74 7.52 256.5 8.08C256.26 8.62667 256.14 9.26667 256.14 10V10.12C256.14 10.9333 256.267 11.62 256.52 12.18C256.787 12.74 257.18 13.1667 257.7 13.46C258.22 13.74 258.84 13.88 259.56 13.88C260.133 13.88 260.687 13.7933 261.22 13.62C261.767 13.4333 262.28 13.1333 262.76 12.72L263.32 13.86C262.88 14.26 262.32 14.58 261.64 14.82C260.96 15.06 260.267 15.18 259.56 15.18ZM269.105 15.18C268.598 15.18 268.105 15.1267 267.625 15.02C267.158 14.9267 266.718 14.7933 266.305 14.62C265.905 14.4333 265.558 14.2133 265.265 13.96L265.785 12.82C266.105 13.0733 266.451 13.2867 266.825 13.46C267.198 13.62 267.578 13.74 267.965 13.82C268.351 13.9 268.745 13.94 269.145 13.94C269.905 13.94 270.478 13.8 270.865 13.52C271.251 13.24 271.445 12.86 271.445 12.38C271.445 12.0067 271.318 11.7133 271.065 11.5C270.811 11.2733 270.411 11.1 269.865 10.98L268.045 10.58C267.205 10.4067 266.578 10.1067 266.165 9.68C265.765 9.25333 265.565 8.7 265.565 8.02C265.565 7.42 265.718 6.90667 266.025 6.48C266.345 6.04 266.791 5.7 267.365 5.46C267.938 5.22 268.605 5.1 269.365 5.1C269.818 5.1 270.251 5.14667 270.665 5.24C271.078 5.33333 271.465 5.47333 271.825 5.66C272.198 5.83333 272.518 6.05333 272.785 6.32L272.245 7.46C271.991 7.22 271.705 7.02 271.385 6.86C271.065 6.68667 270.731 6.56 270.385 6.48C270.051 6.38667 269.711 6.34 269.365 6.34C268.618 6.34 268.051 6.48667 267.665 6.78C267.278 7.07333 267.085 7.46 267.085 7.94C267.085 8.31333 267.205 8.62 267.445 8.86C267.685 9.1 268.058 9.27333 268.565 9.38L270.385 9.76C271.251 9.94667 271.898 10.2467 272.325 10.66C272.765 11.06 272.985 11.6067 272.985 12.3C272.985 12.8867 272.825 13.4 272.505 13.84C272.185 14.2667 271.731 14.6 271.145 14.84C270.571 15.0667 269.891 15.18 269.105 15.18ZM284.27 15V2.32H279.15V0.899999H291.05V2.32H285.93V15H284.27ZM292.622 15V0.899999H294.242V7.44H293.982C294.262 6.66667 294.715 6.08667 295.342 5.7C295.982 5.3 296.715 5.1 297.542 5.1C298.315 5.1 298.955 5.24 299.462 5.52C299.982 5.8 300.368 6.22667 300.622 6.8C300.875 7.36 301.002 8.07333 301.002 8.94V15H299.382V9.04C299.382 8.44 299.302 7.94667 299.142 7.56C298.995 7.17333 298.755 6.88667 298.422 6.7C298.102 6.51333 297.682 6.42 297.162 6.42C296.575 6.42 296.062 6.54667 295.622 6.8C295.182 7.05333 294.842 7.40667 294.602 7.86C294.362 8.31333 294.242 8.84667 294.242 9.46V15H292.622ZM303.789 2.86V1.04H305.789V2.86H303.789ZM303.989 15V5.28H305.609V15H303.989ZM311.917 15.18C311.411 15.18 310.917 15.1267 310.437 15.02C309.971 14.9267 309.531 14.7933 309.117 14.62C308.717 14.4333 308.371 14.2133 308.077 13.96L308.597 12.82C308.917 13.0733 309.264 13.2867 309.637 13.46C310.011 13.62 310.391 13.74 310.777 13.82C311.164 13.9 311.557 13.94 311.957 13.94C312.717 13.94 313.291 13.8 313.677 13.52C314.064 13.24 314.257 12.86 314.257 12.38C314.257 12.0067 314.131 11.7133 313.877 11.5C313.624 11.2733 313.224 11.1 312.677 10.98L310.857 10.58C310.017 10.4067 309.391 10.1067 308.977 9.68C308.577 9.25333 308.377 8.7 308.377 8.02C308.377 7.42 308.531 6.90667 308.837 6.48C309.157 6.04 309.604 5.7 310.177 5.46C310.751 5.22 311.417 5.1 312.177 5.1C312.631 5.1 313.064 5.14667 313.477 5.24C313.891 5.33333 314.277 5.47333 314.637 5.66C315.011 5.83333 315.331 6.05333 315.597 6.32L315.057 7.46C314.804 7.22 314.517 7.02 314.197 6.86C313.877 6.68667 313.544 6.56 313.197 6.48C312.864 6.38667 312.524 6.34 312.177 6.34C311.431 6.34 310.864 6.48667 310.477 6.78C310.091 7.07333 309.897 7.46 309.897 7.94C309.897 8.31333 310.017 8.62 310.257 8.86C310.497 9.1 310.871 9.27333 311.377 9.38L313.197 9.76C314.064 9.94667 314.711 10.2467 315.137 10.66C315.577 11.06 315.797 11.6067 315.797 12.3C315.797 12.8867 315.637 13.4 315.317 13.84C314.997 14.2667 314.544 14.6 313.957 14.84C313.384 15.0667 312.704 15.18 311.917 15.18ZM323.663 15V0.899999H325.043L330.763 11.64H330.163L335.843 0.899999H337.223V15H335.703V3.1H336.183L331.003 12.82H329.923L324.683 3.08H325.163V15H323.663ZM344.552 15.18C343.606 15.18 342.786 14.9733 342.092 14.56C341.399 14.1467 340.859 13.5667 340.472 12.82C340.099 12.06 339.912 11.1667 339.912 10.14C339.912 9.11333 340.099 8.22667 340.472 7.48C340.859 6.72 341.399 6.13333 342.092 5.72C342.786 5.30667 343.606 5.1 344.552 5.1C345.499 5.1 346.319 5.30667 347.012 5.72C347.706 6.13333 348.239 6.72 348.612 7.48C348.999 8.22667 349.192 9.11333 349.192 10.14C349.192 11.1667 348.999 12.06 348.612 12.82C348.239 13.5667 347.706 14.1467 347.012 14.56C346.319 14.9733 345.499 15.18 344.552 15.18ZM344.552 13.88C345.472 13.88 346.199 13.56 346.732 12.92C347.279 12.2667 347.552 11.3333 347.552 10.12C347.552 8.92 347.279 8 346.732 7.36C346.199 6.72 345.472 6.4 344.552 6.4C343.646 6.4 342.919 6.72 342.372 7.36C341.826 8 341.552 8.92 341.552 10.12C341.552 11.3333 341.826 12.2667 342.372 12.92C342.919 13.56 343.646 13.88 344.552 13.88ZM351.625 15V5.28H353.205V7.44H352.985C353.265 6.66667 353.719 6.08667 354.345 5.7C354.985 5.3 355.719 5.1 356.545 5.1C357.319 5.1 357.959 5.24 358.465 5.52C358.985 5.78667 359.372 6.20667 359.625 6.78C359.879 7.35333 360.005 8.07333 360.005 8.94V15H358.385V9.04C358.385 8.44 358.305 7.94667 358.145 7.56C357.999 7.17333 357.759 6.88667 357.425 6.7C357.105 6.51333 356.685 6.42 356.165 6.42C355.579 6.42 355.065 6.54667 354.625 6.8C354.185 7.05333 353.845 7.40667 353.605 7.86C353.365 8.31333 353.245 8.84667 353.245 9.46V15H351.625ZM366.893 15.18C365.746 15.18 364.886 14.8733 364.313 14.26C363.739 13.6467 363.453 12.7733 363.453 11.64V6.54H361.553V5.28H363.453V2.3H365.073V5.28H368.153V6.54H365.073V11.48C365.073 12.24 365.233 12.82 365.553 13.22C365.873 13.6067 366.393 13.8 367.113 13.8C367.326 13.8 367.539 13.7733 367.753 13.72C367.966 13.6667 368.159 13.6133 368.333 13.56L368.613 14.8C368.439 14.8933 368.186 14.98 367.853 15.06C367.519 15.14 367.199 15.18 366.893 15.18ZM369.985 15V0.899999H371.605V7.44H371.345C371.625 6.66667 372.078 6.08667 372.705 5.7C373.345 5.3 374.078 5.1 374.905 5.1C375.678 5.1 376.318 5.24 376.825 5.52C377.345 5.8 377.732 6.22667 377.985 6.8C378.238 7.36 378.365 8.07333 378.365 8.94V15H376.745V9.04C376.745 8.44 376.665 7.94667 376.505 7.56C376.358 7.17333 376.118 6.88667 375.785 6.7C375.465 6.51333 375.045 6.42 374.525 6.42C373.938 6.42 373.425 6.54667 372.985 6.8C372.545 7.05333 372.205 7.40667 371.965 7.86C371.725 8.31333 371.605 8.84667 371.605 9.46V15H369.985Z" fill="#FCFCFC"/>
</svg>
