<svg width="227" height="19" viewBox="0 0 227 19" fill="none" xmlns="http://www.w3.org/2000/svg">
<path d="M1.3 15V13.76L6.12 8.56C6.57333 8.06667 6.94 7.60667 7.22 7.18C7.5 6.74 7.70667 6.31333 7.84 5.9C7.97333 5.48667 8.04 5.06667 8.04 4.64C8.04 3.84 7.79333 3.23333 7.3 2.82C6.82 2.39333 6.11333 2.18 5.18 2.18C4.46 2.18 3.78667 2.31333 3.16 2.58C2.54667 2.83333 1.96 3.23333 1.4 3.78L0.78 2.5C1.3 1.96667 1.96 1.54 2.76 1.22C3.57333 0.886666 4.42667 0.719999 5.32 0.719999C6.26667 0.719999 7.06667 0.866666 7.72 1.16C8.37333 1.45333 8.86667 1.88667 9.2 2.46C9.53333 3.02 9.7 3.70667 9.7 4.52C9.7 4.94667 9.64667 5.36667 9.54 5.78C9.44667 6.18 9.29333 6.58667 9.08 7C8.88 7.4 8.62 7.81333 8.3 8.24C7.99333 8.66667 7.62 9.10667 7.18 9.56L2.94 14.06V13.6H10.28V15H1.3ZM17.4922 15.18C16.4255 15.18 15.5189 14.9067 14.7722 14.36C14.0389 13.8 13.4855 12.98 13.1122 11.9C12.7389 10.82 12.5522 9.5 12.5522 7.94C12.5522 6.36667 12.7389 5.04667 13.1122 3.98C13.4855 2.9 14.0389 2.08667 14.7722 1.54C15.5189 0.993332 16.4255 0.719999 17.4922 0.719999C18.5722 0.719999 19.4789 0.993332 20.2122 1.54C20.9455 2.08667 21.4989 2.89333 21.8722 3.96C22.2455 5.02667 22.4322 6.34667 22.4322 7.92C22.4322 9.49333 22.2455 10.82 21.8722 11.9C21.4989 12.98 20.9455 13.8 20.2122 14.36C19.4789 14.9067 18.5722 15.18 17.4922 15.18ZM17.4922 13.76C18.6122 13.76 19.4389 13.2867 19.9722 12.34C20.5189 11.3933 20.7922 9.92 20.7922 7.92C20.7922 5.92 20.5255 4.46 19.9922 3.54C19.4589 2.60667 18.6255 2.14 17.4922 2.14C16.3855 2.14 15.5589 2.60667 15.0122 3.54C14.4655 4.47333 14.1922 5.93333 14.1922 7.92C14.1922 9.92 14.4589 11.3933 14.9922 12.34C15.5389 13.2867 16.3722 13.76 17.4922 13.76ZM29.2044 15.5L28.0644 14.84L36.3644 0.4L37.4844 1.06L29.2044 15.5ZM28.0044 9.36C27.2977 9.36 26.6844 9.19333 26.1644 8.86C25.6577 8.51333 25.271 8.02 25.0044 7.38C24.7377 6.72667 24.6044 5.94667 24.6044 5.04C24.6044 3.68 24.9044 2.62667 25.5044 1.88C26.1044 1.12 26.9377 0.739999 28.0044 0.739999C28.711 0.739999 29.3177 0.913332 29.8244 1.26C30.331 1.59333 30.7177 2.08 30.9844 2.72C31.2644 3.36 31.4044 4.13333 31.4044 5.04C31.4044 5.94667 31.2644 6.72 30.9844 7.36C30.7177 8 30.331 8.49333 29.8244 8.84C29.3177 9.18667 28.711 9.36 28.0044 9.36ZM28.0044 8.18C28.6177 8.18 29.1044 7.92 29.4644 7.4C29.8244 6.86667 30.0044 6.08 30.0044 5.04C30.0044 4 29.8244 3.22 29.4644 2.7C29.1044 2.18 28.6177 1.92 28.0044 1.92C27.3777 1.92 26.8844 2.18 26.5244 2.7C26.1777 3.22 26.0044 4 26.0044 5.04C26.0044 6.08 26.1777 6.86667 26.5244 7.4C26.8844 7.92 27.3777 8.18 28.0044 8.18ZM37.5644 15.18C36.871 15.18 36.2644 15.0133 35.7444 14.68C35.2377 14.3333 34.8444 13.84 34.5644 13.2C34.2977 12.5467 34.1644 11.7667 34.1644 10.86C34.1644 9.5 34.4644 8.44667 35.0644 7.7C35.6777 6.94 36.511 6.56 37.5644 6.56C38.271 6.56 38.8777 6.73333 39.3844 7.08C39.891 7.41333 40.2777 7.9 40.5444 8.54C40.8244 9.18 40.9644 9.95333 40.9644 10.86C40.9644 11.7667 40.831 12.5467 40.5644 13.2C40.2977 13.84 39.911 14.3333 39.4044 14.68C38.8977 15.0133 38.2844 15.18 37.5644 15.18ZM37.5644 14C38.191 14 38.6777 13.74 39.0244 13.22C39.3844 12.6867 39.5644 11.9 39.5644 10.86C39.5644 9.82 39.3844 9.04 39.0244 8.52C38.6777 8 38.191 7.74 37.5644 7.74C36.951 7.74 36.4644 8 36.1044 8.52C35.7577 9.04 35.5844 9.82 35.5844 10.86C35.5844 11.9133 35.7577 12.7 36.1044 13.22C36.4644 13.74 36.951 14 37.5644 14ZM52.7748 15.18C51.8282 15.18 51.0082 14.9733 50.3148 14.56C49.6215 14.1467 49.0815 13.5667 48.6948 12.82C48.3215 12.06 48.1348 11.1667 48.1348 10.14C48.1348 9.11333 48.3215 8.22667 48.6948 7.48C49.0815 6.72 49.6215 6.13333 50.3148 5.72C51.0082 5.30667 51.8282 5.1 52.7748 5.1C53.7215 5.1 54.5415 5.30667 55.2348 5.72C55.9282 6.13333 56.4615 6.72 56.8348 7.48C57.2215 8.22667 57.4148 9.11333 57.4148 10.14C57.4148 11.1667 57.2215 12.06 56.8348 12.82C56.4615 13.5667 55.9282 14.1467 55.2348 14.56C54.5415 14.9733 53.7215 15.18 52.7748 15.18ZM52.7748 13.88C53.6948 13.88 54.4215 13.56 54.9548 12.92C55.5015 12.2667 55.7748 11.3333 55.7748 10.12C55.7748 8.92 55.5015 8 54.9548 7.36C54.4215 6.72 53.6948 6.4 52.7748 6.4C51.8682 6.4 51.1415 6.72 50.5948 7.36C50.0482 8 49.7748 8.92 49.7748 10.12C49.7748 11.3333 50.0482 12.2667 50.5948 12.92C51.1415 13.56 51.8682 13.88 52.7748 13.88ZM60.2705 15V6.54H58.3505V5.28H60.7105L60.2705 5.7V4.94C60.2705 3.64667 60.5905 2.66667 61.2305 2C61.8838 1.33333 62.8838 0.959999 64.2305 0.879999L65.0105 0.84L65.1505 2.08L64.2305 2.14C63.6838 2.18 63.2371 2.3 62.8905 2.5C62.5438 2.7 62.2905 2.98667 62.1305 3.36C61.9705 3.73333 61.8905 4.19333 61.8905 4.74V5.58L61.6505 5.28H64.6905V6.54H61.8905V15H60.2705ZM66.6181 15V6.54H64.6981V5.28H67.0581L66.6181 5.7V4.94C66.6181 3.64667 66.9381 2.66667 67.5781 2C68.2315 1.33333 69.2315 0.959999 70.5781 0.879999L71.3581 0.84L71.4981 2.08L70.5781 2.14C70.0315 2.18 69.5848 2.3 69.2381 2.5C68.8915 2.7 68.6381 2.98667 68.4781 3.36C68.3181 3.73333 68.2381 4.19333 68.2381 4.74V5.58L67.9981 5.28H71.0381V6.54H68.2381V15H66.6181ZM79.015 18.6L80.835 14.5V15.2L76.575 5.28H78.335L81.815 13.8H81.275L84.795 5.28H86.495L80.715 18.6H79.015ZM92.0717 15.18C91.1251 15.18 90.3051 14.9733 89.6117 14.56C88.9184 14.1467 88.3784 13.5667 87.9917 12.82C87.6184 12.06 87.4317 11.1667 87.4317 10.14C87.4317 9.11333 87.6184 8.22667 87.9917 7.48C88.3784 6.72 88.9184 6.13333 89.6117 5.72C90.3051 5.30667 91.1251 5.1 92.0717 5.1C93.0184 5.1 93.8384 5.30667 94.5317 5.72C95.2251 6.13333 95.7584 6.72 96.1317 7.48C96.5184 8.22667 96.7117 9.11333 96.7117 10.14C96.7117 11.1667 96.5184 12.06 96.1317 12.82C95.7584 13.5667 95.2251 14.1467 94.5317 14.56C93.8384 14.9733 93.0184 15.18 92.0717 15.18ZM92.0717 13.88C92.9917 13.88 93.7184 13.56 94.2517 12.92C94.7984 12.2667 95.0717 11.3333 95.0717 10.12C95.0717 8.92 94.7984 8 94.2517 7.36C93.7184 6.72 92.9917 6.4 92.0717 6.4C91.1651 6.4 90.4384 6.72 89.8917 7.36C89.3451 8 89.0717 8.92 89.0717 10.12C89.0717 11.3333 89.3451 12.2667 89.8917 12.92C90.4384 13.56 91.1651 13.88 92.0717 13.88ZM102.585 15.18C101.798 15.18 101.145 15.04 100.625 14.76C100.118 14.4667 99.7317 14.0333 99.465 13.46C99.2117 12.8867 99.085 12.1733 99.085 11.32V5.28H100.705V11.3C100.705 11.8733 100.778 12.3533 100.925 12.74C101.085 13.1133 101.332 13.3933 101.665 13.58C101.998 13.7533 102.412 13.84 102.905 13.84C103.465 13.84 103.952 13.7133 104.365 13.46C104.778 13.2067 105.105 12.8533 105.345 12.4C105.585 11.9467 105.705 11.4133 105.705 10.8V5.28H107.325V15H105.745V12.76H106.005C105.738 13.5467 105.298 14.1467 104.685 14.56C104.085 14.9733 103.385 15.18 102.585 15.18ZM110.356 15V5.28H111.936V7.58H111.736C111.963 6.79333 112.356 6.2 112.916 5.8C113.476 5.38667 114.216 5.14667 115.136 5.08L115.716 5.02L115.836 6.42L114.816 6.54C113.909 6.62 113.209 6.91333 112.716 7.42C112.236 7.91333 111.996 8.59333 111.996 9.46V15H110.356ZM123.181 15V6.54H121.261V5.28H123.621L123.181 5.7V4.94C123.181 3.64667 123.501 2.66667 124.141 2C124.794 1.33333 125.794 0.959999 127.141 0.879999L127.881 0.84L127.981 2.1L127.141 2.14C126.594 2.16667 126.147 2.28667 125.801 2.5C125.454 2.7 125.201 2.98667 125.041 3.36C124.881 3.73333 124.801 4.19333 124.801 4.74V5.5V5.28H130.801V15H129.181V6.54H124.801V15H123.181ZM129.001 2.86V1.04H130.981V2.86H129.001ZM133.833 15V5.28H135.413V7.58H135.213C135.439 6.79333 135.833 6.2 136.393 5.8C136.953 5.38667 137.693 5.14667 138.613 5.08L139.193 5.02L139.313 6.42L138.293 6.54C137.386 6.62 136.686 6.91333 136.193 7.42C135.713 7.91333 135.473 8.59333 135.473 9.46V15H133.833ZM144.183 15.18C143.676 15.18 143.183 15.1267 142.703 15.02C142.236 14.9267 141.796 14.7933 141.383 14.62C140.983 14.4333 140.636 14.2133 140.343 13.96L140.863 12.82C141.183 13.0733 141.529 13.2867 141.903 13.46C142.276 13.62 142.656 13.74 143.043 13.82C143.429 13.9 143.823 13.94 144.223 13.94C144.983 13.94 145.556 13.8 145.943 13.52C146.329 13.24 146.523 12.86 146.523 12.38C146.523 12.0067 146.396 11.7133 146.143 11.5C145.889 11.2733 145.489 11.1 144.943 10.98L143.123 10.58C142.283 10.4067 141.656 10.1067 141.243 9.68C140.843 9.25333 140.643 8.7 140.643 8.02C140.643 7.42 140.796 6.90667 141.103 6.48C141.423 6.04 141.869 5.7 142.443 5.46C143.016 5.22 143.683 5.1 144.443 5.1C144.896 5.1 145.329 5.14667 145.743 5.24C146.156 5.33333 146.543 5.47333 146.903 5.66C147.276 5.83333 147.596 6.05333 147.863 6.32L147.323 7.46C147.069 7.22 146.783 7.02 146.463 6.86C146.143 6.68667 145.809 6.56 145.463 6.48C145.129 6.38667 144.789 6.34 144.443 6.34C143.696 6.34 143.129 6.48667 142.743 6.78C142.356 7.07333 142.163 7.46 142.163 7.94C142.163 8.31333 142.283 8.62 142.523 8.86C142.763 9.1 143.136 9.27333 143.643 9.38L145.463 9.76C146.329 9.94667 146.976 10.2467 147.403 10.66C147.843 11.06 148.063 11.6067 148.063 12.3C148.063 12.8867 147.903 13.4 147.583 13.84C147.263 14.2667 146.809 14.6 146.223 14.84C145.649 15.0667 144.969 15.18 144.183 15.18ZM154.334 15.18C153.187 15.18 152.327 14.8733 151.754 14.26C151.181 13.6467 150.894 12.7733 150.894 11.64V6.54H148.994V5.28H150.894V2.3H152.514V5.28H155.594V6.54H152.514V11.48C152.514 12.24 152.674 12.82 152.994 13.22C153.314 13.6067 153.834 13.8 154.554 13.8C154.767 13.8 154.981 13.7733 155.194 13.72C155.407 13.6667 155.601 13.6133 155.774 13.56L156.054 14.8C155.881 14.8933 155.627 14.98 155.294 15.06C154.961 15.14 154.641 15.18 154.334 15.18ZM165.843 15.18C165.336 15.18 164.843 15.1267 164.363 15.02C163.896 14.9267 163.456 14.7933 163.043 14.62C162.643 14.4333 162.296 14.2133 162.003 13.96L162.523 12.82C162.843 13.0733 163.19 13.2867 163.563 13.46C163.936 13.62 164.316 13.74 164.703 13.82C165.09 13.9 165.483 13.94 165.883 13.94C166.643 13.94 167.216 13.8 167.603 13.52C167.99 13.24 168.183 12.86 168.183 12.38C168.183 12.0067 168.056 11.7133 167.803 11.5C167.55 11.2733 167.15 11.1 166.603 10.98L164.783 10.58C163.943 10.4067 163.316 10.1067 162.903 9.68C162.503 9.25333 162.303 8.7 162.303 8.02C162.303 7.42 162.456 6.90667 162.763 6.48C163.083 6.04 163.53 5.7 164.103 5.46C164.676 5.22 165.343 5.1 166.103 5.1C166.556 5.1 166.99 5.14667 167.403 5.24C167.816 5.33333 168.203 5.47333 168.563 5.66C168.936 5.83333 169.256 6.05333 169.523 6.32L168.983 7.46C168.73 7.22 168.443 7.02 168.123 6.86C167.803 6.68667 167.47 6.56 167.123 6.48C166.79 6.38667 166.45 6.34 166.103 6.34C165.356 6.34 164.79 6.48667 164.403 6.78C164.016 7.07333 163.823 7.46 163.823 7.94C163.823 8.31333 163.943 8.62 164.183 8.86C164.423 9.1 164.796 9.27333 165.303 9.38L167.123 9.76C167.99 9.94667 168.636 10.2467 169.063 10.66C169.503 11.06 169.723 11.6067 169.723 12.3C169.723 12.8867 169.563 13.4 169.243 13.84C168.923 14.2667 168.47 14.6 167.883 14.84C167.31 15.0667 166.63 15.18 165.843 15.18ZM176.572 15.18C175.545 15.18 174.659 14.98 173.912 14.58C173.179 14.1667 172.605 13.5867 172.192 12.84C171.792 12.0933 171.592 11.2 171.592 10.16C171.592 9.14667 171.792 8.26667 172.192 7.52C172.592 6.76 173.139 6.16667 173.832 5.74C174.539 5.31333 175.352 5.1 176.272 5.1C177.152 5.1 177.905 5.29333 178.532 5.68C179.159 6.06667 179.639 6.61333 179.972 7.32C180.319 8.02667 180.492 8.87333 180.492 9.86V10.48H172.832V9.42H179.412L179.092 9.68C179.092 8.61333 178.852 7.78667 178.372 7.2C177.905 6.6 177.219 6.3 176.312 6.3C175.632 6.3 175.052 6.46 174.572 6.78C174.105 7.08667 173.752 7.52 173.512 8.08C173.272 8.62667 173.152 9.26667 173.152 10V10.12C173.152 10.9333 173.279 11.62 173.532 12.18C173.799 12.74 174.192 13.1667 174.712 13.46C175.232 13.74 175.852 13.88 176.572 13.88C177.145 13.88 177.699 13.7933 178.232 13.62C178.779 13.4333 179.292 13.1333 179.772 12.72L180.332 13.86C179.892 14.26 179.332 14.58 178.652 14.82C177.972 15.06 177.279 15.18 176.572 15.18ZM186.116 15.18C185.61 15.18 185.116 15.1267 184.636 15.02C184.17 14.9267 183.73 14.7933 183.316 14.62C182.916 14.4333 182.57 14.2133 182.276 13.96L182.796 12.82C183.116 13.0733 183.463 13.2867 183.836 13.46C184.21 13.62 184.59 13.74 184.976 13.82C185.363 13.9 185.756 13.94 186.156 13.94C186.916 13.94 187.49 13.8 187.876 13.52C188.263 13.24 188.456 12.86 188.456 12.38C188.456 12.0067 188.33 11.7133 188.076 11.5C187.823 11.2733 187.423 11.1 186.876 10.98L185.056 10.58C184.216 10.4067 183.59 10.1067 183.176 9.68C182.776 9.25333 182.576 8.7 182.576 8.02C182.576 7.42 182.73 6.90667 183.036 6.48C183.356 6.04 183.803 5.7 184.376 5.46C184.95 5.22 185.616 5.1 186.376 5.1C186.83 5.1 187.263 5.14667 187.676 5.24C188.09 5.33333 188.476 5.47333 188.836 5.66C189.21 5.83333 189.53 6.05333 189.796 6.32L189.256 7.46C189.003 7.22 188.716 7.02 188.396 6.86C188.076 6.68667 187.743 6.56 187.396 6.48C187.063 6.38667 186.723 6.34 186.376 6.34C185.63 6.34 185.063 6.48667 184.676 6.78C184.29 7.07333 184.096 7.46 184.096 7.94C184.096 8.31333 184.216 8.62 184.456 8.86C184.696 9.1 185.07 9.27333 185.576 9.38L187.396 9.76C188.263 9.94667 188.91 10.2467 189.336 10.66C189.776 11.06 189.996 11.6067 189.996 12.3C189.996 12.8867 189.836 13.4 189.516 13.84C189.196 14.2667 188.743 14.6 188.156 14.84C187.583 15.0667 186.903 15.18 186.116 15.18ZM195.745 15.18C195.239 15.18 194.745 15.1267 194.265 15.02C193.799 14.9267 193.359 14.7933 192.945 14.62C192.545 14.4333 192.199 14.2133 191.905 13.96L192.425 12.82C192.745 13.0733 193.092 13.2867 193.465 13.46C193.839 13.62 194.219 13.74 194.605 13.82C194.992 13.9 195.385 13.94 195.785 13.94C196.545 13.94 197.119 13.8 197.505 13.52C197.892 13.24 198.085 12.86 198.085 12.38C198.085 12.0067 197.959 11.7133 197.705 11.5C197.452 11.2733 197.052 11.1 196.505 10.98L194.685 10.58C193.845 10.4067 193.219 10.1067 192.805 9.68C192.405 9.25333 192.205 8.7 192.205 8.02C192.205 7.42 192.359 6.90667 192.665 6.48C192.985 6.04 193.432 5.7 194.005 5.46C194.579 5.22 195.245 5.1 196.005 5.1C196.459 5.1 196.892 5.14667 197.305 5.24C197.719 5.33333 198.105 5.47333 198.465 5.66C198.839 5.83333 199.159 6.05333 199.425 6.32L198.885 7.46C198.632 7.22 198.345 7.02 198.025 6.86C197.705 6.68667 197.372 6.56 197.025 6.48C196.692 6.38667 196.352 6.34 196.005 6.34C195.259 6.34 194.692 6.48667 194.305 6.78C193.919 7.07333 193.725 7.46 193.725 7.94C193.725 8.31333 193.845 8.62 194.085 8.86C194.325 9.1 194.699 9.27333 195.205 9.38L197.025 9.76C197.892 9.94667 198.539 10.2467 198.965 10.66C199.405 11.06 199.625 11.6067 199.625 12.3C199.625 12.8867 199.465 13.4 199.145 13.84C198.825 14.2667 198.372 14.6 197.785 14.84C197.212 15.0667 196.532 15.18 195.745 15.18ZM201.894 2.86V1.04H203.894V2.86H201.894ZM202.094 15V5.28H203.714V15H202.094ZM210.783 15.18C209.836 15.18 209.016 14.9733 208.323 14.56C207.629 14.1467 207.089 13.5667 206.703 12.82C206.329 12.06 206.143 11.1667 206.143 10.14C206.143 9.11333 206.329 8.22667 206.703 7.48C207.089 6.72 207.629 6.13333 208.323 5.72C209.016 5.30667 209.836 5.1 210.783 5.1C211.729 5.1 212.549 5.30667 213.243 5.72C213.936 6.13333 214.469 6.72 214.843 7.48C215.229 8.22667 215.423 9.11333 215.423 10.14C215.423 11.1667 215.229 12.06 214.843 12.82C214.469 13.5667 213.936 14.1467 213.243 14.56C212.549 14.9733 211.729 15.18 210.783 15.18ZM210.783 13.88C211.703 13.88 212.429 13.56 212.963 12.92C213.509 12.2667 213.783 11.3333 213.783 10.12C213.783 8.92 213.509 8 212.963 7.36C212.429 6.72 211.703 6.4 210.783 6.4C209.876 6.4 209.149 6.72 208.603 7.36C208.056 8 207.783 8.92 207.783 10.12C207.783 11.3333 208.056 12.2667 208.603 12.92C209.149 13.56 209.876 13.88 210.783 13.88ZM217.856 15V5.28H219.436V7.44H219.216C219.496 6.66667 219.949 6.08667 220.576 5.7C221.216 5.3 221.949 5.1 222.776 5.1C223.549 5.1 224.189 5.24 224.696 5.52C225.216 5.78667 225.603 6.20667 225.856 6.78C226.109 7.35333 226.236 8.07333 226.236 8.94V15H224.616V9.04C224.616 8.44 224.536 7.94667 224.376 7.56C224.229 7.17333 223.989 6.88667 223.656 6.7C223.336 6.51333 222.916 6.42 222.396 6.42C221.809 6.42 221.296 6.54667 220.856 6.8C220.416 7.05333 220.076 7.40667 219.836 7.86C219.596 8.31333 219.476 8.84667 219.476 9.46V15H217.856Z" fill="#FCFCFC"/>
</svg>
