<svg width="514" height="19" viewBox="0 0 514 19" fill="none" xmlns="http://www.w3.org/2000/svg">
<path d="M5.8 15.18C3.96 15.18 2.55333 14.6933 1.58 13.72C0.62 12.7333 0.14 11.3 0.14 9.42V0.899999H1.78V9.34C1.78 10.8067 2.12 11.9067 2.8 12.64C3.48 13.36 4.48 13.72 5.8 13.72C7.12 13.72 8.11333 13.36 8.78 12.64C9.44667 11.9067 9.78 10.8067 9.78 9.34V0.899999H11.42V9.42C11.42 11.3 10.94 12.7333 9.98 13.72C9.03333 14.6933 7.64 15.18 5.8 15.18ZM17.8508 15.18C17.3441 15.18 16.8508 15.1267 16.3708 15.02C15.9041 14.9267 15.4641 14.7933 15.0508 14.62C14.6508 14.4333 14.3041 14.2133 14.0108 13.96L14.5308 12.82C14.8508 13.0733 15.1974 13.2867 15.5708 13.46C15.9441 13.62 16.3241 13.74 16.7108 13.82C17.0974 13.9 17.4908 13.94 17.8908 13.94C18.6508 13.94 19.2241 13.8 19.6108 13.52C19.9974 13.24 20.1908 12.86 20.1908 12.38C20.1908 12.0067 20.0641 11.7133 19.8108 11.5C19.5574 11.2733 19.1574 11.1 18.6108 10.98L16.7908 10.58C15.9508 10.4067 15.3241 10.1067 14.9108 9.68C14.5108 9.25333 14.3108 8.7 14.3108 8.02C14.3108 7.42 14.4641 6.90667 14.7708 6.48C15.0908 6.04 15.5374 5.7 16.1108 5.46C16.6841 5.22 17.3508 5.1 18.1108 5.1C18.5641 5.1 18.9974 5.14667 19.4108 5.24C19.8241 5.33333 20.2108 5.47333 20.5708 5.66C20.9441 5.83333 21.2641 6.05333 21.5308 6.32L20.9908 7.46C20.7374 7.22 20.4508 7.02 20.1308 6.86C19.8108 6.68667 19.4774 6.56 19.1308 6.48C18.7974 6.38667 18.4574 6.34 18.1108 6.34C17.3641 6.34 16.7974 6.48667 16.4108 6.78C16.0241 7.07333 15.8308 7.46 15.8308 7.94C15.8308 8.31333 15.9508 8.62 16.1908 8.86C16.4308 9.1 16.8041 9.27333 17.3108 9.38L19.1308 9.76C19.9974 9.94667 20.6441 10.2467 21.0708 10.66C21.5108 11.06 21.7308 11.6067 21.7308 12.3C21.7308 12.8867 21.5708 13.4 21.2508 13.84C20.9308 14.2667 20.4774 14.6 19.8908 14.84C19.3174 15.0667 18.6374 15.18 17.8508 15.18ZM28.5797 15.18C27.553 15.18 26.6664 14.98 25.9197 14.58C25.1864 14.1667 24.613 13.5867 24.1997 12.84C23.7997 12.0933 23.5997 11.2 23.5997 10.16C23.5997 9.14667 23.7997 8.26667 24.1997 7.52C24.5997 6.76 25.1464 6.16667 25.8397 5.74C26.5464 5.31333 27.3597 5.1 28.2797 5.1C29.1597 5.1 29.913 5.29333 30.5397 5.68C31.1664 6.06667 31.6464 6.61333 31.9797 7.32C32.3264 8.02667 32.4997 8.87333 32.4997 9.86V10.48H24.8397V9.42H31.4197L31.0997 9.68C31.0997 8.61333 30.8597 7.78667 30.3797 7.2C29.913 6.6 29.2264 6.3 28.3197 6.3C27.6397 6.3 27.0597 6.46 26.5797 6.78C26.113 7.08667 25.7597 7.52 25.5197 8.08C25.2797 8.62667 25.1597 9.26667 25.1597 10V10.12C25.1597 10.9333 25.2864 11.62 25.5397 12.18C25.8064 12.74 26.1997 13.1667 26.7197 13.46C27.2397 13.74 27.8597 13.88 28.5797 13.88C29.153 13.88 29.7064 13.7933 30.2397 13.62C30.7864 13.4333 31.2997 13.1333 31.7797 12.72L32.3397 13.86C31.8997 14.26 31.3397 14.58 30.6597 14.82C29.9797 15.06 29.2864 15.18 28.5797 15.18ZM44.1009 15.18C43.1276 15.18 42.2876 14.9667 41.5809 14.54C40.8743 14.1133 40.3276 13.52 39.9409 12.76C39.5676 11.9867 39.3809 11.0933 39.3809 10.08C39.3809 9.05333 39.5676 8.16667 39.9409 7.42C40.3276 6.67333 40.8743 6.1 41.5809 5.7C42.2876 5.3 43.1276 5.1 44.1009 5.1C44.7009 5.1 45.2943 5.20667 45.8809 5.42C46.4676 5.63333 46.9543 5.93333 47.3409 6.32L46.7809 7.5C46.3943 7.12667 45.9676 6.85333 45.5009 6.68C45.0476 6.50667 44.6143 6.42 44.2009 6.42C43.1876 6.42 42.4076 6.74 41.8609 7.38C41.3143 8.00667 41.0409 8.91333 41.0409 10.1C41.0409 11.26 41.3143 12.18 41.8609 12.86C42.4076 13.5267 43.1876 13.86 44.2009 13.86C44.6143 13.86 45.0476 13.7733 45.5009 13.6C45.9676 13.4267 46.3943 13.1467 46.7809 12.76L47.3409 13.94C46.9543 14.3267 46.4609 14.6333 45.8609 14.86C45.2743 15.0733 44.6876 15.18 44.1009 15.18ZM53.0834 15.18C52.1368 15.18 51.3168 14.9733 50.6234 14.56C49.9301 14.1467 49.3901 13.5667 49.0034 12.82C48.6301 12.06 48.4434 11.1667 48.4434 10.14C48.4434 9.11333 48.6301 8.22667 49.0034 7.48C49.3901 6.72 49.9301 6.13333 50.6234 5.72C51.3168 5.30667 52.1368 5.1 53.0834 5.1C54.0301 5.1 54.8501 5.30667 55.5434 5.72C56.2368 6.13333 56.7701 6.72 57.1434 7.48C57.5301 8.22667 57.7234 9.11333 57.7234 10.14C57.7234 11.1667 57.5301 12.06 57.1434 12.82C56.7701 13.5667 56.2368 14.1467 55.5434 14.56C54.8501 14.9733 54.0301 15.18 53.0834 15.18ZM53.0834 13.88C54.0034 13.88 54.7301 13.56 55.2634 12.92C55.8101 12.2667 56.0834 11.3333 56.0834 10.12C56.0834 8.92 55.8101 8 55.2634 7.36C54.7301 6.72 54.0034 6.4 53.0834 6.4C52.1768 6.4 51.4501 6.72 50.9034 7.36C50.3568 8 50.0834 8.92 50.0834 10.12C50.0834 11.3333 50.3568 12.2667 50.9034 12.92C51.4501 13.56 52.1768 13.88 53.0834 13.88ZM63.8567 15.18C62.9901 15.18 62.2301 14.9733 61.5767 14.56C60.9367 14.1467 60.4367 13.5667 60.0767 12.82C59.7301 12.06 59.5567 11.1667 59.5567 10.14C59.5567 9.1 59.7301 8.20667 60.0767 7.46C60.4367 6.7 60.9367 6.12 61.5767 5.72C62.2301 5.30667 62.9901 5.1 63.8567 5.1C64.7367 5.1 65.4901 5.32 66.1167 5.76C66.7434 6.2 67.1634 6.79333 67.3767 7.54H67.1567V0.899999H68.7767V15H67.1967V12.68H67.3967C67.1834 13.44 66.7567 14.0467 66.1167 14.5C65.4901 14.9533 64.7367 15.18 63.8567 15.18ZM64.1967 13.88C65.1167 13.88 65.8434 13.56 66.3767 12.92C66.9234 12.2667 67.1967 11.34 67.1967 10.14C67.1967 8.92667 66.9234 8 66.3767 7.36C65.8434 6.72 65.1167 6.4 64.1967 6.4C63.2901 6.4 62.5634 6.72 62.0167 7.36C61.4701 8 61.1967 8.92667 61.1967 10.14C61.1967 11.34 61.4701 12.2667 62.0167 12.92C62.5634 13.56 63.2901 13.88 64.1967 13.88ZM76.1969 15.18C75.1702 15.18 74.2835 14.98 73.5369 14.58C72.8035 14.1667 72.2302 13.5867 71.8169 12.84C71.4169 12.0933 71.2169 11.2 71.2169 10.16C71.2169 9.14667 71.4169 8.26667 71.8169 7.52C72.2169 6.76 72.7635 6.16667 73.4569 5.74C74.1635 5.31333 74.9769 5.1 75.8969 5.1C76.7769 5.1 77.5302 5.29333 78.1569 5.68C78.7835 6.06667 79.2635 6.61333 79.5969 7.32C79.9435 8.02667 80.1169 8.87333 80.1169 9.86V10.48H72.4569V9.42H79.0369L78.7169 9.68C78.7169 8.61333 78.4769 7.78667 77.9969 7.2C77.5302 6.6 76.8435 6.3 75.9369 6.3C75.2569 6.3 74.6769 6.46 74.1969 6.78C73.7302 7.08667 73.3769 7.52 73.1369 8.08C72.8969 8.62667 72.7769 9.26667 72.7769 10V10.12C72.7769 10.9333 72.9035 11.62 73.1569 12.18C73.4235 12.74 73.8169 13.1667 74.3369 13.46C74.8569 13.74 75.4769 13.88 76.1969 13.88C76.7702 13.88 77.3235 13.7933 77.8569 13.62C78.4035 13.4333 78.9169 13.1333 79.3969 12.72L79.9569 13.86C79.5169 14.26 78.9569 14.58 78.2769 14.82C77.5969 15.06 76.9035 15.18 76.1969 15.18ZM92.3781 15.18C91.6448 15.18 90.9515 15.1133 90.2981 14.98C89.6581 14.8467 89.0648 14.66 88.5181 14.42C87.9848 14.1667 87.4981 13.86 87.0581 13.5L87.6381 12.18C88.0915 12.5133 88.5515 12.8 89.0181 13.04C89.4981 13.2667 90.0115 13.44 90.5581 13.56C91.1181 13.6667 91.7248 13.72 92.3781 13.72C93.5781 13.72 94.4648 13.5 95.0381 13.06C95.6248 12.6067 95.9181 12.0133 95.9181 11.28C95.9181 10.8933 95.8248 10.56 95.6381 10.28C95.4648 10 95.1715 9.76 94.7581 9.56C94.3581 9.36 93.8315 9.19333 93.1781 9.06L91.0981 8.64C89.8448 8.37333 88.9048 7.94 88.2781 7.34C87.6648 6.72667 87.3581 5.91333 87.3581 4.9C87.3581 4.06 87.5715 3.32667 87.9981 2.7C88.4381 2.07333 89.0448 1.58667 89.8181 1.24C90.6048 0.893333 91.4981 0.719999 92.4981 0.719999C93.1381 0.719999 93.7448 0.786666 94.3181 0.919999C94.8915 1.05333 95.4181 1.25333 95.8981 1.52C96.3915 1.77333 96.8248 2.08667 97.1981 2.46L96.6181 3.74C96.0181 3.19333 95.3848 2.8 94.7181 2.56C94.0515 2.30667 93.3048 2.18 92.4781 2.18C91.7715 2.18 91.1581 2.28667 90.6381 2.5C90.1315 2.71333 89.7315 3.02667 89.4381 3.44C89.1581 3.84 89.0181 4.30667 89.0181 4.84C89.0181 5.48 89.2115 5.98667 89.5981 6.36C89.9981 6.73333 90.6448 7.00667 91.5381 7.18L93.6181 7.62C94.9648 7.9 95.9581 8.32667 96.5981 8.9C97.2515 9.46 97.5781 10.2267 97.5781 11.2C97.5781 11.9733 97.3648 12.6667 96.9381 13.28C96.5248 13.88 95.9248 14.3467 95.1381 14.68C94.3648 15.0133 93.4448 15.18 92.3781 15.18ZM98.7238 15L104.944 0.899999H106.344L112.564 15H110.864L109.124 10.98L109.924 11.4H101.324L102.144 10.98L100.424 15H98.7238ZM105.624 2.82L102.404 10.4L101.924 10.02H109.324L108.884 10.4L105.664 2.82H105.624ZM117.96 15L111.8 0.899999H113.56L119.06 13.68H118.42L123.9 0.899999H125.62L119.44 15H117.96ZM127.349 15V0.899999H136.249V2.28H128.949V7.16H135.829V8.54H128.949V13.62H136.249V15H127.349ZM139.07 15V13.76L143.89 8.56C144.343 8.06667 144.71 7.60667 144.99 7.18C145.27 6.74 145.476 6.31333 145.61 5.9C145.743 5.48667 145.81 5.06667 145.81 4.64C145.81 3.84 145.563 3.23333 145.07 2.82C144.59 2.39333 143.883 2.18 142.95 2.18C142.23 2.18 141.556 2.31333 140.93 2.58C140.316 2.83333 139.73 3.23333 139.17 3.78L138.55 2.5C139.07 1.96667 139.73 1.54 140.53 1.22C141.343 0.886666 142.196 0.719999 143.09 0.719999C144.036 0.719999 144.836 0.866666 145.49 1.16C146.143 1.45333 146.636 1.88667 146.97 2.46C147.303 3.02 147.47 3.70667 147.47 4.52C147.47 4.94667 147.416 5.36667 147.31 5.78C147.216 6.18 147.063 6.58667 146.85 7C146.65 7.4 146.39 7.81333 146.07 8.24C145.763 8.66667 145.39 9.10667 144.95 9.56L140.71 14.06V13.6H148.05V15H139.07ZM155.262 15.18C154.195 15.18 153.288 14.9067 152.542 14.36C151.808 13.8 151.255 12.98 150.882 11.9C150.508 10.82 150.322 9.5 150.322 7.94C150.322 6.36667 150.508 5.04667 150.882 3.98C151.255 2.9 151.808 2.08667 152.542 1.54C153.288 0.993332 154.195 0.719999 155.262 0.719999C156.342 0.719999 157.248 0.993332 157.982 1.54C158.715 2.08667 159.268 2.89333 159.642 3.96C160.015 5.02667 160.202 6.34667 160.202 7.92C160.202 9.49333 160.015 10.82 159.642 11.9C159.268 12.98 158.715 13.8 157.982 14.36C157.248 14.9067 156.342 15.18 155.262 15.18ZM155.262 13.76C156.382 13.76 157.208 13.2867 157.742 12.34C158.288 11.3933 158.562 9.92 158.562 7.92C158.562 5.92 158.295 4.46 157.762 3.54C157.228 2.60667 156.395 2.14 155.262 2.14C154.155 2.14 153.328 2.60667 152.782 3.54C152.235 4.47333 151.962 5.93333 151.962 7.92C151.962 9.92 152.228 11.3933 152.762 12.34C153.308 13.2867 154.142 13.76 155.262 13.76ZM170.971 15.18C170.304 15.18 169.704 15.0533 169.171 14.8C168.651 14.5333 168.237 14.1733 167.931 13.72C167.624 13.2667 167.471 12.76 167.471 12.2C167.471 11.48 167.651 10.9133 168.011 10.5C168.384 10.0867 168.991 9.79333 169.831 9.62C170.684 9.44667 171.844 9.36 173.311 9.36H174.211V10.42H173.331C172.517 10.42 171.837 10.4467 171.291 10.5C170.744 10.5533 170.311 10.6467 169.991 10.78C169.671 10.9133 169.444 11.0867 169.311 11.3C169.177 11.5133 169.111 11.78 169.111 12.1C169.111 12.6467 169.297 13.0933 169.671 13.44C170.057 13.7867 170.577 13.96 171.231 13.96C171.764 13.96 172.231 13.8333 172.631 13.58C173.044 13.3267 173.364 12.98 173.591 12.54C173.831 12.1 173.951 11.5933 173.951 11.02V8.74C173.951 7.91333 173.784 7.32 173.451 6.96C173.117 6.58667 172.571 6.4 171.811 6.4C171.224 6.4 170.657 6.48667 170.111 6.66C169.564 6.82 169.004 7.08667 168.431 7.46L167.871 6.28C168.217 6.04 168.611 5.83333 169.051 5.66C169.491 5.47333 169.951 5.33333 170.431 5.24C170.911 5.14667 171.371 5.1 171.811 5.1C172.651 5.1 173.344 5.24 173.891 5.52C174.437 5.78667 174.844 6.2 175.111 6.76C175.377 7.30667 175.511 8.01333 175.511 8.88V15H173.991V12.74H174.171C174.064 13.2467 173.857 13.68 173.551 14.04C173.257 14.4 172.891 14.68 172.451 14.88C172.011 15.08 171.517 15.18 170.971 15.18ZM182.416 15.18C181.269 15.18 180.409 14.8733 179.836 14.26C179.263 13.6467 178.976 12.7733 178.976 11.64V6.54H177.076V5.28H178.976V2.3H180.596V5.28H183.676V6.54H180.596V11.48C180.596 12.24 180.756 12.82 181.076 13.22C181.396 13.6067 181.916 13.8 182.636 13.8C182.849 13.8 183.063 13.7733 183.276 13.72C183.489 13.6667 183.683 13.6133 183.856 13.56L184.136 14.8C183.963 14.8933 183.709 14.98 183.376 15.06C183.043 15.14 182.723 15.18 182.416 15.18ZM194.765 15.18C193.792 15.18 192.952 14.9667 192.245 14.54C191.538 14.1133 190.992 13.52 190.605 12.76C190.232 11.9867 190.045 11.0933 190.045 10.08C190.045 9.05333 190.232 8.16667 190.605 7.42C190.992 6.67333 191.538 6.1 192.245 5.7C192.952 5.3 193.792 5.1 194.765 5.1C195.365 5.1 195.958 5.20667 196.545 5.42C197.132 5.63333 197.618 5.93333 198.005 6.32L197.445 7.5C197.058 7.12667 196.632 6.85333 196.165 6.68C195.712 6.50667 195.278 6.42 194.865 6.42C193.852 6.42 193.072 6.74 192.525 7.38C191.978 8.00667 191.705 8.91333 191.705 10.1C191.705 11.26 191.978 12.18 192.525 12.86C193.072 13.5267 193.852 13.86 194.865 13.86C195.278 13.86 195.712 13.7733 196.165 13.6C196.632 13.4267 197.058 13.1467 197.445 12.76L198.005 13.94C197.618 14.3267 197.125 14.6333 196.525 14.86C195.938 15.0733 195.352 15.18 194.765 15.18ZM199.903 15V0.899999H201.523V7.44H201.263C201.543 6.66667 201.996 6.08667 202.623 5.7C203.263 5.3 203.996 5.1 204.823 5.1C205.596 5.1 206.236 5.24 206.743 5.52C207.263 5.8 207.649 6.22667 207.903 6.8C208.156 7.36 208.283 8.07333 208.283 8.94V15H206.663V9.04C206.663 8.44 206.583 7.94667 206.423 7.56C206.276 7.17333 206.036 6.88667 205.703 6.7C205.383 6.51333 204.963 6.42 204.443 6.42C203.856 6.42 203.343 6.54667 202.903 6.8C202.463 7.05333 202.123 7.40667 201.883 7.86C201.643 8.31333 201.523 8.84667 201.523 9.46V15H199.903ZM215.65 15.18C214.623 15.18 213.737 14.98 212.99 14.58C212.257 14.1667 211.683 13.5867 211.27 12.84C210.87 12.0933 210.67 11.2 210.67 10.16C210.67 9.14667 210.87 8.26667 211.27 7.52C211.67 6.76 212.217 6.16667 212.91 5.74C213.617 5.31333 214.43 5.1 215.35 5.1C216.23 5.1 216.983 5.29333 217.61 5.68C218.237 6.06667 218.717 6.61333 219.05 7.32C219.397 8.02667 219.57 8.87333 219.57 9.86V10.48H211.91V9.42H218.49L218.17 9.68C218.17 8.61333 217.93 7.78667 217.45 7.2C216.983 6.6 216.297 6.3 215.39 6.3C214.71 6.3 214.13 6.46 213.65 6.78C213.183 7.08667 212.83 7.52 212.59 8.08C212.35 8.62667 212.23 9.26667 212.23 10V10.12C212.23 10.9333 212.357 11.62 212.61 12.18C212.877 12.74 213.27 13.1667 213.79 13.46C214.31 13.74 214.93 13.88 215.65 13.88C216.223 13.88 216.777 13.7933 217.31 13.62C217.857 13.4333 218.37 13.1333 218.85 12.72L219.41 13.86C218.97 14.26 218.41 14.58 217.73 14.82C217.05 15.06 216.357 15.18 215.65 15.18ZM226.035 15.18C225.061 15.18 224.221 14.9667 223.515 14.54C222.808 14.1133 222.261 13.52 221.875 12.76C221.501 11.9867 221.315 11.0933 221.315 10.08C221.315 9.05333 221.501 8.16667 221.875 7.42C222.261 6.67333 222.808 6.1 223.515 5.7C224.221 5.3 225.061 5.1 226.035 5.1C226.635 5.1 227.228 5.20667 227.815 5.42C228.401 5.63333 228.888 5.93333 229.275 6.32L228.715 7.5C228.328 7.12667 227.901 6.85333 227.435 6.68C226.981 6.50667 226.548 6.42 226.135 6.42C225.121 6.42 224.341 6.74 223.795 7.38C223.248 8.00667 222.975 8.91333 222.975 10.1C222.975 11.26 223.248 12.18 223.795 12.86C224.341 13.5267 225.121 13.86 226.135 13.86C226.548 13.86 226.981 13.7733 227.435 13.6C227.901 13.4267 228.328 13.1467 228.715 12.76L229.275 13.94C228.888 14.3267 228.395 14.6333 227.795 14.86C227.208 15.0733 226.621 15.18 226.035 15.18ZM231.172 15V0.899999H232.792V9.6H232.832L237.332 5.28H239.392L234.052 10.4V9.52L239.812 15H237.752L232.832 10.44H232.792V15H231.172ZM244.958 15.18C244.012 15.18 243.192 14.9733 242.498 14.56C241.805 14.1467 241.265 13.5667 240.878 12.82C240.505 12.06 240.318 11.1667 240.318 10.14C240.318 9.11333 240.505 8.22667 240.878 7.48C241.265 6.72 241.805 6.13333 242.498 5.72C243.192 5.30667 244.012 5.1 244.958 5.1C245.905 5.1 246.725 5.30667 247.418 5.72C248.112 6.13333 248.645 6.72 249.018 7.48C249.405 8.22667 249.598 9.11333 249.598 10.14C249.598 11.1667 249.405 12.06 249.018 12.82C248.645 13.5667 248.112 14.1467 247.418 14.56C246.725 14.9733 245.905 15.18 244.958 15.18ZM244.958 13.88C245.878 13.88 246.605 13.56 247.138 12.92C247.685 12.2667 247.958 11.3333 247.958 10.12C247.958 8.92 247.685 8 247.138 7.36C246.605 6.72 245.878 6.4 244.958 6.4C244.052 6.4 243.325 6.72 242.778 7.36C242.232 8 241.958 8.92 241.958 10.12C241.958 11.3333 242.232 12.2667 242.778 12.92C243.325 13.56 244.052 13.88 244.958 13.88ZM255.472 15.18C254.685 15.18 254.032 15.04 253.512 14.76C253.005 14.4667 252.618 14.0333 252.352 13.46C252.098 12.8867 251.972 12.1733 251.972 11.32V5.28H253.592V11.3C253.592 11.8733 253.665 12.3533 253.812 12.74C253.972 13.1133 254.218 13.3933 254.552 13.58C254.885 13.7533 255.298 13.84 255.792 13.84C256.352 13.84 256.838 13.7133 257.252 13.46C257.665 13.2067 257.992 12.8533 258.232 12.4C258.472 11.9467 258.592 11.4133 258.592 10.8V5.28H260.212V15H258.632V12.76H258.892C258.625 13.5467 258.185 14.1467 257.572 14.56C256.972 14.9733 256.272 15.18 255.472 15.18ZM267.143 15.18C265.996 15.18 265.136 14.8733 264.563 14.26C263.989 13.6467 263.703 12.7733 263.703 11.64V6.54H261.803V5.28H263.703V2.3H265.323V5.28H268.403V6.54H265.323V11.48C265.323 12.24 265.483 12.82 265.803 13.22C266.123 13.6067 266.643 13.8 267.363 13.8C267.576 13.8 267.789 13.7733 268.003 13.72C268.216 13.6667 268.409 13.6133 268.583 13.56L268.863 14.8C268.689 14.8933 268.436 14.98 268.103 15.06C267.769 15.14 267.449 15.18 267.143 15.18ZM275.892 15V6.54H273.972V5.28H276.332L275.892 5.7V4.94C275.892 3.64667 276.212 2.66667 276.852 2C277.505 1.33333 278.505 0.959999 279.852 0.879999L280.632 0.84L280.772 2.08L279.852 2.14C279.305 2.18 278.858 2.3 278.512 2.5C278.165 2.7 277.912 2.98667 277.752 3.36C277.592 3.73333 277.512 4.19333 277.512 4.74V5.58L277.272 5.28H280.312V6.54H277.512V15H275.892ZM285.798 15.18C284.852 15.18 284.032 14.9733 283.338 14.56C282.645 14.1467 282.105 13.5667 281.718 12.82C281.345 12.06 281.158 11.1667 281.158 10.14C281.158 9.11333 281.345 8.22667 281.718 7.48C282.105 6.72 282.645 6.13333 283.338 5.72C284.032 5.30667 284.852 5.1 285.798 5.1C286.745 5.1 287.565 5.30667 288.258 5.72C288.952 6.13333 289.485 6.72 289.858 7.48C290.245 8.22667 290.438 9.11333 290.438 10.14C290.438 11.1667 290.245 12.06 289.858 12.82C289.485 13.5667 288.952 14.1467 288.258 14.56C287.565 14.9733 286.745 15.18 285.798 15.18ZM285.798 13.88C286.718 13.88 287.445 13.56 287.978 12.92C288.525 12.2667 288.798 11.3333 288.798 10.12C288.798 8.92 288.525 8 287.978 7.36C287.445 6.72 286.718 6.4 285.798 6.4C284.892 6.4 284.165 6.72 283.618 7.36C283.072 8 282.798 8.92 282.798 10.12C282.798 11.3333 283.072 12.2667 283.618 12.92C284.165 13.56 284.892 13.88 285.798 13.88ZM292.872 15V5.28H294.452V7.58H294.252C294.478 6.79333 294.872 6.2 295.432 5.8C295.992 5.38667 296.732 5.14667 297.652 5.08L298.232 5.02L298.352 6.42L297.332 6.54C296.425 6.62 295.725 6.91333 295.232 7.42C294.752 7.91333 294.512 8.59333 294.512 9.46V15H292.872ZM305.456 15V13.76L310.276 8.56C310.73 8.06667 311.096 7.60667 311.376 7.18C311.656 6.74 311.863 6.31333 311.996 5.9C312.13 5.48667 312.196 5.06667 312.196 4.64C312.196 3.84 311.95 3.23333 311.456 2.82C310.976 2.39333 310.27 2.18 309.336 2.18C308.616 2.18 307.943 2.31333 307.316 2.58C306.703 2.83333 306.116 3.23333 305.556 3.78L304.936 2.5C305.456 1.96667 306.116 1.54 306.916 1.22C307.73 0.886666 308.583 0.719999 309.476 0.719999C310.423 0.719999 311.223 0.866666 311.876 1.16C312.53 1.45333 313.023 1.88667 313.356 2.46C313.69 3.02 313.856 3.70667 313.856 4.52C313.856 4.94667 313.803 5.36667 313.696 5.78C313.603 6.18 313.45 6.58667 313.236 7C313.036 7.4 312.776 7.81333 312.456 8.24C312.15 8.66667 311.776 9.10667 311.336 9.56L307.096 14.06V13.6H314.436V15H305.456ZM321.648 15.18C320.582 15.18 319.675 14.9067 318.928 14.36C318.195 13.8 317.642 12.98 317.268 11.9C316.895 10.82 316.708 9.5 316.708 7.94C316.708 6.36667 316.895 5.04667 317.268 3.98C317.642 2.9 318.195 2.08667 318.928 1.54C319.675 0.993332 320.582 0.719999 321.648 0.719999C322.728 0.719999 323.635 0.993332 324.368 1.54C325.102 2.08667 325.655 2.89333 326.028 3.96C326.402 5.02667 326.588 6.34667 326.588 7.92C326.588 9.49333 326.402 10.82 326.028 11.9C325.655 12.98 325.102 13.8 324.368 14.36C323.635 14.9067 322.728 15.18 321.648 15.18ZM321.648 13.76C322.768 13.76 323.595 13.2867 324.128 12.34C324.675 11.3933 324.948 9.92 324.948 7.92C324.948 5.92 324.682 4.46 324.148 3.54C323.615 2.60667 322.782 2.14 321.648 2.14C320.542 2.14 319.715 2.60667 319.168 3.54C318.622 4.47333 318.348 5.93333 318.348 7.92C318.348 9.92 318.615 11.3933 319.148 12.34C319.695 13.2867 320.528 13.76 321.648 13.76ZM333.361 15.5L332.221 14.84L340.521 0.4L341.641 1.06L333.361 15.5ZM332.161 9.36C331.454 9.36 330.841 9.19333 330.321 8.86C329.814 8.51333 329.427 8.02 329.161 7.38C328.894 6.72667 328.761 5.94667 328.761 5.04C328.761 3.68 329.061 2.62667 329.661 1.88C330.261 1.12 331.094 0.739999 332.161 0.739999C332.867 0.739999 333.474 0.913332 333.981 1.26C334.487 1.59333 334.874 2.08 335.141 2.72C335.421 3.36 335.561 4.13333 335.561 5.04C335.561 5.94667 335.421 6.72 335.141 7.36C334.874 8 334.487 8.49333 333.981 8.84C333.474 9.18667 332.867 9.36 332.161 9.36ZM332.161 8.18C332.774 8.18 333.261 7.92 333.621 7.4C333.981 6.86667 334.161 6.08 334.161 5.04C334.161 4 333.981 3.22 333.621 2.7C333.261 2.18 332.774 1.92 332.161 1.92C331.534 1.92 331.041 2.18 330.681 2.7C330.334 3.22 330.161 4 330.161 5.04C330.161 6.08 330.334 6.86667 330.681 7.4C331.041 7.92 331.534 8.18 332.161 8.18ZM341.721 15.18C341.027 15.18 340.421 15.0133 339.901 14.68C339.394 14.3333 339.001 13.84 338.721 13.2C338.454 12.5467 338.321 11.7667 338.321 10.86C338.321 9.5 338.621 8.44667 339.221 7.7C339.834 6.94 340.667 6.56 341.721 6.56C342.427 6.56 343.034 6.73333 343.541 7.08C344.047 7.41333 344.434 7.9 344.701 8.54C344.981 9.18 345.121 9.95333 345.121 10.86C345.121 11.7667 344.987 12.5467 344.721 13.2C344.454 13.84 344.067 14.3333 343.561 14.68C343.054 15.0133 342.441 15.18 341.721 15.18ZM341.721 14C342.347 14 342.834 13.74 343.181 13.22C343.541 12.6867 343.721 11.9 343.721 10.86C343.721 9.82 343.541 9.04 343.181 8.52C342.834 8 342.347 7.74 341.721 7.74C341.107 7.74 340.621 8 340.261 8.52C339.914 9.04 339.741 9.82 339.741 10.86C339.741 11.9133 339.914 12.7 340.261 13.22C340.621 13.74 341.107 14 341.721 14ZM356.931 15.18C355.984 15.18 355.164 14.9733 354.471 14.56C353.778 14.1467 353.238 13.5667 352.851 12.82C352.478 12.06 352.291 11.1667 352.291 10.14C352.291 9.11333 352.478 8.22667 352.851 7.48C353.238 6.72 353.778 6.13333 354.471 5.72C355.164 5.30667 355.984 5.1 356.931 5.1C357.878 5.1 358.698 5.30667 359.391 5.72C360.084 6.13333 360.618 6.72 360.991 7.48C361.378 8.22667 361.571 9.11333 361.571 10.14C361.571 11.1667 361.378 12.06 360.991 12.82C360.618 13.5667 360.084 14.1467 359.391 14.56C358.698 14.9733 357.878 15.18 356.931 15.18ZM356.931 13.88C357.851 13.88 358.578 13.56 359.111 12.92C359.658 12.2667 359.931 11.3333 359.931 10.12C359.931 8.92 359.658 8 359.111 7.36C358.578 6.72 357.851 6.4 356.931 6.4C356.024 6.4 355.298 6.72 354.751 7.36C354.204 8 353.931 8.92 353.931 10.12C353.931 11.3333 354.204 12.2667 354.751 12.92C355.298 13.56 356.024 13.88 356.931 13.88ZM364.427 15V6.54H362.507V5.28H364.867L364.427 5.7V4.94C364.427 3.64667 364.747 2.66667 365.387 2C366.04 1.33333 367.04 0.959999 368.387 0.879999L369.167 0.84L369.307 2.08L368.387 2.14C367.84 2.18 367.393 2.3 367.047 2.5C366.7 2.7 366.447 2.98667 366.287 3.36C366.127 3.73333 366.047 4.19333 366.047 4.74V5.58L365.807 5.28H368.847V6.54H366.047V15H364.427ZM370.774 15V6.54H368.854V5.28H371.214L370.774 5.7V4.94C370.774 3.64667 371.094 2.66667 371.734 2C372.388 1.33333 373.388 0.959999 374.734 0.879999L375.514 0.84L375.654 2.08L374.734 2.14C374.188 2.18 373.741 2.3 373.394 2.5C373.048 2.7 372.794 2.98667 372.634 3.36C372.474 3.73333 372.394 4.19333 372.394 4.74V5.58L372.154 5.28H375.194V6.54H372.394V15H370.774ZM385.951 15.18C384.805 15.18 383.945 14.8733 383.371 14.26C382.798 13.6467 382.511 12.7733 382.511 11.64V6.54H380.611V5.28H382.511V2.3H384.131V5.28H387.211V6.54H384.131V11.48C384.131 12.24 384.291 12.82 384.611 13.22C384.931 13.6067 385.451 13.8 386.171 13.8C386.385 13.8 386.598 13.7733 386.811 13.72C387.025 13.6667 387.218 13.6133 387.391 13.56L387.671 14.8C387.498 14.8933 387.245 14.98 386.911 15.06C386.578 15.14 386.258 15.18 385.951 15.18ZM389.043 15V0.899999H390.663V7.44H390.403C390.683 6.66667 391.137 6.08667 391.763 5.7C392.403 5.3 393.137 5.1 393.963 5.1C394.737 5.1 395.377 5.24 395.883 5.52C396.403 5.8 396.79 6.22667 397.043 6.8C397.297 7.36 397.423 8.07333 397.423 8.94V15H395.803V9.04C395.803 8.44 395.723 7.94667 395.563 7.56C395.417 7.17333 395.177 6.88667 394.843 6.7C394.523 6.51333 394.103 6.42 393.583 6.42C392.997 6.42 392.483 6.54667 392.043 6.8C391.603 7.05333 391.263 7.40667 391.023 7.86C390.783 8.31333 390.663 8.84667 390.663 9.46V15H389.043ZM400.211 2.86V1.04H402.211V2.86H400.211ZM400.411 15V5.28H402.031V15H400.411ZM408.339 15.18C407.832 15.18 407.339 15.1267 406.859 15.02C406.392 14.9267 405.952 14.7933 405.539 14.62C405.139 14.4333 404.792 14.2133 404.499 13.96L405.019 12.82C405.339 13.0733 405.686 13.2867 406.059 13.46C406.432 13.62 406.812 13.74 407.199 13.82C407.586 13.9 407.979 13.94 408.379 13.94C409.139 13.94 409.712 13.8 410.099 13.52C410.486 13.24 410.679 12.86 410.679 12.38C410.679 12.0067 410.552 11.7133 410.299 11.5C410.046 11.2733 409.646 11.1 409.099 10.98L407.279 10.58C406.439 10.4067 405.812 10.1067 405.399 9.68C404.999 9.25333 404.799 8.7 404.799 8.02C404.799 7.42 404.952 6.90667 405.259 6.48C405.579 6.04 406.026 5.7 406.599 5.46C407.172 5.22 407.839 5.1 408.599 5.1C409.052 5.1 409.486 5.14667 409.899 5.24C410.312 5.33333 410.699 5.47333 411.059 5.66C411.432 5.83333 411.752 6.05333 412.019 6.32L411.479 7.46C411.226 7.22 410.939 7.02 410.619 6.86C410.299 6.68667 409.966 6.56 409.619 6.48C409.286 6.38667 408.946 6.34 408.599 6.34C407.852 6.34 407.286 6.48667 406.899 6.78C406.512 7.07333 406.319 7.46 406.319 7.94C406.319 8.31333 406.439 8.62 406.679 8.86C406.919 9.1 407.292 9.27333 407.799 9.38L409.619 9.76C410.486 9.94667 411.132 10.2467 411.559 10.66C411.999 11.06 412.219 11.6067 412.219 12.3C412.219 12.8867 412.059 13.4 411.739 13.84C411.419 14.2667 410.966 14.6 410.379 14.84C409.806 15.0667 409.126 15.18 408.339 15.18ZM422.405 15L418.785 5.28H420.485L423.465 13.8H422.985L426.065 5.28H427.445L430.465 13.8H430.005L433.025 5.28H434.645L431.005 15H429.465L426.285 6.26H427.145L423.965 15H422.405ZM440.884 15.18C439.858 15.18 438.971 14.98 438.224 14.58C437.491 14.1667 436.918 13.5867 436.504 12.84C436.104 12.0933 435.904 11.2 435.904 10.16C435.904 9.14667 436.104 8.26667 436.504 7.52C436.904 6.76 437.451 6.16667 438.144 5.74C438.851 5.31333 439.664 5.1 440.584 5.1C441.464 5.1 442.218 5.29333 442.844 5.68C443.471 6.06667 443.951 6.61333 444.284 7.32C444.631 8.02667 444.804 8.87333 444.804 9.86V10.48H437.144V9.42H443.724L443.404 9.68C443.404 8.61333 443.164 7.78667 442.684 7.2C442.218 6.6 441.531 6.3 440.624 6.3C439.944 6.3 439.364 6.46 438.884 6.78C438.418 7.08667 438.064 7.52 437.824 8.08C437.584 8.62667 437.464 9.26667 437.464 10V10.12C437.464 10.9333 437.591 11.62 437.844 12.18C438.111 12.74 438.504 13.1667 439.024 13.46C439.544 13.74 440.164 13.88 440.884 13.88C441.458 13.88 442.011 13.7933 442.544 13.62C443.091 13.4333 443.604 13.1333 444.084 12.72L444.644 13.86C444.204 14.26 443.644 14.58 442.964 14.82C442.284 15.06 441.591 15.18 440.884 15.18ZM451.529 15.18C450.502 15.18 449.616 14.98 448.869 14.58C448.136 14.1667 447.562 13.5867 447.149 12.84C446.749 12.0933 446.549 11.2 446.549 10.16C446.549 9.14667 446.749 8.26667 447.149 7.52C447.549 6.76 448.096 6.16667 448.789 5.74C449.496 5.31333 450.309 5.1 451.229 5.1C452.109 5.1 452.862 5.29333 453.489 5.68C454.116 6.06667 454.596 6.61333 454.929 7.32C455.276 8.02667 455.449 8.87333 455.449 9.86V10.48H447.789V9.42H454.369L454.049 9.68C454.049 8.61333 453.809 7.78667 453.329 7.2C452.862 6.6 452.176 6.3 451.269 6.3C450.589 6.3 450.009 6.46 449.529 6.78C449.062 7.08667 448.709 7.52 448.469 8.08C448.229 8.62667 448.109 9.26667 448.109 10V10.12C448.109 10.9333 448.236 11.62 448.489 12.18C448.756 12.74 449.149 13.1667 449.669 13.46C450.189 13.74 450.809 13.88 451.529 13.88C452.102 13.88 452.656 13.7933 453.189 13.62C453.736 13.4333 454.249 13.1333 454.729 12.72L455.289 13.86C454.849 14.26 454.289 14.58 453.609 14.82C452.929 15.06 452.236 15.18 451.529 15.18ZM457.793 15V0.899999H459.413V9.6H459.453L463.953 5.28H466.013L460.673 10.4V9.52L466.433 15H464.373L459.453 10.44H459.413V15H457.793ZM476.97 15.18C476.023 15.18 475.203 14.9733 474.51 14.56C473.817 14.1467 473.277 13.5667 472.89 12.82C472.517 12.06 472.33 11.1667 472.33 10.14C472.33 9.11333 472.517 8.22667 472.89 7.48C473.277 6.72 473.817 6.13333 474.51 5.72C475.203 5.30667 476.023 5.1 476.97 5.1C477.917 5.1 478.737 5.30667 479.43 5.72C480.123 6.13333 480.657 6.72 481.03 7.48C481.417 8.22667 481.61 9.11333 481.61 10.14C481.61 11.1667 481.417 12.06 481.03 12.82C480.657 13.5667 480.123 14.1467 479.43 14.56C478.737 14.9733 477.917 15.18 476.97 15.18ZM476.97 13.88C477.89 13.88 478.617 13.56 479.15 12.92C479.697 12.2667 479.97 11.3333 479.97 10.12C479.97 8.92 479.697 8 479.15 7.36C478.617 6.72 477.89 6.4 476.97 6.4C476.063 6.4 475.337 6.72 474.79 7.36C474.243 8 473.97 8.92 473.97 10.12C473.97 11.3333 474.243 12.2667 474.79 12.92C475.337 13.56 476.063 13.88 476.97 13.88ZM484.043 15V5.28H485.623V7.44H485.403C485.683 6.66667 486.137 6.08667 486.763 5.7C487.403 5.3 488.137 5.1 488.963 5.1C489.737 5.1 490.377 5.24 490.883 5.52C491.403 5.78667 491.79 6.20667 492.043 6.78C492.297 7.35333 492.423 8.07333 492.423 8.94V15H490.803V9.04C490.803 8.44 490.723 7.94667 490.563 7.56C490.417 7.17333 490.177 6.88667 489.843 6.7C489.523 6.51333 489.103 6.42 488.583 6.42C487.997 6.42 487.483 6.54667 487.043 6.8C486.603 7.05333 486.263 7.40667 486.023 7.86C485.783 8.31333 485.663 8.84667 485.663 9.46V15H484.043ZM498.391 15.18C497.404 15.18 496.657 14.8867 496.151 14.3C495.657 13.7133 495.411 12.8733 495.411 11.78V0.899999H497.031V11.66C497.031 12.1267 497.091 12.52 497.211 12.84C497.344 13.16 497.537 13.4 497.791 13.56C498.044 13.72 498.357 13.8 498.731 13.8C498.891 13.8 499.044 13.7933 499.191 13.78C499.351 13.7533 499.497 13.72 499.631 13.68L499.591 15.04C499.377 15.08 499.171 15.1133 498.971 15.14C498.784 15.1667 498.591 15.18 498.391 15.18ZM502.234 18.6L504.054 14.5V15.2L499.794 5.28H501.554L505.034 13.8H504.494L508.014 5.28H509.714L503.934 18.6H502.234ZM511.647 11.32L511.147 0.899999H513.147L512.647 11.32H511.647ZM511.127 15V12.96H513.167V15H511.127Z" fill="#FCFCFC"/>
</svg>
